<?xml version="1.0" encoding="utf-8" standalone="no"?>
<!DOCTYPE svg PUBLIC "-//W3C//DTD SVG 1.1//EN"
  "http://www.w3.org/Graphics/SVG/1.1/DTD/svg11.dtd">
<svg xmlns:xlink="http://www.w3.org/1999/xlink" width="1152pt" height="711.111111pt" viewBox="0 0 1152 711.111111" xmlns="http://www.w3.org/2000/svg" version="1.1">
 <metadata>
  <rdf:RDF xmlns:dc="http://purl.org/dc/elements/1.1/" xmlns:cc="http://creativecommons.org/ns#" xmlns:rdf="http://www.w3.org/1999/02/22-rdf-syntax-ns#">
   <cc:Work>
    <dc:type rdf:resource="http://purl.org/dc/dcmitype/StillImage"/>
    <dc:date>2026-06-09T19:29:19.275445</dc:date>
    <dc:format>image/svg+xml</dc:format>
    <dc:creator>
     <cc:Agent>
      <dc:title>Matplotlib v3.10.6, https://matplotlib.org/</dc:title>
     </cc:Agent>
    </dc:creator>
   </cc:Work>
  </rdf:RDF>
 </metadata>
 <defs>
  <style type="text/css">*{stroke-linejoin: round; stroke-linecap: butt}</style>
 </defs>
 <g id="figure_1">
  <g id="patch_1">
   <path d="M 0 711.111111 
L 1152 711.111111 
L 1152 0 
L 0 0 
L 0 711.111111 
z
" style="fill: none"/>
  </g>
  <g id="axes_1">
   <g id="QuadContourSet_1">
    <path d="M 791.787611 428.75867 
L 788.389381 427.819656 
L 784.99115 426.666877 
L 781.557238 425.305688 
L 778.19469 423.738675 
L 774.631936 421.903243 
L 768.921664 418.500797 
L 768 417.913308 
L 763.877753 415.098352 
L 757.80531 410.501876 
L 754.40708 407.716106 
L 751.00885 404.776524 
L 747.413695 401.48857 
L 740.814159 395.007323 
L 737.24724 391.281233 
L 731.11208 384.476342 
L 723.823009 375.740213 
L 719.943714 370.86656 
L 714.79489 364.061669 
L 705.128814 350.451887 
L 693.238938 332.77074 
L 688.846921 326.634769 
L 686.219171 323.232323 
L 683.044248 319.622472 
L 679.401115 316.427432 
L 676.247788 314.330323 
L 672.849558 312.946602 
L 669.451327 311.956462 
L 666.053097 311.37543 
L 662.654867 311.034579 
L 655.858407 310.730467 
L 632.070796 310.240341 
L 625.274336 309.805152 
L 618.477876 309.11316 
L 611.681416 308.134164 
L 604.884956 306.843829 
L 598.088496 305.184413 
L 591.292035 303.13908 
L 584.495575 300.654502 
L 581.097345 299.252196 
L 574.184353 296.012759 
L 567.504425 292.390701 
L 562.334067 289.207868 
L 560.707965 288.17192 
L 557.23128 285.805423 
L 552.619126 282.402977 
L 548.306912 279.000532 
L 544.263052 275.598086 
L 543.716814 275.133896 
L 540.318584 272.070797 
L 536.868995 268.793195 
L 533.463516 265.39075 
L 527.124793 258.585859 
L 524.160729 255.183413 
L 521.311858 251.780968 
L 518.565656 248.378522 
L 515.911394 244.976077 
L 510.91105 238.171186 
L 508.536681 234.76874 
L 504.0264 227.963849 
L 501.885027 224.561404 
L 497.821595 217.756512 
L 494.028468 210.951621 
L 490.500179 204.14673 
L 487.231013 197.341839 
L 484.215027 190.536948 
L 481.446073 183.732057 
L 478.917849 176.927166 
L 476.661162 170.122275 
L 474.647651 163.317384 
L 472.880005 156.512493 
L 471.379657 149.707602 
L 470.135121 142.902711 
L 469.139479 136.09782 
L 468.427943 129.292929 
L 467.986937 122.488038 
L 467.818069 115.683147 
L 467.92855 108.878256 
L 468.32378 102.073365 
L 469.00962 95.268474 
L 470.028026 88.463583 
L 471.350485 81.658692 
L 473.006696 74.853801 
L 475.028642 68.04891 
L 476.178555 64.646465 
L 479.150442 57.009028 
L 481.900046 51.036683 
L 483.652666 47.634237 
L 485.946903 43.515674 
L 489.855077 37.426901 
L 492.743363 33.473925 
L 496.141593 29.385536 
L 499.539823 25.808552 
L 502.938053 22.695725 
L 506.336283 20.008325 
L 510.996824 17.012228 
L 513.132743 15.825886 
L 516.530973 14.282996 
L 519.929204 13.091013 
L 523.327434 12.242793 
L 526.725664 11.723873 
L 530.123894 11.53084 
L 533.522124 11.66019 
L 536.920354 12.10832 
L 540.318584 12.871516 
L 543.716814 13.95069 
L 547.115044 15.35124 
L 550.513274 17.058601 
L 553.911504 19.094644 
L 557.309735 21.444191 
L 560.707965 24.112995 
L 564.220985 27.219564 
L 567.680455 30.62201 
L 570.902655 34.093624 
L 574.300885 38.094462 
L 579.013616 44.231792 
L 581.448099 47.634237 
L 585.936133 54.439128 
L 590.066026 61.244019 
L 593.899369 68.04891 
L 597.484497 74.853801 
L 600.859862 81.658692 
L 604.056437 88.463583 
L 607.099458 95.268474 
L 611.426438 105.475811 
L 615.498392 115.683147 
L 620.614611 129.292929 
L 625.459424 142.902711 
L 631.225354 159.914939 
L 639.00146 183.732057 
L 649.061947 214.609216 
L 654.786047 231.366295 
L 659.256637 243.786306 
L 665.06654 258.585859 
L 666.494296 261.988304 
L 669.512571 268.793195 
L 672.849558 275.614629 
L 676.247788 281.705254 
L 679.646018 286.66755 
L 683.044248 290.430015 
L 686.442478 292.980459 
L 689.840708 294.700578 
L 693.238938 295.664828 
L 696.637168 296.2226 
L 700.035398 296.510859 
L 703.433628 296.589718 
L 710.230088 296.384621 
L 720.424779 295.694061 
L 737.415929 294.517013 
L 744.212389 294.21852 
L 751.00885 294.096117 
L 757.80531 294.195222 
L 764.60177 294.559407 
L 771.39823 295.231503 
L 778.19469 296.265155 
L 784.99115 297.742798 
L 790.921453 299.415205 
L 791.787611 299.68487 
L 795.185841 300.885031 
L 799.947666 302.81765 
L 801.982301 303.737708 
L 806.805247 306.220096 
L 808.778761 307.345684 
L 812.40513 309.622541 
L 817.060337 313.024987 
L 818.973451 314.569359 
L 822.371681 317.600723 
L 825.769912 321.041767 
L 829.168142 324.983314 
L 832.566372 329.543382 
L 832.900953 330.037214 
L 835.964602 335.002102 
L 836.968516 336.842105 
L 839.362832 341.755131 
L 840.16811 343.646996 
L 841.468729 347.049442 
L 842.761062 350.927464 
L 843.56446 353.854333 
L 844.354267 357.256778 
L 844.998499 360.659224 
L 845.495363 364.061669 
L 845.843142 367.464115 
L 846.040195 370.86656 
L 846.084963 374.269006 
L 845.975973 377.671451 
L 845.711843 381.073897 
L 845.291284 384.476342 
L 844.713104 387.878788 
L 843.976211 391.281233 
L 842.761062 395.712887 
L 841.959157 398.086124 
L 840.634323 401.48857 
L 839.108794 404.891015 
L 835.964602 410.456749 
L 835.134266 411.695906 
L 832.566372 415.185603 
L 829.168142 418.919348 
L 825.769912 421.941704 
L 822.371681 424.343345 
L 818.973451 426.260369 
L 815.575221 427.737149 
L 812.176991 428.835202 
L 808.778761 429.553402 
L 805.380531 429.953909 
L 801.982301 430.055666 
L 798.584071 429.877706 
L 795.185841 429.43906 
L 791.787611 428.75867 
L 791.787611 428.75867 
" clip-path="url(#p727795e047)" style="fill: none; stroke: #000000; stroke-width: 0.55"/>
    <path d="M 582.896223 -0 
L 585.616133 3.402446 
L 588.212417 6.804891 
L 593.049909 13.609782 
L 597.552533 20.414673 
L 601.486726 26.745729 
L 605.750361 34.024455 
L 611.38424 44.231792 
L 615.079646 51.288733 
L 620.066028 61.244019 
L 625.274336 72.085674 
L 632.070796 86.817384 
L 640.430652 105.475811 
L 651.113279 129.292929 
L 655.858407 139.527446 
L 660.775968 149.707602 
L 666.053097 160.054304 
L 669.667903 166.71983 
L 673.58093 173.524721 
L 677.775813 180.329612 
L 679.995955 183.732057 
L 684.76955 190.536948 
L 687.340975 193.939394 
L 690.060387 197.341839 
L 693.238938 201.064667 
L 696.637168 204.753634 
L 700.035398 208.160169 
L 703.433628 211.301627 
L 707.028052 214.354067 
L 711.441531 217.756512 
L 713.628319 219.332405 
L 717.026549 221.595106 
L 721.952009 224.561404 
L 723.823009 225.619731 
L 730.619469 229.064259 
L 737.415929 232.045786 
L 744.489974 234.76874 
L 751.00885 237.039838 
L 761.20354 240.283958 
L 781.59292 246.592384 
L 788.389381 248.883251 
L 796.21145 251.780968 
L 801.982301 254.138503 
L 808.778761 257.226147 
L 812.176991 258.909774 
L 818.973451 262.625347 
L 823.498997 265.39075 
L 828.584801 268.793195 
L 829.168142 269.200587 
L 833.183157 272.195641 
L 837.36607 275.598086 
L 841.20627 279.000532 
L 844.740338 282.402977 
L 848.00204 285.805423 
L 851.022024 289.207868 
L 853.827754 292.610314 
L 856.443576 296.012759 
L 859.752212 300.741248 
L 863.211527 306.220096 
L 866.96717 313.024987 
L 870.213306 319.829878 
L 872.986295 326.634769 
L 874.203629 330.037214 
L 876.349973 336.842105 
L 877.27122 340.244551 
L 878.829936 347.049442 
L 880.050197 353.854333 
L 880.518288 357.256778 
L 881.202737 364.061669 
L 881.561931 370.86656 
L 881.597978 377.671451 
L 881.313929 384.476342 
L 880.713848 391.281233 
L 879.788518 398.086124 
L 878.520717 404.891015 
L 876.743363 412.444986 
L 874.982918 418.500797 
L 872.675525 425.305688 
L 869.946903 432.174589 
L 866.548673 439.446105 
L 863.150442 445.73292 
L 859.752212 451.227347 
L 856.353982 456.10537 
L 852.955752 460.425825 
L 849.557522 464.271678 
L 846.159292 467.685095 
L 842.761062 470.700773 
L 839.362832 473.347005 
L 834.764734 476.342371 
L 832.566372 477.606134 
L 827.955211 479.744817 
L 825.769912 480.609216 
L 822.371681 481.673238 
L 818.973451 482.463905 
L 815.575221 482.992433 
L 812.176991 483.269827 
L 808.778761 483.308155 
L 805.380531 483.119284 
L 801.982301 482.713825 
L 798.584071 482.103884 
L 795.185841 481.301117 
L 790.109132 479.744817 
L 788.389381 479.161028 
L 784.99115 477.843768 
L 781.51477 476.342371 
L 778.19469 474.770138 
L 774.621548 472.939926 
L 768 469.206829 
L 761.20354 464.96201 
L 754.40708 460.37097 
L 747.610619 455.493323 
L 739.185373 449.122807 
L 730.522015 442.317916 
L 709.511233 425.305688 
L 700.035398 417.690168 
L 689.840708 409.749353 
L 679.646018 402.206076 
L 669.451327 395.154321 
L 662.654867 390.752537 
L 655.858407 386.589212 
L 646.184213 381.073897 
L 639.854386 377.671451 
L 632.070796 373.662589 
L 618.477876 366.940225 
L 604.884956 360.179672 
L 594.690265 354.804789 
L 587.011041 350.451887 
L 581.097345 346.88257 
L 574.300885 342.46853 
L 567.504425 337.698468 
L 560.707965 332.52246 
L 553.604012 326.634769 
L 547.115044 320.80922 
L 540.318584 314.211594 
L 533.522124 307.08994 
L 526.715477 299.415205 
L 519.929204 291.198928 
L 513.132743 282.400756 
L 506.336283 272.994506 
L 499.539823 262.952019 
L 492.743363 252.213332 
L 488.431866 244.976077 
L 484.55133 238.171186 
L 480.841416 231.366295 
L 477.303095 224.561404 
L 473.93779 217.756512 
L 470.747223 210.951621 
L 467.733288 204.14673 
L 464.89794 197.341839 
L 462.159292 190.305762 
L 458.635337 180.329612 
L 456.482469 173.524721 
L 454.521213 166.71983 
L 452.768551 159.914939 
L 451.22692 153.110048 
L 449.904871 146.305157 
L 448.566372 137.882527 
L 447.913855 132.695375 
L 447.262157 125.890484 
L 446.837097 119.085593 
L 446.643344 112.280702 
L 446.684201 105.475811 
L 446.961577 98.67092 
L 447.475975 91.866029 
L 448.226512 85.061138 
L 449.229886 78.256247 
L 450.480929 71.451356 
L 451.96502 64.646465 
L 453.732078 57.841574 
L 455.740163 51.036683 
L 458.034434 44.231792 
L 459.283854 40.829346 
L 462.159292 33.658959 
L 465.557522 26.154574 
L 468.955752 19.445026 
L 472.353982 13.384331 
L 476.472523 6.804891 
L 479.150442 2.870047 
L 481.267048 -0 
L 481.267048 -0 
" clip-path="url(#p727795e047)" style="fill: none; stroke: #000000; stroke-width: 0.55"/>
    <path d="M 762.430283 711.111111 
L 768.18856 704.30622 
L 774.79646 696.98695 
L 781.59292 690.023536 
L 788.389381 683.68425 
L 792.142812 680.489102 
L 796.48267 677.086656 
L 798.584071 675.509449 
L 801.982301 673.208965 
L 805.380531 671.132725 
L 808.778761 669.309306 
L 812.176991 667.754877 
L 815.575221 666.486494 
L 818.973451 665.49869 
L 822.371681 664.824469 
L 825.769912 664.463576 
L 829.168142 664.415101 
L 832.566372 664.677468 
L 835.964602 665.248425 
L 839.362832 666.125036 
L 842.761062 667.289686 
L 846.159292 668.717981 
L 849.557522 670.426163 
L 852.955752 672.359941 
L 856.353982 674.537499 
L 859.945557 677.086656 
L 864.306892 680.489102 
L 868.338521 683.891547 
L 869.946903 685.279349 
L 876.743363 691.723626 
L 883.539823 698.798713 
L 890.336283 706.47633 
L 894.193626 711.111111 
M 614.971387 -0 
L 618.857477 6.804891 
L 625.274336 18.549719 
L 632.070796 31.591789 
L 640.122777 47.634237 
L 663.76986 95.268474 
L 669.451327 106.052151 
L 674.789651 115.683147 
L 679.646018 123.998995 
L 685.085058 132.695375 
L 689.640119 139.500266 
L 692.052817 142.902711 
L 694.556621 146.305157 
L 697.16432 149.707602 
L 700.035398 153.283521 
L 703.433628 157.281877 
L 709.009696 163.317384 
L 712.418834 166.71983 
L 716.059664 170.122275 
L 719.965827 173.524721 
L 723.823009 176.649629 
L 728.774308 180.329612 
L 734.017699 183.899488 
L 740.814159 188.05736 
L 747.610619 191.781343 
L 754.40708 195.159107 
L 761.20354 198.271816 
L 771.39823 202.609034 
L 799.821208 214.354067 
L 807.30096 217.756512 
L 812.176991 220.111944 
L 818.973451 223.639527 
L 825.769912 227.494997 
L 832.566372 231.742459 
L 839.362832 236.452249 
L 842.761062 239.001083 
L 846.159292 241.693072 
L 850.046749 244.976077 
L 853.823057 248.378522 
L 857.366939 251.780968 
L 860.698567 255.183413 
L 863.83676 258.585859 
L 866.798847 261.988304 
L 869.946903 265.83956 
L 874.708892 272.195641 
L 877.077628 275.598086 
L 881.417205 282.402977 
L 883.539823 285.996661 
L 887.115198 292.610314 
L 890.409712 299.415205 
L 893.734513 307.216387 
L 895.919748 313.024987 
L 898.191409 319.829878 
L 900.16389 326.634769 
L 901.833906 333.43966 
L 903.234177 340.244551 
L 904.363334 347.049442 
L 905.222257 353.854333 
L 905.830619 360.659224 
L 906.190635 367.464115 
L 906.305162 374.269006 
L 906.177762 381.073897 
L 905.812753 387.878788 
L 905.215265 394.683679 
L 904.3913 401.48857 
L 903.33094 408.293461 
L 902.038993 415.098352 
L 900.530973 421.931416 
L 898.784275 428.708134 
L 896.826029 435.513025 
L 893.734513 444.910719 
L 892.192966 449.122807 
L 889.534254 455.927698 
L 886.636115 462.732589 
L 883.484492 469.53748 
L 880.062024 476.342371 
L 876.347017 483.147262 
L 872.311974 489.952153 
L 867.921457 496.757044 
L 865.574901 500.15949 
L 863.12737 503.561935 
L 859.752212 507.938425 
L 854.764828 513.769272 
L 851.571143 517.171717 
L 849.557522 519.219938 
L 846.159292 522.337269 
L 842.761062 525.124619 
L 839.362832 527.57019 
L 835.964602 529.693715 
L 832.566372 531.462447 
L 829.168142 532.893057 
L 824.752847 534.183945 
L 822.371681 534.710755 
L 818.973451 535.124723 
L 815.575221 535.214524 
L 812.176991 534.996113 
L 807.487446 534.183945 
L 805.380531 533.713725 
L 801.982301 532.699113 
L 797.065188 530.781499 
L 795.185841 529.99189 
L 789.986605 527.379054 
L 788.389381 526.545891 
L 781.59292 522.509423 
L 774.79646 518.005427 
L 764.284533 510.366826 
L 755.499283 503.561935 
L 751.00885 499.999404 
L 737.415929 488.955351 
L 717.026549 472.324911 
L 703.433628 461.568893 
L 693.238938 453.818507 
L 683.044248 446.409936 
L 672.849558 439.380703 
L 662.654867 432.743191 
L 652.460177 426.482015 
L 642.265487 420.551962 
L 628.672566 413.016678 
L 604.884956 400.048873 
L 594.690265 394.193063 
L 587.893805 390.061165 
L 581.097345 385.69232 
L 574.300885 381.036507 
L 567.504425 376.030665 
L 560.707965 370.64234 
L 553.911504 364.814647 
L 547.115044 358.513845 
L 540.318584 351.707183 
L 533.522124 344.370088 
L 526.725664 336.486748 
L 519.929204 328.049783 
L 513.132743 319.065295 
L 506.336283 309.54005 
L 499.496933 299.415205 
L 492.743363 288.893567 
L 485.946903 277.767784 
L 478.765333 265.39075 
L 472.353982 253.755719 
L 466.00519 241.573631 
L 462.159292 233.823689 
L 457.781493 224.561404 
L 453.232306 214.354067 
L 450.372061 207.549176 
L 447.655285 200.744285 
L 443.872402 190.536948 
L 441.5462 183.732057 
L 438.371681 173.48382 
L 436.505557 166.71983 
L 434.80007 159.914939 
L 433.296524 153.110048 
L 431.97916 146.305157 
L 430.867198 139.500266 
L 429.959843 132.695375 
L 429.256232 125.890484 
L 428.760642 119.085593 
L 428.476182 112.280702 
L 428.404764 105.475811 
L 428.547098 98.67092 
L 428.902705 91.866029 
L 429.469951 85.061138 
L 430.246093 78.256247 
L 431.227346 71.451356 
L 432.425015 64.646465 
L 433.828267 57.841574 
L 435.433678 51.036683 
L 437.253314 44.231792 
L 439.275776 37.426901 
L 441.769912 29.847997 
L 443.95396 23.817119 
L 446.616179 17.012228 
L 449.499395 10.207337 
L 452.616727 3.402446 
L 454.272338 -0 
L 454.272338 -0 
" clip-path="url(#p727795e047)" style="fill: none; stroke: #000000; stroke-width: 0.55"/>
    <path d="M 694.790524 711.111111 
L 703.433628 696.27424 
L 708.479421 687.293993 
L 713.917249 677.086656 
L 717.316751 670.281765 
L 720.493164 663.476874 
L 723.412242 656.671983 
L 726.035539 649.867092 
L 728.321988 643.062201 
L 730.232642 636.25731 
L 731.737893 629.452419 
L 732.324755 626.049973 
L 732.794957 622.647528 
L 733.145242 619.245082 
L 733.37251 615.842637 
L 733.473826 612.440191 
L 733.446429 609.037746 
L 733.287731 605.6353 
L 732.995332 602.232855 
L 732.567017 598.830409 
L 732.000765 595.427964 
L 730.619469 589.311133 
L 730.449437 588.623073 
L 729.47127 585.220627 
L 728.350922 581.818182 
L 727.088795 578.415736 
L 725.695871 575.013291 
L 723.823009 570.924463 
L 722.492505 568.2084 
L 720.424779 564.347686 
L 717.026549 558.577884 
L 714.47 554.598618 
L 710.230088 548.574119 
L 707.058605 544.391281 
L 703.433628 539.929596 
L 698.445283 534.183945 
L 693.238938 528.636702 
L 688.585747 523.976608 
L 683.044248 518.770868 
L 677.38716 513.769272 
L 672.849558 509.969328 
L 666.053097 504.588928 
L 659.256637 499.531954 
L 652.460177 494.762414 
L 645.226701 489.952153 
L 635.469027 483.825553 
L 625.274336 477.753673 
L 610.958642 469.53748 
L 594.690265 460.179061 
L 584.495575 454.025372 
L 576.832815 449.122807 
L 570.902655 445.122162 
L 564.106195 440.247319 
L 557.309735 435.014581 
L 550.513274 429.36424 
L 545.960702 425.305688 
L 540.318584 419.97773 
L 535.498535 415.098352 
L 530.123894 409.331062 
L 526.231681 404.891015 
L 519.929204 397.263131 
L 515.309951 391.281233 
L 509.734513 383.6732 
L 502.938053 373.760038 
L 496.141593 363.192965 
L 489.345133 352.022273 
L 482.509292 340.244551 
L 474.928937 326.634769 
L 467.595444 313.024987 
L 460.456344 299.415205 
L 453.486059 285.805423 
L 446.682479 272.195641 
L 440.063788 258.585859 
L 433.665402 244.976077 
L 427.53697 231.366295 
L 423.157639 221.158958 
L 418.992391 210.951621 
L 415.073486 200.744285 
L 411.433168 190.536948 
L 408.102737 180.329612 
L 406.069858 173.524721 
L 404.194035 166.71983 
L 402.487026 159.914939 
L 400.951967 153.110048 
L 399.598719 146.305157 
L 398.429974 139.500266 
L 397.450559 132.695375 
L 396.665056 125.890484 
L 396.074613 119.085593 
L 395.68048 112.280702 
L 395.482834 105.475811 
L 395.480808 98.67092 
L 395.672522 91.866029 
L 396.055134 85.061138 
L 396.624904 78.256247 
L 397.59292 69.793615 
L 398.309423 64.646465 
L 399.414495 57.841574 
L 400.99115 49.537867 
L 402.120449 44.231792 
L 404.559957 34.024455 
L 407.333663 23.817119 
L 409.359633 17.012228 
L 412.645882 6.804891 
L 414.99436 -0 
M 669.977061 -0 
L 677.075429 13.609782 
L 683.044248 24.686874 
L 690.238259 37.426901 
L 696.637168 48.120352 
L 702.849444 57.841574 
L 706.831858 63.732829 
L 712.381072 71.451356 
L 717.026549 77.517823 
L 720.424779 81.710624 
L 726.278031 88.463583 
L 730.619469 93.13312 
L 736.172388 98.67092 
L 740.814159 102.984044 
L 744.212389 105.957794 
L 751.00885 111.492562 
L 756.611373 115.683147 
L 761.45788 119.085593 
L 768 123.378744 
L 774.79646 127.546615 
L 783.739317 132.695375 
L 791.787611 137.113117 
L 818.973451 151.888446 
L 829.168142 157.87448 
L 837.75591 163.317384 
L 842.815308 166.71983 
L 849.557522 171.546241 
L 856.522253 176.927166 
L 863.150442 182.459183 
L 869.946903 188.614037 
L 875.38289 193.939394 
L 880.141593 198.892648 
L 884.859905 204.14673 
L 887.771054 207.549176 
L 893.259079 214.354067 
L 897.132743 219.489765 
L 900.744113 224.561404 
L 905.282744 231.366295 
L 909.508638 238.171186 
L 913.439707 244.976077 
L 917.092334 251.780968 
L 920.481401 258.585859 
L 923.620338 265.39075 
L 926.52119 272.195641 
L 929.194688 279.000532 
L 931.650331 285.805423 
L 934.513274 294.638304 
L 935.914126 299.415205 
L 937.911504 306.899471 
L 939.361394 313.024987 
L 940.790154 319.829878 
L 942.021993 326.634769 
L 943.061936 333.43966 
L 943.917153 340.244551 
L 944.707965 348.564509 
L 945.073642 353.854333 
L 945.378922 360.659224 
L 945.508338 367.464115 
L 945.464781 374.269006 
L 945.251684 381.073897 
L 944.707965 390.125199 
L 944.328856 394.683679 
L 943.624944 401.48857 
L 942.28697 411.695906 
L 940.622239 421.903243 
L 938.649846 432.110579 
L 936.392583 442.317916 
L 933.884721 452.525253 
L 931.115044 462.876297 
L 927.221181 476.342371 
L 921.995139 493.354599 
L 912.52454 523.976608 
L 909.626117 534.183945 
L 907.327434 543.131171 
L 906.209177 547.793727 
L 904.764683 554.598618 
L 903.540199 561.403509 
L 902.551545 568.2084 
L 901.850728 575.013291 
L 901.458915 581.818182 
L 901.395143 588.623073 
L 901.675988 595.427964 
L 902.315254 602.232855 
L 903.3237 609.037746 
L 904.680669 615.842637 
L 906.382057 622.647528 
L 908.411133 629.452419 
L 910.756284 636.25731 
L 913.357147 643.062201 
L 917.522124 652.786705 
L 919.286977 656.671983 
L 924.318584 667.007051 
L 929.520887 677.086656 
L 937.911504 692.49999 
L 944.707965 704.667999 
L 948.324524 711.111111 
L 948.324524 711.111111 
" clip-path="url(#p727795e047)" style="fill: none; stroke: #000000; stroke-width: 0.55"/>
    <path d="M 662.55721 711.111111 
L 668.518228 700.903775 
L 674.222982 690.696438 
L 677.82802 683.891547 
L 681.23632 677.086656 
L 684.415257 670.281765 
L 687.332601 663.476874 
L 689.956498 656.671983 
L 692.250958 649.867092 
L 694.189501 643.062201 
L 695.739423 636.25731 
L 696.872489 629.452419 
L 697.272543 626.049973 
L 697.558026 622.647528 
L 697.725638 619.245082 
L 697.772249 615.842637 
L 697.694904 612.440191 
L 697.490833 609.037746 
L 697.157462 605.6353 
L 696.637168 601.917491 
L 696.091213 598.830409 
L 695.35336 595.427964 
L 694.477334 592.025518 
L 693.238938 587.965214 
L 692.299604 585.220627 
L 689.840708 579.110066 
L 689.541455 578.415736 
L 687.936149 575.013291 
L 686.183003 571.610845 
L 683.044248 566.177162 
L 682.203888 564.805954 
L 679.646018 560.925312 
L 676.247788 556.209981 
L 672.849558 551.875358 
L 669.394194 547.793727 
L 666.053097 544.122801 
L 662.654867 540.609746 
L 659.256637 537.288688 
L 655.858407 534.135399 
L 649.061947 528.274333 
L 643.69358 523.976608 
L 638.867257 520.326316 
L 632.070796 515.477531 
L 624.483719 510.366826 
L 613.777007 503.561935 
L 596.995212 493.354599 
L 584.495575 485.703188 
L 574.300885 479.16155 
L 567.504425 474.551945 
L 560.529508 469.53748 
L 553.911504 464.465758 
L 547.115044 458.866115 
L 540.015442 452.525253 
L 533.522124 446.234673 
L 529.739092 442.317916 
L 523.327434 435.248597 
L 517.84552 428.708134 
L 513.132743 422.738006 
L 507.501248 415.098352 
L 502.938053 408.546746 
L 498.292775 401.48857 
L 492.743363 392.624295 
L 485.939052 381.073897 
L 479.150442 368.900956 
L 471.156838 353.854333 
L 464.169651 340.244551 
L 455.362832 322.674867 
L 440.640306 292.610314 
L 429.221211 268.793195 
L 421.272545 251.780968 
L 414.584071 236.974442 
L 409.19985 224.561404 
L 404.389381 212.908258 
L 400.952197 204.14673 
L 397.184121 193.939394 
L 393.699832 183.732057 
L 390.533812 173.524721 
L 388.614975 166.71983 
L 386.861527 159.914939 
L 385.279578 153.110048 
L 383.878732 146.305157 
L 382.660755 139.500266 
L 381.634689 132.695375 
L 380.60177 123.883376 
L 380.166941 119.085593 
L 379.727888 112.280702 
L 379.48662 105.475811 
L 379.441587 98.67092 
L 379.590239 91.866029 
L 379.929088 85.061138 
L 380.60177 76.73134 
L 381.157517 71.451356 
L 382.035344 64.646465 
L 383.081291 57.841574 
L 384.288025 51.036683 
L 386.38228 40.829346 
L 388.79674 30.62201 
L 391.505651 20.414673 
L 394.484769 10.207337 
L 397.711852 -0 
M 700.770346 -0 
L 706.831858 10.307343 
L 713.187202 20.414673 
L 717.026549 26.184054 
L 722.560984 34.024455 
L 727.221239 40.236165 
L 730.619469 44.524684 
L 736.107769 51.036683 
L 740.814159 56.267546 
L 745.607501 61.244019 
L 751.00885 66.495155 
L 756.502216 71.451356 
L 761.20354 75.437463 
L 768 80.803966 
L 774.79646 85.784268 
L 781.59292 90.44764 
L 789.01564 95.268474 
L 800.03971 102.073365 
L 825.769912 117.673482 
L 835.964602 124.257816 
L 843.296351 129.292929 
L 849.557522 133.821621 
L 856.915005 139.500266 
L 863.150442 144.623832 
L 869.946903 150.605679 
L 876.743363 157.036379 
L 883.539823 163.964438 
L 890.336283 171.444758 
L 894.987181 176.927166 
L 900.530973 183.842251 
L 905.546543 190.536948 
L 910.725664 197.884041 
L 914.866399 204.14673 
L 919.117027 210.951621 
L 923.12426 217.756512 
L 926.899907 224.561404 
L 930.454557 231.366295 
L 933.797637 238.171186 
L 936.937468 244.976077 
L 939.881327 251.780968 
L 942.635512 258.585859 
L 945.205403 265.39075 
L 948.106195 273.741247 
L 950.832244 282.402977 
L 952.772391 289.207868 
L 954.902655 297.501743 
L 956.134657 302.81765 
L 957.559469 309.622541 
L 958.814691 316.427432 
L 959.899618 323.232323 
L 960.819907 330.037214 
L 961.699115 338.161105 
L 962.165573 343.646996 
L 962.593119 350.451887 
L 962.861089 357.256778 
L 962.971499 364.061669 
L 962.926827 370.86656 
L 962.730052 377.671451 
L 962.157537 387.878788 
L 961.261917 398.086124 
L 960.058105 408.293461 
L 958.57052 418.500797 
L 956.811022 428.708134 
L 954.815748 438.91547 
L 952.599896 449.122807 
L 950.205546 459.330144 
L 946.795986 472.939926 
L 940.527612 496.757044 
L 936.125914 513.769272 
L 932.876538 527.379054 
L 930.713123 537.58639 
L 929.432686 544.391281 
L 928.323734 551.196172 
L 927.398698 558.001063 
L 926.673898 564.805954 
L 926.180378 571.610845 
L 925.934458 578.415736 
L 925.950777 585.220627 
L 926.24205 592.025518 
L 926.818842 598.830409 
L 927.716814 605.806585 
L 928.833185 612.440191 
L 930.271532 619.245082 
L 931.985935 626.049973 
L 933.968108 632.854864 
L 936.195842 639.659755 
L 938.664421 646.464646 
L 941.350461 653.269537 
L 944.707965 661.162838 
L 948.106195 668.662763 
L 951.504425 675.79902 
L 955.515723 683.891547 
L 961.699115 695.840753 
L 968.495575 708.580692 
L 969.85699 711.111111 
L 969.85699 711.111111 
" clip-path="url(#p727795e047)" style="fill: none; stroke: #000000; stroke-width: 0.55"/>
    <path d="M 626.43289 711.111111 
L 632.790092 700.903775 
L 636.83264 694.098884 
L 640.681557 687.293993 
L 644.300474 680.489102 
L 647.654492 673.684211 
L 650.710482 666.87932 
L 653.437335 660.074428 
L 655.858407 653.09589 
L 657.768307 646.464646 
L 659.318215 639.659755 
L 659.917797 636.25731 
L 660.401538 632.854864 
L 660.764943 629.452419 
L 661.00369 626.049973 
L 661.113637 622.647528 
L 661.090845 619.245082 
L 660.931589 615.842637 
L 660.632376 612.440191 
L 660.189955 609.037746 
L 659.256637 604.040421 
L 658.857616 602.232855 
L 657.954742 598.830409 
L 656.895931 595.427964 
L 655.676382 592.025518 
L 654.27799 588.623073 
L 652.460177 584.712922 
L 650.966412 581.818182 
L 649.044708 578.415736 
L 645.663717 573.144227 
L 644.60953 571.610845 
L 642.102993 568.2084 
L 638.867257 564.195144 
L 635.469027 560.320896 
L 632.070796 556.728151 
L 628.672566 553.368102 
L 625.274336 550.201641 
L 621.876106 547.19698 
L 615.079646 541.590531 
L 609.896022 537.58639 
L 601.486726 531.461904 
L 594.690265 526.723171 
L 565.978879 506.964381 
L 560.707965 503.125896 
L 552.413664 496.757044 
L 547.115044 492.461871 
L 540.268828 486.549708 
L 533.522124 480.285757 
L 526.725664 473.45397 
L 523.074063 469.53748 
L 516.530973 462.067337 
L 511.551332 455.927698 
L 506.360648 449.122807 
L 502.938053 444.374425 
L 499.186004 438.91547 
L 494.740801 432.110579 
L 489.345133 423.377531 
L 484.533874 415.098352 
L 478.894599 404.891015 
L 472.353982 392.386746 
L 465.034843 377.671451 
L 456.885844 360.659224 
L 447.325631 340.244551 
L 400.99115 240.534695 
L 395.43296 227.963849 
L 389.668301 214.354067 
L 385.567358 204.14673 
L 381.701175 193.939394 
L 378.108839 183.732057 
L 374.828667 173.524721 
L 371.897397 163.317384 
L 370.156723 156.512493 
L 368.589606 149.707602 
L 367.00885 141.763033 
L 366.026608 136.09782 
L 365.038214 129.292929 
L 364.253011 122.488038 
L 363.610619 114.714612 
L 363.290473 108.878256 
L 363.112429 102.073365 
L 363.135282 95.268474 
L 363.355241 88.463583 
L 363.76621 81.658692 
L 364.360239 74.853801 
L 365.133464 68.04891 
L 366.079064 61.244019 
L 367.188356 54.439128 
L 368.447191 47.634237 
L 370.609506 37.426901 
L 373.064091 27.219564 
L 375.784867 17.012228 
L 378.742802 6.804891 
L 380.833264 -0 
M 740.553952 -0 
L 744.212389 4.754704 
L 748.646849 10.207337 
L 754.40708 16.844374 
L 757.80531 20.521803 
L 764.60177 27.408568 
L 771.716268 34.024455 
L 778.19469 39.598796 
L 784.99115 45.070509 
L 792.885329 51.036683 
L 802.412538 57.841574 
L 818.973451 69.163769 
L 832.566372 78.542215 
L 842.761062 85.912189 
L 850.537208 91.866029 
L 856.353982 96.527537 
L 863.150442 102.282937 
L 870.469691 108.878256 
L 876.743363 114.882144 
L 884.164774 122.488038 
L 890.389873 129.292929 
L 897.132743 137.156345 
L 903.929204 145.650239 
L 910.725664 154.755006 
L 916.694643 163.317384 
L 921.18869 170.122275 
L 925.463192 176.927166 
L 931.115044 186.435694 
L 935.309385 193.939394 
L 938.931412 200.744285 
L 942.384534 207.549176 
L 947.258616 217.756512 
L 950.309049 224.561404 
L 953.204998 231.366295 
L 957.264269 241.573631 
L 959.781845 248.378522 
L 963.279145 258.585859 
L 966.442659 268.793195 
L 969.273142 279.000532 
L 971.770238 289.207868 
L 973.247623 296.012759 
L 975.187462 306.220096 
L 976.293089 313.024987 
L 977.673562 323.232323 
L 978.720958 333.43966 
L 979.435184 343.646996 
L 979.821636 353.854333 
L 979.885531 364.061669 
L 979.634294 374.269006 
L 979.077815 384.476342 
L 978.227459 394.683679 
L 977.098172 404.891015 
L 975.709847 415.098352 
L 974.080225 425.305688 
L 971.893805 437.295262 
L 969.492043 449.122807 
L 966.491652 462.732589 
L 961.699115 483.218912 
L 956.925205 503.561935 
L 953.939251 517.171717 
L 951.908846 527.379054 
L 950.121156 537.58639 
L 949.101335 544.391281 
L 948.106195 552.466255 
L 947.551861 558.001063 
L 947.055182 564.805954 
L 946.768618 571.610845 
L 946.705754 578.415736 
L 946.878645 585.220627 
L 947.297621 592.025518 
L 948.106195 599.891653 
L 948.89391 605.6353 
L 950.075733 612.440191 
L 951.520026 619.245082 
L 953.203563 626.049973 
L 955.139384 632.854864 
L 957.30074 639.659755 
L 959.68501 646.464646 
L 962.278012 653.269537 
L 965.097345 660.15646 
L 968.495575 667.935514 
L 972.739723 677.086656 
L 977.756642 687.293993 
L 984.796808 700.903775 
L 990.260021 711.111111 
L 990.260021 711.111111 
" clip-path="url(#p727795e047)" style="fill: none; stroke: #000000; stroke-width: 0.55"/>
    <path d="M 523.307218 711.111111 
L 530.123894 702.581536 
L 534.017589 697.501329 
L 538.971798 690.696438 
L 543.716814 683.696876 
L 547.815785 677.086656 
L 551.596302 670.281765 
L 553.911504 665.578732 
L 554.883337 663.476874 
L 557.309735 657.511232 
L 557.629391 656.671983 
L 558.781025 653.269537 
L 559.783607 649.867092 
L 560.707965 646.078522 
L 561.309906 643.062201 
L 561.823276 639.659755 
L 562.166062 636.25731 
L 562.333915 632.854864 
L 562.323261 629.452419 
L 562.131332 626.049973 
L 561.756207 622.647528 
L 561.196821 619.245082 
L 560.45216 615.842637 
L 559.522397 612.440191 
L 558.411418 609.037746 
L 557.122097 605.6353 
L 555.659655 602.232855 
L 553.911504 598.608194 
L 552.243092 595.427964 
L 548.234908 588.623073 
L 543.716814 581.800272 
L 538.854191 575.013291 
L 530.123894 563.591718 
L 509.734513 537.029398 
L 502.822224 527.379054 
L 495.918337 517.171717 
L 489.448214 506.964381 
L 485.946903 501.148899 
L 481.474919 493.354599 
L 475.928724 483.147262 
L 472.353982 476.209681 
L 467.418684 466.135035 
L 462.159292 454.809486 
L 456.678948 442.317916 
L 450.979927 428.708134 
L 444.135108 411.695906 
L 417.982301 345.789317 
L 411.185841 329.596117 
L 403.974658 313.024987 
L 396.29884 296.012759 
L 387.39823 276.911862 
L 373.774191 248.378522 
L 363.610619 226.953155 
L 357.809737 214.354067 
L 351.824743 200.744285 
L 347.595896 190.536948 
L 343.221239 179.152206 
L 341.191977 173.524721 
L 337.823572 163.317384 
L 335.808623 156.512493 
L 333.986381 149.707602 
L 332.376267 142.902711 
L 330.980414 136.09782 
L 329.628319 127.964763 
L 328.881452 122.488038 
L 328.179542 115.683147 
L 327.7162 108.878256 
L 327.487902 102.073365 
L 327.489871 95.268474 
L 327.716176 88.463583 
L 328.159838 81.658692 
L 328.812939 74.853801 
L 329.666028 68.04891 
L 330.691728 61.244019 
L 331.895677 54.439128 
L 333.996419 44.231792 
L 336.424779 33.985685 
L 339.091805 23.817119 
L 341.998531 13.609782 
L 346.163714 -0 
M 894.300005 -0 
L 907.327434 24.209633 
L 919.550025 47.634237 
L 926.457438 61.244019 
L 933.206882 74.853801 
L 939.792153 88.463583 
L 946.206943 102.073365 
L 952.443579 115.683147 
L 959.971723 132.695375 
L 965.766602 146.305157 
L 971.893805 161.289142 
L 976.677629 173.524721 
L 982.088496 188.04915 
L 986.554063 200.744285 
L 989.953533 210.951621 
L 993.170475 221.158958 
L 996.193624 231.366295 
L 999.079646 241.831441 
L 1001.615809 251.780968 
L 1003.992723 261.988304 
L 1006.130453 272.195641 
L 1008.024352 282.402977 
L 1009.659917 292.610314 
L 1011.03487 302.81765 
L 1012.137454 313.024987 
L 1012.966474 323.232323 
L 1013.520047 333.43966 
L 1013.794881 343.646996 
L 1013.792926 353.854333 
L 1013.518164 364.061669 
L 1012.976826 374.269006 
L 1012.18052 384.476342 
L 1011.140959 394.683679 
L 1009.870704 404.891015 
L 1008.391672 415.098352 
L 1006.724339 425.305688 
L 1004.253294 438.91547 
L 1000.86488 455.927698 
L 990.380392 506.964381 
L 988.569794 517.171717 
L 986.971333 527.379054 
L 985.638705 537.58639 
L 984.621899 547.793727 
L 984.14493 554.598618 
L 983.844961 561.403509 
L 983.734773 568.2084 
L 983.826009 575.013291 
L 984.128992 581.818182 
L 984.652552 588.623073 
L 985.486726 596.038687 
L 986.386173 602.232855 
L 987.604203 609.037746 
L 989.05934 615.842637 
L 990.748692 622.647528 
L 992.671229 629.452419 
L 994.820866 636.25731 
L 997.191872 643.062201 
L 999.775755 649.867092 
L 1002.562801 656.671983 
L 1005.876106 664.205988 
L 1009.274336 671.463643 
L 1013.759785 680.489102 
L 1019.469027 691.288418 
L 1024.822068 700.903775 
L 1030.730655 711.111111 
L 1030.730655 711.111111 
" clip-path="url(#p727795e047)" style="fill: none; stroke: #000000; stroke-width: 0.55"/>
    <path d="M 454.656861 711.111111 
L 460.985988 704.30622 
L 466.958453 697.501329 
L 472.549005 690.696438 
L 477.727886 683.891547 
L 482.462532 677.086656 
L 485.946903 671.561121 
L 488.661628 666.87932 
L 490.471015 663.476874 
L 492.743363 658.751973 
L 493.680999 656.671983 
L 495.076042 653.269537 
L 496.325527 649.867092 
L 497.433078 646.464646 
L 498.391356 643.062201 
L 499.539823 637.915184 
L 499.861771 636.25731 
L 500.377362 632.854864 
L 500.745577 629.452419 
L 500.968663 626.049973 
L 501.049526 622.647528 
L 500.991679 619.245082 
L 500.799194 615.842637 
L 500.47664 612.440191 
L 499.539823 606.109709 
L 499.46273 605.6353 
L 498.01208 598.830409 
L 496.141593 591.96081 
L 493.994908 585.220627 
L 491.554424 578.415736 
L 488.901699 571.610845 
L 484.65324 561.403509 
L 477.192424 544.391281 
L 468.204865 523.976608 
L 462.159292 509.76696 
L 455.362832 493.000392 
L 448.970926 476.342371 
L 445.168142 466.023216 
L 438.371681 446.892674 
L 414.371654 377.671451 
L 408.067278 360.659224 
L 402.787648 347.049442 
L 397.271893 333.43966 
L 390.79646 318.213553 
L 385.468283 306.220096 
L 379.187861 292.610314 
L 372.68114 279.000532 
L 363.610619 260.621767 
L 338.704332 210.951621 
L 332.264642 197.341839 
L 327.694731 187.134503 
L 323.428531 176.927166 
L 319.433628 166.455877 
L 317.146815 159.914939 
L 314.983247 153.110048 
L 313.048297 146.305157 
L 311.342012 139.500266 
L 309.895998 132.695375 
L 308.708285 125.890484 
L 307.781785 119.085593 
L 307.13123 112.280702 
L 306.752411 105.475811 
L 306.639577 98.67092 
L 306.785557 91.866029 
L 307.181894 85.061138 
L 307.818989 78.256247 
L 308.686249 71.451356 
L 309.759351 64.646465 
L 311.021006 57.841574 
L 312.637168 50.329572 
L 314.067519 44.231792 
L 316.736851 34.024455 
L 319.671835 23.817119 
L 322.831858 13.569182 
L 327.256753 -0 
M 0 665.889058 
L 22.147488 677.086656 
L 40.778761 686.305466 
L 91.559016 711.111111 
M 960.874273 -0 
L 961.09655 6.804891 
L 961.699115 14.98962 
L 962.258255 20.414673 
L 963.143905 27.219564 
L 964.202978 34.024455 
L 966.073441 44.231792 
L 968.231569 54.439128 
L 971.472313 68.04891 
L 975.292035 82.567642 
L 978.852013 95.268474 
L 983.857279 112.280702 
L 992.283186 139.939725 
L 1001.452601 170.122275 
L 1007.398654 190.536948 
L 1012.073163 207.549176 
L 1015.573679 221.158958 
L 1018.819028 234.76874 
L 1021.771269 248.378522 
L 1023.770025 258.585859 
L 1025.568958 268.793195 
L 1027.156547 279.000532 
L 1028.519618 289.207868 
L 1029.663717 299.62744 
L 1030.531395 309.622541 
L 1031.166619 319.829878 
L 1031.545918 330.037214 
L 1031.667837 340.244551 
L 1031.53278 350.451887 
L 1031.143207 360.659224 
L 1030.503846 370.86656 
L 1029.622331 381.073897 
L 1028.518716 391.281233 
L 1027.197528 401.48857 
L 1025.680103 411.695906 
L 1023.3912 425.305688 
L 1020.854475 438.91547 
L 1017.439601 455.927698 
L 1009.274336 495.952039 
L 1007.252051 506.964381 
L 1005.560486 517.171717 
L 1004.099437 527.379054 
L 1002.914952 537.58639 
L 1002.304223 544.391281 
L 1001.853701 551.196172 
L 1001.575724 558.001063 
L 1001.482974 564.805954 
L 1001.587078 571.610845 
L 1001.898421 578.415736 
L 1002.477876 585.730478 
L 1003.178815 592.025518 
L 1004.161524 598.830409 
L 1005.377812 605.6353 
L 1006.832486 612.440191 
L 1008.524592 619.245082 
L 1010.454841 626.049973 
L 1012.672566 633.01443 
L 1015.015381 639.659755 
L 1017.63722 646.464646 
L 1020.477161 653.269537 
L 1023.527707 660.074428 
L 1026.780247 666.87932 
L 1030.225067 673.684211 
L 1033.85138 680.489102 
L 1039.602018 690.696438 
L 1043.628714 697.501329 
L 1050.053097 707.91938 
L 1052.083713 711.111111 
L 1052.083713 711.111111 
" clip-path="url(#p727795e047)" style="fill: none; stroke: #000000; stroke-width: 0.55"/>
    <path d="M 373.082831 711.111111 
L 377.20354 708.743785 
L 384 704.509143 
L 389.311345 700.903775 
L 394.19469 697.362649 
L 400.99115 692.007108 
L 406.472215 687.293993 
L 411.185841 682.926062 
L 414.584071 679.567191 
L 417.982301 676.009644 
L 423.046939 670.281765 
L 425.825925 666.87932 
L 428.441115 663.476874 
L 431.575221 659.079243 
L 434.973451 653.850943 
L 437.32604 649.867092 
L 439.171285 646.464646 
L 441.769912 641.114668 
L 442.429529 639.659755 
L 443.848471 636.25731 
L 445.168142 632.745553 
L 446.280963 629.452419 
L 447.301042 626.049973 
L 448.566372 621.020383 
L 449.620336 615.842637 
L 450.589972 609.037746 
L 451.139135 602.232855 
L 451.307029 595.427964 
L 451.133644 588.623073 
L 450.658655 581.818182 
L 449.920508 575.013291 
L 448.955703 568.2084 
L 447.165948 558.001063 
L 445.050551 547.793727 
L 442.705494 537.58639 
L 439.335393 523.976608 
L 434.000162 503.561935 
L 423.931368 466.135035 
L 415.499443 435.513025 
L 409.630905 415.098352 
L 404.480006 398.086124 
L 400.126609 384.476342 
L 395.526554 370.86656 
L 390.79646 357.665158 
L 387.39823 348.654464 
L 382.727355 336.842105 
L 378.483778 326.634769 
L 373.80531 315.884688 
L 367.819684 302.81765 
L 362.927661 292.610314 
L 356.124047 279.000532 
L 349.032161 265.39075 
L 341.705788 251.780968 
L 332.334858 234.76874 
L 317.307812 207.549176 
L 308.326033 190.536948 
L 303.260374 180.329612 
L 298.542931 170.122275 
L 295.638576 163.317384 
L 292.939494 156.512493 
L 290.489196 149.707602 
L 288.318924 142.902711 
L 286.428927 136.09782 
L 284.854625 129.292929 
L 283.593524 122.488038 
L 282.674612 115.683147 
L 282.092643 108.878256 
L 281.833235 102.073365 
L 281.903401 95.268474 
L 282.285307 88.463583 
L 282.959102 81.658692 
L 283.915618 74.853801 
L 285.139802 68.04891 
L 286.580616 61.244019 
L 288.240535 54.439128 
L 291.057228 44.231792 
L 294.210095 34.024455 
L 297.622354 23.817119 
L 302.470102 10.207337 
L 306.236593 -0 
M 0 626.550922 
L 11.847326 632.854864 
L 20.389381 637.23645 
L 33.982301 643.940377 
L 47.575221 650.360955 
L 61.458848 656.671983 
L 76.94363 663.476874 
L 88.353982 668.372651 
L 112.141593 678.315152 
L 139.327434 689.395149 
L 166.513274 700.18434 
L 186.902655 707.948805 
L 195.582685 711.111111 
M 1025.322314 -0 
L 1022.867257 5.227211 
L 1020.866163 10.207337 
L 1019.469027 14.21371 
L 1017.647695 20.414673 
L 1016.055367 27.219564 
L 1014.854845 34.024455 
L 1013.982479 40.829346 
L 1013.403021 47.634237 
L 1013.085172 54.439128 
L 1013.001011 61.244019 
L 1013.125516 68.04891 
L 1013.436155 74.853801 
L 1013.912554 81.658692 
L 1014.897918 91.866029 
L 1016.160191 102.073365 
L 1017.665175 112.280702 
L 1019.469027 123.132982 
L 1021.852971 136.09782 
L 1025.242401 153.110048 
L 1030.24728 176.927166 
L 1035.951909 204.14673 
L 1039.316911 221.158958 
L 1042.406769 238.171186 
L 1044.617319 251.780968 
L 1046.089975 261.988304 
L 1047.785182 275.598086 
L 1048.830003 285.805423 
L 1049.663686 296.012759 
L 1050.281142 306.220096 
L 1050.674344 316.427432 
L 1050.831947 326.634769 
L 1050.750519 336.842105 
L 1050.428607 347.049442 
L 1049.869649 357.256778 
L 1049.082895 367.464115 
L 1048.068338 377.671451 
L 1046.654867 389.20962 
L 1045.409555 398.086124 
L 1043.796508 408.293461 
L 1041.40505 421.903243 
L 1038.783917 435.513025 
L 1034.584203 455.927698 
L 1028.244784 486.549708 
L 1025.662589 500.15949 
L 1023.918048 510.366826 
L 1022.387039 520.574163 
L 1021.123432 530.781499 
L 1020.169384 540.988836 
L 1019.729546 547.793727 
L 1019.462825 554.598618 
L 1019.382611 561.403509 
L 1019.499114 568.2084 
L 1019.824811 575.013291 
L 1020.36841 581.818182 
L 1021.137681 588.623073 
L 1022.138699 595.427964 
L 1023.379555 602.232855 
L 1024.865889 609.037746 
L 1026.595129 615.842637 
L 1028.576095 622.647528 
L 1030.803256 629.452419 
L 1033.273972 636.25731 
L 1036.460177 644.170043 
L 1039.858407 651.851254 
L 1043.256637 658.938919 
L 1046.654867 665.561792 
L 1050.053097 671.813048 
L 1053.451327 677.761064 
L 1057.118753 683.891547 
L 1061.380509 690.696438 
L 1067.044248 699.327428 
L 1073.840708 709.16328 
L 1075.23323 711.111111 
L 1075.23323 711.111111 
" clip-path="url(#p727795e047)" style="fill: none; stroke: #000000; stroke-width: 0.55"/>
    <path d="M 0 556.74394 
L 6.804079 561.403509 
L 13.59292 565.789604 
L 20.389381 569.940836 
L 29.237333 575.013291 
L 35.529592 578.415736 
L 42.136221 581.818182 
L 50.973451 586.122549 
L 61.168142 590.75827 
L 72.224109 595.427964 
L 81.557522 599.122199 
L 91.752212 602.916489 
L 101.946903 606.487834 
L 112.141593 609.860535 
L 125.734513 614.085749 
L 139.327434 618.034524 
L 152.920354 621.735226 
L 166.513274 625.20062 
L 180.106195 628.425389 
L 193.699115 631.383793 
L 203.893805 633.398676 
L 214.088496 635.211179 
L 224.283186 636.78225 
L 234.477876 638.072319 
L 241.274336 638.749932 
L 248.070796 639.26331 
L 254.867257 639.594981 
L 261.663717 639.725986 
L 268.460177 639.634923 
L 275.256637 639.299532 
L 282.053097 638.694801 
L 288.849558 637.79359 
L 295.646018 636.566159 
L 302.442478 634.97701 
L 309.238938 632.988252 
L 312.637168 631.827147 
L 318.697494 629.452419 
L 322.831858 627.599752 
L 326.230088 625.914686 
L 332.042552 622.647528 
L 333.026549 622.052771 
L 337.298378 619.245082 
L 341.909725 615.842637 
L 343.221239 614.803378 
L 346.619469 611.910885 
L 350.017699 608.725204 
L 353.415929 605.199191 
L 356.814159 601.272608 
L 360.212389 596.867543 
L 361.235998 595.427964 
L 363.610619 591.878054 
L 367.00885 586.10833 
L 369.220523 581.818182 
L 370.810626 578.415736 
L 373.579716 571.610845 
L 374.777334 568.2084 
L 376.862159 561.403509 
L 377.755297 558.001063 
L 379.28009 551.196172 
L 380.60177 543.726227 
L 381.439251 537.58639 
L 382.138479 530.781499 
L 382.625634 523.976608 
L 382.923129 517.171717 
L 383.050443 510.366826 
L 382.958288 500.15949 
L 382.566531 489.952153 
L 381.910304 479.744817 
L 381.015293 469.53748 
L 379.89086 459.330144 
L 378.549524 449.122807 
L 376.999898 438.91547 
L 375.227393 428.708134 
L 373.240811 418.500797 
L 371.023424 408.293461 
L 368.56505 398.086124 
L 365.859009 387.878788 
L 362.890445 377.671451 
L 359.644396 367.464115 
L 356.10656 357.256778 
L 352.264077 347.049442 
L 348.106323 336.842105 
L 345.153305 330.037214 
L 342.051802 323.232323 
L 337.114739 313.024987 
L 333.026549 305.073229 
L 328.094609 296.012759 
L 322.831858 286.85386 
L 318.069528 279.000532 
L 312.637168 270.426354 
L 305.840708 260.250843 
L 299.044248 250.585554 
L 292.247788 241.357912 
L 284.547186 231.366295 
L 278.654867 223.970821 
L 267.83234 210.951621 
L 258.265487 199.858509 
L 240.795519 180.329612 
L 222.520262 159.914939 
L 213.931876 149.707602 
L 208.612093 142.902711 
L 203.842423 136.09782 
L 201.669596 132.695375 
L 197.954059 125.890484 
L 196.430535 122.488038 
L 195.140336 119.085593 
L 194.13082 115.683147 
L 193.3802 112.280702 
L 192.892544 108.878256 
L 192.687904 105.475811 
L 192.759809 102.073365 
L 193.101159 98.67092 
L 193.703997 95.268474 
L 194.513931 91.866029 
L 195.556014 88.463583 
L 197.097345 84.430788 
L 198.239606 81.658692 
L 200.495575 77.009883 
L 201.568545 74.853801 
L 205.387099 68.04891 
L 210.690265 59.536582 
L 214.088496 54.305828 
L 220.884956 44.204474 
L 241.274336 13.883853 
L 250.046204 -0 
M 0 109.939714 
L 3.39823 112.361569 
L 7.20534 115.683147 
L 10.270853 119.085593 
L 12.615867 122.488038 
L 14.325289 125.890484 
L 15.481101 129.292929 
L 16.14588 132.695375 
L 16.382147 136.09782 
L 16.24392 139.500266 
L 15.778086 142.902711 
L 15.02552 146.305157 
L 13.59292 150.870593 
L 12.808791 153.110048 
L 11.411892 156.512493 
L 8.168651 163.317384 
L 4.472026 170.122275 
L 0 177.652056 
M 1152 79.764536 
L 1148.60177 80.603211 
L 1145.157782 81.658692 
L 1141.80531 82.922803 
L 1137.211034 85.061138 
L 1135.00885 86.251643 
L 1131.472519 88.463583 
L 1127.003006 91.866029 
L 1124.814159 93.783321 
L 1121.415929 97.211612 
L 1118.017699 101.262633 
L 1117.411881 102.073365 
L 1114.619469 106.10947 
L 1112.955392 108.878256 
L 1111.08234 112.280702 
L 1109.45061 115.683147 
L 1107.823009 119.42011 
L 1105.475369 125.890484 
L 1104.402125 129.292929 
L 1102.625533 136.09782 
L 1101.026549 143.738396 
L 1100.05971 149.707602 
L 1099.184318 156.512493 
L 1098.51507 163.317384 
L 1098.023141 170.122275 
L 1097.563758 180.329612 
L 1097.371837 190.536948 
L 1097.400003 204.14673 
L 1097.71335 221.158958 
L 1098.564098 258.585859 
L 1098.664739 272.195641 
L 1098.552139 285.805423 
L 1098.176454 299.415205 
L 1097.628319 310.785772 
L 1097.04875 319.829878 
L 1096.2107 330.037214 
L 1095.172685 340.244551 
L 1093.936808 350.451887 
L 1092.522001 360.659224 
L 1090.831858 371.288724 
L 1089.1308 381.073897 
L 1086.501969 394.683679 
L 1083.626408 408.293461 
L 1080.559357 421.903243 
L 1075.753514 442.317916 
L 1069.338726 469.53748 
L 1066.336457 483.147262 
L 1063.603963 496.757044 
L 1061.809444 506.964381 
L 1060.247788 517.280896 
L 1059.038503 527.379054 
L 1058.414627 534.183945 
L 1057.962419 540.988836 
L 1057.696926 547.793727 
L 1057.632426 554.598618 
L 1057.7822 561.403509 
L 1058.158316 568.2084 
L 1058.771404 575.013291 
L 1059.630463 581.818182 
L 1060.751156 588.623073 
L 1062.145059 595.427964 
L 1063.807417 602.232855 
L 1065.767496 609.037746 
L 1068.014285 615.842637 
L 1070.556288 622.647528 
L 1073.840708 630.4096 
L 1077.238938 637.594588 
L 1080.637168 644.133015 
L 1084.035398 650.169084 
L 1087.991581 656.671983 
L 1092.457498 663.476874 
L 1097.250756 670.281765 
L 1101.026549 675.320443 
L 1105.100348 680.489102 
L 1111.221239 687.81702 
L 1118.017699 695.409053 
L 1124.814159 702.523607 
L 1131.610619 709.225896 
L 1133.604935 711.111111 
L 1133.604935 711.111111 
" clip-path="url(#p727795e047)" style="fill: none; stroke: #000000; stroke-width: 0.55"/>
    <path d="M 0 521.746019 
L 6.70117 527.379054 
L 11.029338 530.781499 
L 16.99115 535.206107 
L 23.787611 539.90941 
L 30.751379 544.391281 
L 37.380531 548.370071 
L 44.176991 552.185207 
L 50.973451 555.756329 
L 57.769912 559.103358 
L 64.566372 562.243963 
L 71.362832 565.193857 
L 78.777328 568.2084 
L 88.353982 571.824897 
L 98.548673 575.353302 
L 108.743363 578.585858 
L 119.908282 581.818182 
L 129.132743 584.278171 
L 139.327434 586.782683 
L 149.522124 589.080951 
L 159.716814 591.185558 
L 169.911504 593.09984 
L 180.106195 594.821288 
L 190.300885 596.341812 
L 200.495575 597.642936 
L 210.690265 598.697672 
L 220.884956 599.471502 
L 227.681416 599.807857 
L 234.477876 599.981409 
L 241.274336 599.972941 
L 248.070796 599.76043 
L 254.867257 599.318764 
L 261.663717 598.618985 
L 268.460177 597.626742 
L 275.256637 596.30502 
L 282.053097 594.606966 
L 288.849558 592.478348 
L 292.247788 591.230705 
L 298.38974 588.623073 
L 299.044248 588.323063 
L 305.045808 585.220627 
L 305.840708 584.776097 
L 310.623386 581.818182 
L 312.637168 580.457844 
L 316.035398 577.958932 
L 319.63851 575.013291 
L 323.352384 571.610845 
L 326.675334 568.2084 
L 329.668356 564.805954 
L 333.026549 560.514106 
L 336.424779 555.571499 
L 339.069989 551.196172 
L 340.924525 547.793727 
L 343.221239 543.124214 
L 345.597412 537.58639 
L 346.903326 534.183945 
L 349.173039 527.379054 
L 351.062529 520.574163 
L 352.620416 513.769272 
L 353.885731 506.964381 
L 354.883561 500.15949 
L 355.652007 493.354599 
L 356.209492 486.549708 
L 356.571665 479.744817 
L 356.751699 472.939926 
L 356.760561 466.135035 
L 356.607278 459.330144 
L 356.299176 452.525253 
L 355.559191 442.317916 
L 354.49837 432.110579 
L 353.121102 421.903243 
L 351.413653 411.695906 
L 350.017699 404.472937 
L 347.848596 394.683679 
L 346.163582 387.878788 
L 343.341054 377.671451 
L 341.249437 370.86656 
L 339.001005 364.061669 
L 336.424779 356.826944 
L 332.618527 347.049442 
L 329.628319 339.968417 
L 326.230088 332.467369 
L 322.831858 325.441786 
L 319.433628 318.826465 
L 316.035398 312.567062 
L 312.397567 306.220096 
L 308.271746 299.415205 
L 303.913349 292.610314 
L 299.044248 285.409221 
L 294.447274 279.000532 
L 288.849558 271.588538 
L 282.053097 263.161841 
L 275.171961 255.183413 
L 268.460177 247.880454 
L 261.663717 240.92835 
L 254.867257 234.387888 
L 247.758676 227.963849 
L 241.274336 222.434276 
L 234.477876 216.988221 
L 227.681416 211.874788 
L 220.884956 207.089884 
L 214.088496 202.61639 
L 207.292035 198.463941 
L 199.179238 193.939394 
L 193.699115 191.102019 
L 185.146199 187.134503 
L 180.106195 184.995547 
L 173.309735 182.428376 
L 166.513274 180.20496 
L 159.716814 178.290878 
L 152.920354 176.74802 
L 146.123894 175.528128 
L 139.327434 174.681755 
L 132.530973 174.203762 
L 125.734513 174.09294 
L 118.938053 174.35241 
L 112.141593 174.990115 
L 105.345133 176.019415 
L 98.548673 177.435118 
L 91.752212 179.223873 
L 84.955752 181.407621 
L 78.159292 183.989998 
L 74.761062 185.408329 
L 67.964602 188.565317 
L 61.168142 192.11459 
L 54.371681 196.062386 
L 47.109469 200.744285 
L 40.778761 205.176981 
L 33.266245 210.951621 
L 27.185841 215.988569 
L 20.389381 222.078186 
L 13.59292 228.654009 
L 6.79646 235.74946 
L 1.593749 241.573631 
L 0 243.413497 
M 1152 199.044465 
L 1149.942635 204.14673 
L 1148.60177 207.790842 
L 1146.54146 214.354067 
L 1144.67871 221.158958 
L 1143.078252 227.963849 
L 1141.638009 234.76874 
L 1139.775925 244.976077 
L 1138.094264 255.183413 
L 1134.572638 279.000532 
L 1131.538079 299.415205 
L 1129.373875 313.024987 
L 1126.379641 330.037214 
L 1123.725553 343.646996 
L 1120.828417 357.256778 
L 1117.695965 370.86656 
L 1114.347812 384.476342 
L 1110.815097 398.086124 
L 1106.209319 415.098352 
L 1094.033755 459.330144 
L 1090.549208 472.939926 
L 1087.346603 486.549708 
L 1085.204449 496.757044 
L 1083.317517 506.964381 
L 1081.748919 517.171717 
L 1080.637168 526.388175 
L 1080.222977 530.781499 
L 1079.743922 537.58639 
L 1079.467899 544.391281 
L 1079.410519 551.196172 
L 1079.586351 558.001063 
L 1080.008664 564.805954 
L 1080.690356 571.610845 
L 1081.660496 578.415736 
L 1082.91275 585.220627 
L 1084.462628 592.025518 
L 1086.33651 598.830409 
L 1088.534484 605.6353 
L 1091.06728 612.440191 
L 1094.230088 619.832195 
L 1097.628319 626.836313 
L 1101.026549 633.132729 
L 1104.918552 639.659755 
L 1109.389127 646.464646 
L 1111.779417 649.867092 
L 1116.91671 656.671983 
L 1121.415929 662.179744 
L 1125.521817 666.87932 
L 1131.610619 673.378697 
L 1135.323082 677.086656 
L 1141.80531 683.173889 
L 1146.502073 687.293993 
L 1152 691.868987 
M 0 45.32691 
L 23.787611 45.802465 
L 47.575221 46.23429 
L 61.168142 46.253628 
L 71.362832 46.064657 
L 81.557522 45.633675 
L 88.353982 45.178658 
L 95.150442 44.564194 
L 101.946903 43.782349 
L 108.743363 42.8116 
L 115.539823 41.615473 
L 122.336283 40.187642 
L 129.132743 38.512489 
L 135.929204 36.561119 
L 142.725664 34.317096 
L 149.522124 31.778061 
L 156.318584 28.907273 
L 163.115044 25.690387 
L 169.911504 22.108538 
L 176.707965 18.13849 
L 183.709315 13.609782 
L 190.300885 8.938584 
L 197.388631 3.402446 
L 201.429431 -0 
L 201.429431 -0 
" clip-path="url(#p727795e047)" style="fill: none; stroke: #000000; stroke-width: 0.55"/>
    <path d="M 0 482.095697 
L 3.716755 486.549708 
L 6.79646 490.002907 
L 10.19469 493.594131 
L 13.59292 496.984666 
L 16.99115 500.194219 
L 20.765939 503.561935 
L 27.185841 508.874108 
L 30.584071 511.498404 
L 37.380531 516.395883 
L 43.703235 520.574163 
L 47.575221 522.970818 
L 54.371681 526.909443 
L 61.168142 530.532672 
L 68.64004 534.183945 
L 76.255847 537.58639 
L 81.557522 539.785562 
L 88.353982 542.405313 
L 95.150442 544.822897 
L 104.354816 547.793727 
L 108.743363 549.103179 
L 116.321245 551.196172 
L 125.734513 553.538996 
L 135.929204 555.768134 
L 146.123894 557.702061 
L 156.318584 559.355568 
L 166.513274 560.738862 
L 176.707965 561.852373 
L 186.902655 562.687567 
L 197.097345 563.227249 
L 203.893805 563.408552 
L 210.690265 563.433215 
L 217.486726 563.286029 
L 224.283186 562.948455 
L 231.079646 562.398233 
L 237.876106 561.608911 
L 244.672566 560.544467 
L 251.469027 559.16888 
L 258.265487 557.434966 
L 265.061947 555.281559 
L 268.460177 554.02612 
L 271.858407 552.635229 
L 275.256637 551.103665 
L 278.654867 549.404115 
L 282.053097 547.53516 
L 287.074076 544.391281 
L 288.849558 543.175226 
L 292.247788 540.643975 
L 295.920326 537.58639 
L 299.555093 534.183945 
L 302.801022 530.781499 
L 305.840708 527.225973 
L 309.238938 522.725316 
L 312.637168 517.569367 
L 314.835842 513.769272 
L 316.632881 510.366826 
L 319.433628 504.340486 
L 321.116666 500.15949 
L 322.831858 495.383341 
L 324.511758 489.952153 
L 326.287513 483.147262 
L 327.698649 476.342371 
L 328.814226 469.53748 
L 329.653484 462.732589 
L 330.220445 455.927698 
L 330.548735 449.122807 
L 330.649671 442.317916 
L 330.532679 435.513025 
L 330.205591 428.708134 
L 329.628319 421.441423 
L 328.929909 415.098352 
L 327.985793 408.293461 
L 326.847671 401.48857 
L 325.502038 394.683679 
L 323.950077 387.878788 
L 322.194622 381.073897 
L 320.222402 374.269006 
L 318.030125 367.464115 
L 315.621446 360.659224 
L 312.637168 353.031046 
L 309.238938 345.163302 
L 305.840708 337.976856 
L 302.442478 331.350437 
L 299.044248 325.188834 
L 295.646018 319.417674 
L 291.610939 313.024987 
L 286.993743 306.220096 
L 282.037237 299.415205 
L 276.666935 292.610314 
L 271.858407 286.906368 
L 267.820819 282.402977 
L 261.663717 275.954396 
L 257.833192 272.195641 
L 251.469027 266.316354 
L 244.672566 260.523816 
L 237.868515 255.183413 
L 231.079646 250.280779 
L 224.283186 245.772231 
L 217.364889 241.573631 
L 210.690265 237.871615 
L 203.893805 234.446511 
L 197.097345 231.356191 
L 190.300885 228.585524 
L 183.504425 226.130614 
L 176.707965 223.989321 
L 169.911504 222.149264 
L 163.115044 220.613919 
L 156.318584 219.374009 
L 149.522124 218.439045 
L 142.725664 217.806166 
L 135.929204 217.469965 
L 129.132743 217.441228 
L 121.92915 217.756512 
L 115.539823 218.319338 
L 108.743363 219.236824 
L 101.946903 220.490927 
L 95.150442 222.082114 
L 88.353982 224.027199 
L 81.557522 226.331668 
L 74.761062 229.018382 
L 67.964602 232.100044 
L 61.168142 235.59469 
L 54.371681 239.525813 
L 47.575221 243.922577 
L 41.369061 248.378522 
L 37.380531 251.462904 
L 32.890174 255.183413 
L 27.185841 260.268059 
L 21.916718 265.39075 
L 16.99115 270.553646 
L 12.533615 275.598086 
L 9.694294 279.000532 
L 4.402625 285.805423 
L 1.932146 289.207868 
L 0 291.976125 
M 1152 376.557685 
L 1138.060375 411.695906 
L 1130.431602 432.110579 
L 1125.601673 445.720362 
L 1122.163574 455.927698 
L 1119.98018 462.732589 
L 1116.879949 472.939926 
L 1114.029722 483.147262 
L 1111.221239 494.446298 
L 1109.271488 503.561935 
L 1107.823009 511.408452 
L 1106.927906 517.171717 
L 1106.054328 523.976608 
L 1105.391974 530.781499 
L 1104.96057 537.58639 
L 1104.779109 544.391281 
L 1104.865516 551.196172 
L 1105.236295 558.001063 
L 1105.906192 564.805954 
L 1106.887856 571.610845 
L 1108.202898 578.415736 
L 1109.886274 585.220627 
L 1111.93558 592.025518 
L 1114.38292 598.830409 
L 1115.775745 602.232855 
L 1118.874387 609.037746 
L 1122.445254 615.842637 
L 1124.814159 619.914215 
L 1128.75357 626.049973 
L 1131.610619 630.109376 
L 1136.361853 636.25731 
L 1139.212706 639.659755 
L 1142.238715 643.062201 
L 1145.453902 646.464646 
L 1148.8733 649.867092 
L 1152 652.805928 
M 0 1.390909 
L 16.485025 -0 
L 16.485025 -0 
" clip-path="url(#p727795e047)" style="fill: none; stroke: #000000; stroke-width: 0.55"/>
    <path d="M 129.132743 490.414289 
L 132.530973 490.984827 
L 135.929204 491.488807 
L 139.327434 491.927012 
L 142.725664 492.300084 
L 146.123894 492.608519 
L 149.522124 492.852656 
L 152.920354 493.032673 
L 156.318584 493.148578 
L 159.716814 493.200198 
L 163.115044 493.187171 
L 166.513274 493.10893 
L 169.911504 492.964694 
L 173.309735 492.753453 
L 176.707965 492.47395 
L 180.106195 492.124665 
L 183.504425 491.703797 
L 186.902655 491.209241 
L 190.300885 490.638567 
L 193.699115 489.988991 
L 193.872229 489.952153 
L 197.097345 489.241487 
L 200.495575 488.40527 
L 203.893805 487.476986 
L 206.971929 486.549708 
L 207.292035 486.449487 
L 210.690265 485.29388 
L 214.088496 484.027103 
L 216.259736 483.147262 
L 217.486726 482.628381 
L 220.884956 481.075709 
L 223.56835 479.744817 
L 224.283186 479.373391 
L 227.681416 477.476947 
L 229.566224 476.342371 
L 231.079646 475.383783 
L 234.477876 473.066797 
L 234.652312 472.939926 
L 237.876106 470.460317 
L 238.995815 469.53748 
L 241.274336 467.542699 
L 242.779682 466.135035 
L 244.672566 464.24532 
L 246.095216 462.732589 
L 248.070796 460.476961 
L 249.016225 459.330144 
L 251.469027 456.11406 
L 251.603114 455.927698 
L 253.870058 452.525253 
L 254.867257 450.886226 
L 255.882566 449.122807 
L 257.661466 445.720362 
L 258.265487 444.441695 
L 259.217478 442.317916 
L 260.57878 438.91547 
L 261.663717 435.829692 
L 261.769621 435.513025 
L 262.769149 432.110579 
L 263.619479 428.708134 
L 264.325539 425.305688 
L 264.891827 421.903243 
L 265.061947 420.569628 
L 265.314022 418.500797 
L 265.603153 415.098352 
L 265.768025 411.695906 
L 265.811644 408.293461 
L 265.73678 404.891015 
L 265.545988 401.48857 
L 265.241636 398.086124 
L 265.061947 396.623533 
L 264.818188 394.683679 
L 264.275997 391.281233 
L 263.62295 387.878788 
L 262.860914 384.476342 
L 261.991655 381.073897 
L 261.663717 379.935166 
L 260.995532 377.671451 
L 259.881253 374.269006 
L 258.66122 370.86656 
L 258.265487 369.854558 
L 257.306021 367.464115 
L 255.831461 364.061669 
L 254.867257 361.989138 
L 254.231473 360.659224 
L 252.492197 357.256778 
L 251.469027 355.373857 
L 250.619553 353.854333 
L 248.604457 350.451887 
L 248.070796 349.598744 
L 246.428232 347.049442 
L 244.672566 344.458206 
L 244.105916 343.646996 
L 241.610991 340.244551 
L 241.274336 339.806006 
L 238.925424 336.842105 
L 237.876106 335.573709 
L 236.051654 333.43966 
L 234.477876 331.672711 
L 232.970851 330.037214 
L 231.079646 328.063359 
L 229.661918 326.634769 
L 227.681416 324.711861 
L 226.101058 323.232323 
L 224.283186 321.58944 
L 222.26124 319.829878 
L 220.884956 318.67162 
L 218.111526 316.427432 
L 217.486726 315.93763 
L 214.088496 313.38052 
L 213.595597 313.024987 
L 210.690265 310.991805 
L 208.645286 309.622541 
L 207.292035 308.741888 
L 203.893805 306.630348 
L 203.201044 306.220096 
L 200.495575 304.660546 
L 197.131934 302.81765 
L 197.097345 302.799171 
L 193.699115 301.077253 
L 190.300885 299.449857 
L 190.224146 299.415205 
L 186.902655 297.950521 
L 183.504425 296.544044 
L 182.131841 296.012759 
L 180.106195 295.245755 
L 176.707965 294.048519 
L 173.309735 292.941264 
L 172.204824 292.610314 
L 169.911504 291.937157 
L 166.513274 291.027912 
L 163.115044 290.207454 
L 159.716814 289.476121 
L 158.296893 289.207868 
L 156.318584 288.840866 
L 152.920354 288.29887 
L 149.522124 287.846118 
L 146.123894 287.483374 
L 142.725664 287.211516 
L 139.327434 287.03154 
L 135.929204 286.944559 
L 132.530973 286.951807 
L 129.132743 287.054635 
L 125.734513 287.254519 
L 122.336283 287.553057 
L 118.938053 287.951973 
L 115.539823 288.453118 
L 112.141593 289.058472 
L 111.42695 289.207868 
L 108.743363 289.780088 
L 105.345133 290.614782 
L 101.946903 291.562314 
L 98.596218 292.610314 
L 98.548673 292.625524 
L 95.150442 293.829548 
L 91.752212 295.156707 
L 89.747128 296.012759 
L 88.353982 296.622846 
L 84.955752 298.239329 
L 82.671059 299.415205 
L 81.557522 300.004627 
L 78.159292 301.939472 
L 76.720262 302.81765 
L 74.761062 304.050714 
L 71.536271 306.220096 
L 71.362832 306.340739 
L 67.964602 308.85279 
L 66.983093 309.622541 
L 64.566372 311.588219 
L 62.896172 313.024987 
L 61.168142 314.571114 
L 59.200219 316.427432 
L 57.769912 317.834997 
L 55.841367 319.829878 
L 54.371681 321.421016 
L 52.775457 323.232323 
L 50.973451 325.379903 
L 49.96614 326.634769 
L 47.575221 329.774587 
L 47.383406 330.037214 
L 45.03089 333.43966 
L 44.176991 334.75171 
L 42.868357 336.842105 
L 40.87356 340.244551 
L 40.778761 340.417638 
L 39.07267 343.646996 
L 37.40844 347.049442 
L 37.380531 347.111263 
L 35.921848 350.451887 
L 34.564986 353.854333 
L 33.982301 355.466355 
L 33.354692 357.256778 
L 32.285476 360.659224 
L 31.341077 364.061669 
L 30.584071 367.204127 
L 30.523152 367.464115 
L 29.846645 370.86656 
L 29.292045 374.269006 
L 28.859655 377.671451 
L 28.549874 381.073897 
L 28.363188 384.476342 
L 28.300171 387.878788 
L 28.361482 391.281233 
L 28.547864 394.683679 
L 28.860144 398.086124 
L 29.299225 401.48857 
L 29.866092 404.891015 
L 30.561804 408.293461 
L 30.584071 408.385527 
L 31.408462 411.695906 
L 32.390152 415.098352 
L 33.507546 418.500797 
L 33.982301 419.792011 
L 34.783405 421.903243 
L 36.214273 425.305688 
L 37.380531 427.829655 
L 37.800262 428.708134 
L 39.568694 432.110579 
L 40.778761 434.261019 
L 41.508607 435.513025 
L 43.640885 438.91547 
L 44.176991 439.71584 
L 45.985824 442.317916 
L 47.575221 444.464737 
L 48.541578 445.720362 
L 50.973451 448.701781 
L 51.331041 449.122807 
L 54.371681 452.51568 
L 54.380629 452.525253 
L 57.722526 455.927698 
L 57.769912 455.973746 
L 61.168142 459.136395 
L 61.385944 459.330144 
L 64.566372 462.041444 
L 65.415954 462.732589 
L 67.964602 464.725852 
L 69.855631 466.135035 
L 71.362832 467.217996 
L 74.755745 469.53748 
L 74.761062 469.540994 
L 78.159292 471.678007 
L 80.275448 472.939926 
L 81.557522 473.68144 
L 84.955752 475.54368 
L 86.497234 476.342371 
L 88.353982 477.278176 
L 91.752212 478.89482 
L 93.649356 479.744817 
L 95.150442 480.400825 
L 98.548673 481.796612 
L 101.946903 483.105527 
L 102.062921 483.147262 
L 105.345133 484.302449 
L 108.743363 485.417673 
L 112.141593 486.454048 
L 112.481334 486.549708 
L 115.539823 487.394652 
L 118.938053 488.259299 
L 122.336283 489.051515 
L 125.734513 489.772635 
L 126.674335 489.952153 
L 129.132743 490.414289 
z
" clip-path="url(#p727795e047)" style="fill: none; stroke: #000000; stroke-width: 0.55"/>
    <path d="M 142.725664 449.222271 
L 146.123894 449.297433 
L 149.522124 449.253387 
L 152.235377 449.122807 
L 152.920354 449.087894 
L 156.318584 448.789042 
L 159.716814 448.361812 
L 163.115044 447.80423 
L 166.513274 447.113826 
L 169.911504 446.287591 
L 171.917449 445.720362 
L 173.309735 445.299675 
L 176.707965 444.127817 
L 180.106195 442.798053 
L 181.208699 442.317916 
L 183.504425 441.241083 
L 186.902655 439.470773 
L 187.874659 438.91547 
L 190.300885 437.410053 
L 193.089017 435.513025 
L 193.699115 435.058323 
L 197.097345 432.305949 
L 197.32072 432.110579 
L 200.495575 429.032005 
L 200.805673 428.708134 
L 203.710087 425.305688 
L 203.893805 425.061253 
L 206.111425 421.903243 
L 207.292035 419.950905 
L 208.114597 418.500797 
L 209.747089 415.098352 
L 210.690265 412.696582 
L 211.060562 411.695906 
L 212.056205 408.293461 
L 212.785523 404.891015 
L 213.257687 401.48857 
L 213.480898 398.086124 
L 213.462491 394.683679 
L 213.209031 391.281233 
L 212.726396 387.878788 
L 212.019858 384.476342 
L 211.09415 381.073897 
L 210.690265 379.87545 
L 209.92133 377.671451 
L 208.510679 374.269006 
L 207.292035 371.72539 
L 206.864975 370.86656 
L 204.941183 367.464115 
L 203.893805 365.806801 
L 202.745892 364.061669 
L 200.495575 360.965808 
L 200.263023 360.659224 
L 197.433347 357.256778 
L 197.097345 356.88505 
L 194.228864 353.854333 
L 193.699115 353.335949 
L 190.602889 350.451887 
L 190.300885 350.189914 
L 186.902655 347.395238 
L 186.457545 347.049442 
L 183.504425 344.903846 
L 181.66493 343.646996 
L 180.106195 342.646363 
L 176.707965 340.606652 
L 176.058625 340.244551 
L 173.309735 338.798863 
L 169.911504 337.149953 
L 169.217503 336.842105 
L 166.513274 335.706665 
L 163.115044 334.415828 
L 160.237072 333.43966 
L 159.716814 333.272035 
L 156.318584 332.311397 
L 152.920354 331.486821 
L 149.522124 330.800673 
L 146.123894 330.255427 
L 144.277497 330.037214 
L 142.725664 329.862448 
L 139.327434 329.619159 
L 135.929204 329.517762 
L 132.530973 329.560977 
L 129.132743 329.751634 
L 126.286549 330.037214 
L 125.734513 330.095496 
L 122.336283 330.615182 
L 118.938053 331.299554 
L 115.539823 332.152082 
L 112.141593 333.176345 
L 111.394397 333.43966 
L 108.743363 334.428249 
L 105.345133 335.88419 
L 103.369301 336.842105 
L 101.946903 337.575772 
L 98.548673 339.535629 
L 97.438289 340.244551 
L 95.150442 341.807911 
L 92.700628 343.646996 
L 91.752212 344.413996 
L 88.763446 347.049442 
L 88.353982 347.441309 
L 85.449867 350.451887 
L 84.955752 351.01266 
L 82.630737 353.854333 
L 81.557522 355.30513 
L 80.209956 357.256778 
L 78.159292 360.582517 
L 78.114936 360.659224 
L 76.380894 364.061669 
L 74.884964 367.464115 
L 74.761062 367.798683 
L 73.690124 370.86656 
L 72.7263 374.269006 
L 71.98648 377.671451 
L 71.470633 381.073897 
L 71.362832 382.330265 
L 71.188351 384.476342 
L 71.124019 387.878788 
L 71.272183 391.281233 
L 71.362832 392.136272 
L 71.647725 394.683679 
L 72.252495 398.086124 
L 73.081628 401.48857 
L 74.135182 404.891015 
L 74.761062 406.558404 
L 75.450181 408.293461 
L 77.037198 411.695906 
L 78.159292 413.791328 
L 78.902012 415.098352 
L 81.082316 418.500797 
L 81.557522 419.167622 
L 83.632157 421.903243 
L 84.955752 423.490515 
L 86.571592 425.305688 
L 88.353982 427.144619 
L 89.977067 428.708134 
L 91.752212 430.291771 
L 93.94332 432.110579 
L 95.150442 433.045246 
L 98.548673 435.484604 
L 98.591602 435.513025 
L 101.946903 437.599151 
L 104.251669 438.91547 
L 105.345133 439.505228 
L 108.743363 441.178197 
L 111.295263 442.317916 
L 112.141593 442.676798 
L 115.539823 443.971364 
L 118.938053 445.125202 
L 120.933588 445.720362 
L 122.336283 446.119669 
L 125.734513 446.954674 
L 129.132743 447.66139 
L 132.530973 448.241134 
L 135.929204 448.694925 
L 139.327434 449.023477 
L 140.990768 449.122807 
L 142.725664 449.222271 
z
" clip-path="url(#p727795e047)" style="fill: none; stroke: #000000; stroke-width: 0.55"/>
   </g>
   <g id="QuadContourSet_2">
    <path d="M 560.707965 228.50277 
L 557.309735 227.511659 
L 553.911504 226.182208 
L 550.511003 224.561404 
L 547.115044 222.60524 
L 543.716814 220.364424 
L 540.236419 217.756512 
L 536.272642 214.354067 
L 532.720338 210.951621 
L 529.492896 207.549176 
L 526.525491 204.14673 
L 523.327434 200.118847 
L 518.964156 193.939394 
L 516.530973 190.187598 
L 512.804959 183.732057 
L 509.362259 176.927166 
L 506.336283 170.053665 
L 503.832587 163.317384 
L 502.690271 159.914939 
L 500.761915 153.110048 
L 499.539823 148.005234 
L 498.57046 142.902711 
L 497.609428 136.09782 
L 497.037372 129.292929 
L 496.884415 122.488038 
L 496.973932 119.085593 
L 497.178488 115.683147 
L 497.501111 112.280702 
L 497.944607 108.878256 
L 498.511533 105.475811 
L 499.539823 100.673402 
L 500.073114 98.67092 
L 501.119703 95.268474 
L 502.938053 90.270461 
L 503.736594 88.463583 
L 506.336283 83.322723 
L 507.362099 81.658692 
L 509.734513 78.136727 
L 513.132743 74.186336 
L 516.530973 71.129642 
L 519.929204 68.837061 
L 523.327434 67.185916 
L 526.725664 66.119976 
L 530.123894 65.583385 
L 533.522124 65.55572 
L 536.920354 66.016663 
L 540.318584 66.946004 
L 543.716814 68.334199 
L 547.115044 70.207124 
L 550.513274 72.539202 
L 553.911504 75.345312 
L 557.309735 78.650447 
L 560.707965 82.478333 
L 564.106195 86.850458 
L 567.55572 91.866029 
L 571.616052 98.67092 
L 575.18041 105.475811 
L 578.34382 112.280702 
L 581.17473 119.085593 
L 584.495575 128.243045 
L 585.926041 132.695375 
L 587.950251 139.500266 
L 589.69485 146.305157 
L 591.292035 153.3404 
L 592.519951 159.914939 
L 593.564908 166.71983 
L 594.353957 173.524721 
L 594.839533 180.329612 
L 594.976096 187.134503 
L 594.714028 193.939394 
L 594.387458 197.341839 
L 593.911839 200.744285 
L 593.268619 204.14673 
L 592.433507 207.549176 
L 591.292035 211.182234 
L 589.944455 214.354067 
L 587.893805 218.183148 
L 585.692239 221.158958 
L 584.495575 222.526061 
L 581.097345 225.442268 
L 577.699115 227.388346 
L 574.300885 228.606564 
L 570.902655 229.242921 
L 567.504425 229.401134 
L 564.106195 229.139143 
L 560.707965 228.50277 
L 560.707965 228.50277 
" clip-path="url(#p727795e047)" style="fill: none; stroke: #000000; stroke-width: 1.5"/>
    <path d="M 726.551914 711.111111 
L 735.303173 697.501329 
L 748.293106 677.086656 
L 754.497355 666.87932 
L 758.452013 660.074428 
L 762.195742 653.269537 
L 765.674561 646.464646 
L 768.824273 639.659755 
L 771.39823 633.27285 
L 771.566323 632.854864 
L 772.783827 629.452419 
L 773.851725 626.049973 
L 774.79646 622.504908 
L 775.557734 619.245082 
L 776.179577 615.842637 
L 776.623927 612.440191 
L 776.885961 609.037746 
L 776.96099 605.6353 
L 776.844471 602.232855 
L 776.532005 598.830409 
L 776.019344 595.427964 
L 774.79646 590.15827 
L 774.399874 588.623073 
L 773.32481 585.220627 
L 771.39823 580.323891 
L 770.604934 578.415736 
L 768 573.125763 
L 767.229414 571.610845 
L 764.60177 567.049144 
L 763.268113 564.805954 
L 758.778139 558.001063 
L 753.825698 551.196172 
L 748.468424 544.391281 
L 740.814159 535.415825 
L 736.652942 530.781499 
L 730.237385 523.976608 
L 723.495013 517.171717 
L 716.418059 510.366826 
L 708.987856 503.561935 
L 701.175985 496.757044 
L 693.238938 490.189702 
L 686.442478 484.833389 
L 679.646018 479.712289 
L 672.849558 474.818783 
L 665.149924 469.53748 
L 659.256637 465.663976 
L 649.061947 459.287597 
L 638.867257 453.247589 
L 625.561725 445.720362 
L 598.088496 430.336662 
L 589.640797 425.305688 
L 584.178301 421.903243 
L 577.699115 417.6611 
L 570.902655 412.926604 
L 564.106195 407.850153 
L 557.309735 402.374146 
L 550.513274 396.448751 
L 543.716814 390.025604 
L 536.920354 383.060615 
L 530.123894 375.519461 
L 523.327434 367.379558 
L 516.530973 358.628787 
L 509.734513 349.27632 
L 502.938053 339.342385 
L 496.141593 328.860099 
L 488.48399 316.427432 
L 482.441133 306.220096 
L 474.703369 292.610314 
L 467.263439 279.000532 
L 461.866063 268.793195 
L 454.937965 255.183413 
L 448.327206 241.573631 
L 443.609079 231.366295 
L 439.108524 221.158958 
L 434.856289 210.951621 
L 430.88614 200.744285 
L 427.217579 190.536948 
L 423.879104 180.329612 
L 421.380531 171.855426 
L 419.989144 166.71983 
L 417.982301 158.539179 
L 416.790183 153.110048 
L 415.465184 146.305157 
L 414.328598 139.500266 
L 413.389773 132.695375 
L 412.645989 125.890484 
L 412.100391 119.085593 
L 411.755028 112.280702 
L 411.610845 105.475811 
L 411.667688 98.67092 
L 411.924337 91.866029 
L 412.378543 85.061138 
L 413.027084 78.256247 
L 413.865836 71.451356 
L 414.893129 64.646465 
L 416.109858 57.841574 
L 417.982301 48.884132 
L 419.076509 44.231792 
L 421.380531 35.378104 
L 423.760073 27.219564 
L 425.927519 20.414673 
L 428.252467 13.609782 
L 432.057812 3.402446 
L 433.411156 -0 
M 642.458678 -0 
L 654.623571 23.817119 
L 666.053097 46.103136 
L 674.114334 61.244019 
L 679.787959 71.451356 
L 686.442478 82.794925 
L 692.126087 91.866029 
L 696.642811 98.67092 
L 701.462405 105.475811 
L 706.612933 112.280702 
L 710.230088 116.755167 
L 715.195185 122.488038 
L 718.329007 125.890484 
L 721.629127 129.292929 
L 725.116345 132.695375 
L 728.813351 136.09782 
L 734.017699 140.565716 
L 737.415929 143.282369 
L 744.212389 148.302187 
L 751.00885 152.841749 
L 757.012483 156.512493 
L 761.20354 158.924395 
L 768 162.607826 
L 776.090863 166.71983 
L 788.389381 172.64514 
L 805.380531 180.787929 
L 815.575221 185.977478 
L 823.879887 190.536948 
L 829.679926 193.939394 
L 835.964602 197.880276 
L 842.761062 202.494804 
L 849.587506 207.549176 
L 856.353982 213.038522 
L 861.685934 217.756512 
L 866.548673 222.365318 
L 871.990989 227.963849 
L 875.09354 231.366295 
L 878.05099 234.76874 
L 880.874584 238.171186 
L 886.1374 244.976077 
L 888.591898 248.378522 
L 890.947079 251.780968 
L 895.34105 258.585859 
L 899.368116 265.39075 
L 901.253309 268.793195 
L 904.773035 275.598086 
L 907.985995 282.402977 
L 910.910733 289.207868 
L 914.123894 297.582222 
L 915.929334 302.81765 
L 918.061014 309.622541 
L 919.94155 316.427432 
L 921.5891 323.232323 
L 923.001818 330.037214 
L 924.318584 337.628465 
L 925.164472 343.646996 
L 925.917824 350.451887 
L 926.462554 357.256778 
L 926.80083 364.061669 
L 926.935355 370.86656 
L 926.869413 377.671451 
L 926.606912 384.476342 
L 926.152433 391.281233 
L 925.51128 398.086124 
L 924.689522 404.891015 
L 923.681469 411.695906 
L 922.496371 418.500797 
L 920.920354 426.377905 
L 918.805668 435.513025 
L 917.053165 442.317916 
L 914.123894 452.581767 
L 910.725664 463.274793 
L 907.327434 473.091019 
L 903.592042 483.147262 
L 898.197653 496.757044 
L 893.734513 507.540576 
L 880.95771 537.58639 
L 875.55133 551.196172 
L 873.122207 558.001063 
L 870.914287 564.805954 
L 869.050299 571.610845 
L 868.259199 575.013291 
L 867.591888 578.415736 
L 867.053711 581.818182 
L 866.548673 586.527173 
L 866.372155 588.623073 
L 866.241657 592.025518 
L 866.271357 595.427964 
L 866.548673 599.607953 
L 866.80876 602.232855 
L 867.30521 605.6353 
L 867.964742 609.037746 
L 868.790164 612.440191 
L 870.876048 619.245082 
L 872.115124 622.647528 
L 874.955629 629.452419 
L 878.207415 636.25731 
L 881.789338 643.062201 
L 887.639121 653.269537 
L 893.876979 663.476874 
L 900.530973 673.985023 
L 909.082085 687.293993 
L 917.832019 700.903775 
L 924.275669 711.111111 
L 924.275669 711.111111 
" clip-path="url(#p727795e047)" style="fill: none; stroke: #000000; stroke-width: 1.5"/>
    <path d="M 581.763166 711.111111 
L 587.893805 702.421917 
L 591.292035 697.409248 
L 595.625545 690.696438 
L 599.745965 683.891547 
L 603.548506 677.086656 
L 606.990806 670.281765 
L 608.570252 666.87932 
L 611.400399 660.074428 
L 612.642696 656.671983 
L 614.780781 649.867092 
L 615.656494 646.464646 
L 616.398852 643.062201 
L 617.007469 639.659755 
L 617.476149 636.25731 
L 617.798952 632.854864 
L 617.970226 629.452419 
L 617.984641 626.049973 
L 617.837225 622.647528 
L 617.523394 619.245082 
L 617.038981 615.842637 
L 616.380268 612.440191 
L 615.079646 607.479658 
L 614.517142 605.6353 
L 613.296142 602.232855 
L 611.681416 598.388033 
L 610.268493 595.427964 
L 608.283186 591.733349 
L 606.422302 588.623073 
L 604.187073 585.220627 
L 601.486726 581.489937 
L 598.088496 577.231769 
L 594.690265 573.31672 
L 591.292035 569.668347 
L 587.893805 566.227999 
L 582.863413 561.403509 
L 574.300885 553.753425 
L 563.345363 544.391281 
L 553.911504 536.384795 
L 543.685217 527.379054 
L 536.359367 520.574163 
L 529.441599 513.769272 
L 522.94607 506.964381 
L 516.530973 499.775684 
L 509.734513 491.56046 
L 505.855266 486.549708 
L 500.86073 479.744817 
L 498.473168 476.342371 
L 492.743363 467.758221 
L 487.514051 459.330144 
L 482.548673 450.840322 
L 477.862184 442.317916 
L 472.353982 431.745743 
L 467.502136 421.903243 
L 462.159292 410.601021 
L 454.965382 394.683679 
L 445.168142 372.250252 
L 431.575221 340.845224 
L 423.815128 323.232323 
L 414.584071 302.754897 
L 403.62049 279.000532 
L 383.095905 234.76874 
L 377.025247 221.158958 
L 372.637413 210.951621 
L 368.444322 200.744285 
L 364.489583 190.536948 
L 360.817033 180.329612 
L 357.469845 170.122275 
L 354.48969 159.914939 
L 352.728433 153.110048 
L 351.15484 146.305157 
L 349.785194 139.500266 
L 348.612744 132.695375 
L 347.656242 125.890484 
L 346.916314 119.085593 
L 346.388924 112.280702 
L 346.074508 105.475811 
L 345.974452 98.67092 
L 346.084544 91.866029 
L 346.39956 85.061138 
L 346.909241 78.256247 
L 347.605127 71.451356 
L 348.482843 64.646465 
L 350.017699 55.044844 
L 350.741745 51.036683 
L 352.830687 40.829346 
L 355.216117 30.62201 
L 357.86694 20.414673 
L 360.746316 10.207337 
L 363.820708 -0 
M 806.15558 -0 
L 815.575221 7.93952 
L 830.781347 20.414673 
L 839.362832 27.520688 
L 849.557522 36.265329 
L 859.752212 45.533169 
L 866.548673 52.086278 
L 873.345133 58.989384 
L 880.141593 66.283367 
L 887.647016 74.853801 
L 893.734513 82.192651 
L 900.530973 90.861269 
L 907.327434 100.049591 
L 914.123894 109.787378 
L 920.920354 120.101416 
L 927.716814 131.030391 
L 934.667529 142.902711 
L 940.31824 153.110048 
L 944.707965 161.402699 
L 949.118447 170.122275 
L 954.043616 180.329612 
L 958.300885 189.611404 
L 963.123163 200.744285 
L 967.282344 210.951621 
L 971.186896 221.158958 
L 974.833546 231.366295 
L 978.218189 241.573631 
L 981.336007 251.780968 
L 984.181587 261.988304 
L 986.749021 272.195641 
L 989.032014 282.402977 
L 991.026065 292.610314 
L 992.725183 302.81765 
L 994.126567 313.024987 
L 995.226031 323.232323 
L 996.023541 333.43966 
L 996.519441 343.646996 
L 996.715405 353.854333 
L 996.61607 364.061669 
L 996.228282 374.269006 
L 995.561548 384.476342 
L 994.628994 394.683679 
L 993.444564 404.891015 
L 992.026557 415.098352 
L 990.397223 425.305688 
L 988.58082 435.513025 
L 985.917995 449.122807 
L 982.313053 466.135035 
L 973.484834 506.964381 
L 971.507359 517.171717 
L 969.725987 527.379054 
L 968.202854 537.58639 
L 967.354501 544.391281 
L 966.66262 551.196172 
L 966.14231 558.001063 
L 965.807817 564.805954 
L 965.672328 571.610845 
L 965.747781 578.415736 
L 966.044671 585.220627 
L 966.571877 592.025518 
L 967.336502 598.830409 
L 968.495575 606.504804 
L 969.588372 612.440191 
L 971.076591 619.245082 
L 972.802237 626.049973 
L 974.760805 632.854864 
L 976.942525 639.659755 
L 979.341608 646.464646 
L 982.088496 653.62508 
L 985.486726 661.811506 
L 988.884956 669.456291 
L 992.474673 677.086656 
L 997.554562 687.293993 
L 1002.898615 697.501329 
L 1010.339176 711.111111 
L 1010.339176 711.111111 
" clip-path="url(#p727795e047)" style="fill: none; stroke: #000000; stroke-width: 1.5"/>
    <path d="M 0 590.931648 
L 7.602173 595.427964 
L 16.99115 600.709166 
L 27.185841 606.121268 
L 37.380531 611.237228 
L 47.575221 616.081008 
L 57.769912 620.68897 
L 70.295584 626.049973 
L 78.600078 629.452419 
L 91.752212 634.623188 
L 105.345133 639.711669 
L 118.938053 644.599444 
L 135.929204 650.454533 
L 152.920354 656.068844 
L 173.309735 662.482873 
L 190.300885 667.498784 
L 203.893805 671.229928 
L 214.088496 673.812806 
L 224.283186 676.178252 
L 234.477876 678.276218 
L 241.274336 679.503941 
L 248.070796 680.576342 
L 254.867257 681.485916 
L 261.663717 682.209746 
L 268.460177 682.73324 
L 275.256637 683.041183 
L 282.053097 683.117733 
L 288.849558 682.946408 
L 295.646018 682.510051 
L 302.442478 681.790789 
L 309.238938 680.76997 
L 316.035398 679.431412 
L 322.831858 677.75145 
L 329.628319 675.708209 
L 336.424779 673.274634 
L 343.221239 670.419621 
L 346.619469 668.820951 
L 350.43608 666.87932 
L 356.475127 663.476874 
L 360.212389 661.14839 
L 363.610619 658.86757 
L 367.00885 656.422321 
L 371.048837 653.269537 
L 375.045806 649.867092 
L 378.712614 646.464646 
L 382.084232 643.062201 
L 385.190075 639.659755 
L 388.054956 636.25731 
L 390.79646 632.722275 
L 394.19469 627.863181 
L 395.369087 626.049973 
L 397.59292 622.373899 
L 399.32628 619.245082 
L 401.06705 615.842637 
L 402.649947 612.440191 
L 404.389381 608.301929 
L 406.596172 602.232855 
L 407.787611 598.408272 
L 409.466397 592.025518 
L 410.867528 585.220627 
L 411.906798 578.415736 
L 412.627254 571.610845 
L 413.066687 564.805954 
L 413.258507 558.001063 
L 413.23338 551.196172 
L 413.01909 544.391281 
L 412.640494 537.58639 
L 411.811807 527.379054 
L 410.722781 517.171717 
L 409.421554 506.964381 
L 407.42269 493.354599 
L 405.170418 479.744817 
L 402.698815 466.135035 
L 400.02049 452.525253 
L 397.129793 438.91547 
L 394.008821 425.305688 
L 390.631216 411.695906 
L 386.965573 398.086124 
L 384 387.844365 
L 380.60177 376.876491 
L 377.20354 366.607856 
L 373.80531 356.95413 
L 370.098724 347.049442 
L 366.036054 336.842105 
L 361.723078 326.634769 
L 356.814159 315.682599 
L 352.323795 306.220096 
L 346.619469 294.807688 
L 341.884732 285.805423 
L 336.295196 275.598086 
L 329.628319 263.961198 
L 322.3447 251.780968 
L 313.896209 238.171186 
L 307.395868 227.963849 
L 298.603108 214.354067 
L 285.434165 193.939394 
L 278.654867 183.094876 
L 274.91654 176.927166 
L 270.949188 170.122275 
L 267.184579 163.317384 
L 263.663971 156.512493 
L 260.431415 149.707602 
L 257.533732 142.902711 
L 255.014495 136.09782 
L 252.885229 129.292929 
L 251.225291 122.488038 
L 250.554027 119.085593 
L 250.006792 115.683147 
L 249.582329 112.280702 
L 249.279155 108.878256 
L 249.095574 105.475811 
L 249.029683 102.073365 
L 249.079385 98.67092 
L 249.516296 91.866029 
L 250.386133 85.061138 
L 251.658771 78.256247 
L 253.260984 71.451356 
L 255.197436 64.646465 
L 257.383629 57.841574 
L 261.083973 47.634237 
L 266.5656 34.024455 
L 272.45563 20.414673 
L 281.584853 -0 
M 1152 10.623326 
L 1145.20354 10.283696 
L 1138.40708 10.325655 
L 1131.610619 10.784499 
L 1128.212389 11.182964 
L 1124.814159 11.701809 
L 1121.415929 12.347461 
L 1116.222512 13.609782 
L 1114.619469 14.054531 
L 1111.221239 15.142317 
L 1106.330195 17.012228 
L 1104.424779 17.831377 
L 1099.268808 20.414673 
L 1097.628319 21.331771 
L 1093.670693 23.817119 
L 1089.04894 27.219564 
L 1087.433628 28.539718 
L 1084.035398 31.617558 
L 1080.637168 35.135793 
L 1077.238938 39.186732 
L 1075.999804 40.829346 
L 1073.617195 44.231792 
L 1070.442478 49.485372 
L 1069.603808 51.036683 
L 1067.044248 56.275287 
L 1064.982137 61.244019 
L 1063.646018 64.893633 
L 1061.63277 71.451356 
L 1059.946744 78.256247 
L 1058.643626 85.061138 
L 1057.646014 91.866029 
L 1056.849558 99.54117 
L 1056.444694 105.475811 
L 1056.179075 112.280702 
L 1056.097205 119.085593 
L 1056.177196 125.890484 
L 1056.557391 136.09782 
L 1057.204295 146.305157 
L 1058.067017 156.512493 
L 1059.458622 170.122275 
L 1061.470653 187.134503 
L 1068.162173 241.573631 
L 1069.54399 255.183413 
L 1070.692195 268.793195 
L 1071.382391 279.000532 
L 1071.896645 289.207868 
L 1072.221977 299.415205 
L 1072.347349 309.622541 
L 1072.263706 319.829878 
L 1071.964054 330.037214 
L 1071.44356 340.244551 
L 1070.699698 350.451887 
L 1069.746266 360.659224 
L 1068.581244 370.86656 
L 1067.044248 382.15721 
L 1065.65262 391.281233 
L 1063.646018 402.974962 
L 1061.378093 415.098352 
L 1057.904191 432.110579 
L 1051.987694 459.330144 
L 1047.608102 479.744817 
L 1044.899356 493.354599 
L 1043.0477 503.561935 
L 1041.41503 513.769272 
L 1040.032083 523.976608 
L 1039.281795 530.781499 
L 1038.681336 537.58639 
L 1038.243321 544.391281 
L 1037.981896 551.196172 
L 1037.910429 558.001063 
L 1038.041304 564.805954 
L 1038.385725 571.610845 
L 1038.953523 578.415736 
L 1039.858407 585.956236 
L 1040.801777 592.025518 
L 1042.097507 598.830409 
L 1043.646469 605.6353 
L 1045.462013 612.440191 
L 1047.539381 619.245082 
L 1050.053097 626.511889 
L 1052.50119 632.854864 
L 1055.388119 639.659755 
L 1058.543936 646.464646 
L 1061.968262 653.269537 
L 1065.659058 660.074428 
L 1069.612558 666.87932 
L 1073.840708 673.711639 
L 1078.303638 680.489102 
L 1084.035398 688.700948 
L 1090.583284 697.501329 
L 1094.230088 702.180677 
L 1101.506815 711.111111 
L 1101.506815 711.111111 
" clip-path="url(#p727795e047)" style="fill: none; stroke: #000000; stroke-width: 1.5"/>
    <path d="M 1152 474.796115 
L 1148.804178 483.147262 
L 1147.617806 486.549708 
L 1145.20354 493.974702 
L 1143.444556 500.15949 
L 1141.723443 506.964381 
L 1140.305558 513.769272 
L 1139.14858 520.574163 
L 1138.285208 527.379054 
L 1137.754802 534.183945 
L 1137.551447 540.988836 
L 1137.698387 547.793727 
L 1138.216818 554.598618 
L 1138.630523 558.001063 
L 1139.787904 564.805954 
L 1141.374622 571.610845 
L 1142.355732 575.013291 
L 1144.703207 581.818182 
L 1146.089913 585.220627 
L 1148.60177 590.646056 
L 1151.156369 595.427964 
L 1152 596.880499 
M 0 418.755294 
L 1.848193 425.305688 
L 3.39823 429.908111 
L 5.563188 435.513025 
L 7.038464 438.91547 
L 10.383892 445.720362 
L 13.59292 451.377617 
L 16.45653 455.927698 
L 18.791418 459.330144 
L 21.288624 462.732589 
L 23.96013 466.135035 
L 27.185841 469.945317 
L 30.584071 473.667498 
L 33.982301 477.131638 
L 37.380531 480.368237 
L 40.778761 483.402793 
L 44.547656 486.549708 
L 50.973451 491.455912 
L 54.371681 493.850288 
L 61.168142 498.248709 
L 67.964602 502.201875 
L 74.761062 505.759199 
L 81.557522 508.962485 
L 88.353982 511.847166 
L 95.150442 514.443319 
L 103.208579 517.171717 
L 108.743363 518.851689 
L 115.539823 520.708444 
L 122.336283 522.343972 
L 130.143209 523.976608 
L 135.929204 525.027285 
L 142.725664 526.08909 
L 149.522124 526.976127 
L 156.318584 527.688942 
L 163.115044 528.229446 
L 169.911504 528.600414 
L 176.707965 528.799037 
L 183.504425 528.820021 
L 190.300885 528.655281 
L 197.097345 528.293589 
L 203.893805 527.72015 
L 210.690265 526.911251 
L 217.486726 525.841476 
L 224.283186 524.484769 
L 231.079646 522.790453 
L 237.876106 520.717284 
L 241.274336 519.509505 
L 247.052789 517.171717 
L 251.469027 515.112023 
L 254.867257 513.342956 
L 259.901737 510.366826 
L 261.663717 509.225595 
L 265.061947 506.842921 
L 269.20494 503.561935 
L 272.993361 500.15949 
L 276.352722 496.757044 
L 279.351411 493.354599 
L 282.053097 489.941208 
L 285.451327 485.022081 
L 286.618116 483.147262 
L 288.849558 479.264691 
L 290.350448 476.342371 
L 292.247788 472.280092 
L 293.390596 469.53748 
L 295.646018 463.365383 
L 296.880286 459.330144 
L 298.610249 452.525253 
L 299.313818 449.122807 
L 300.414187 442.317916 
L 301.157615 435.513025 
L 301.56243 428.708134 
L 301.644127 421.903243 
L 301.415842 415.098352 
L 300.888784 408.293461 
L 300.072625 401.48857 
L 298.973884 394.683679 
L 297.56493 387.878788 
L 295.646018 380.22388 
L 293.88409 374.269006 
L 291.592833 367.464115 
L 288.849558 360.330708 
L 285.451327 352.594394 
L 282.743224 347.049442 
L 280.957157 343.646996 
L 277.099413 336.842105 
L 275.029059 333.43966 
L 270.533128 326.634769 
L 268.124882 323.232323 
L 262.907049 316.427432 
L 260.098029 313.024987 
L 257.144525 309.622541 
L 254.034265 306.220096 
L 250.753796 302.81765 
L 247.288325 299.415205 
L 241.274336 293.928129 
L 235.609475 289.207868 
L 231.079646 285.698101 
L 224.283186 280.877564 
L 217.486726 276.518832 
L 210.690265 272.589369 
L 203.893805 269.060405 
L 197.097345 265.907166 
L 190.300885 263.10902 
L 183.504425 260.64959 
L 176.707965 258.516841 
L 169.911504 256.704777 
L 163.005642 255.183413 
L 156.318584 254.012756 
L 149.522124 253.129201 
L 142.725664 252.55433 
L 135.929204 252.291245 
L 129.132743 252.345055 
L 122.336283 252.722947 
L 115.539823 253.434269 
L 108.743363 254.490626 
L 101.946903 255.906161 
L 95.150442 257.697009 
L 88.353982 259.883704 
L 81.557522 262.488616 
L 74.761062 265.540412 
L 67.964602 269.074431 
L 62.674723 272.195641 
L 57.769912 275.372349 
L 52.715071 279.000532 
L 48.36386 282.402977 
L 44.176991 285.951384 
L 40.620738 289.207868 
L 37.152881 292.610314 
L 33.908977 296.012759 
L 30.584071 299.751538 
L 27.185841 303.864936 
L 22.831768 309.622541 
L 20.389381 313.123492 
L 16.135604 319.829878 
L 12.317102 326.634769 
L 8.961148 333.43966 
L 6.036739 340.244551 
L 3.39823 347.41996 
L 1.404756 353.854333 
L 0 359.248319 
L 0 359.248319 
" clip-path="url(#p727795e047)" style="fill: none; stroke: #000000; stroke-width: 1.5"/>
   </g>
  </g>
 </g>
 <defs>
  <clipPath id="p727795e047">
   <rect x="0" y="-0" width="1152" height="711.111111"/>
  </clipPath>
 </defs>
</svg>
