<svg xmlns="http://www.w3.org/2000/svg" viewBox="0 0 1200 1600" color="#f4f4f2" role="img" aria-labelledby="title desc">
  <title id="title">Abstract city street grid</title>
  <desc id="desc">A monochrome vector street network inspired by dense coastal cities.</desc>
  <g fill="none" stroke="currentColor" stroke-linecap="square" stroke-linejoin="round" vector-effect="non-scaling-stroke">
    <defs>
      <clipPath id="west-bank"><path d="M-40 70L332 18L404 218L374 438L430 684L382 910L448 1170L392 1570L-40 1620Z"/></clipPath>
      <clipPath id="central-island"><path d="M638 24L754 12L748 248L774 464L752 698L786 930L748 1170L722 1514L612 1582L590 1370L612 1130L586 890L612 646L590 416L618 192Z"/></clipPath>
      <clipPath id="east-bank"><path d="M832 4H1240V1620H824L790 1390L832 1164L798 916L838 678L804 426L842 210Z"/></clipPath>
    </defs>
    <g clip-path="url(#west-bank)">
      <path d="M-30 34 C130 16 290 54 482 26" stroke-width="1.8" stroke-opacity="0.64"/>
      <path d="M-30 66 C130 48 290 86 482 58" stroke-width="0.58" stroke-opacity="0.28"/>
      <path d="M-30 84 C130 66 290 104 482 76" stroke-width="0.58" stroke-opacity="0.28"/>
      <path d="M-30 102 C130 84 290 122 482 94" stroke-width="0.58" stroke-opacity="0.28"/>
      <path d="M-30 120 C130 102 290 140 482 112" stroke-width="0.58" stroke-opacity="0.28"/>
      <path d="M-30 138 C130 120 290 158 482 130" stroke-width="0.58" stroke-opacity="0.28"/>
      <path d="M-30 156 C130 138 290 176 482 148" stroke-width="0.58" stroke-opacity="0.28"/>
      <path d="M-30 188 C130 170 290 208 482 180" stroke-width="0.58" stroke-opacity="0.28"/>
      <path d="M-30 206 C130 188 290 226 482 198" stroke-width="1.8" stroke-opacity="0.64"/>
      <path d="M-30 224 C130 206 290 244 482 216" stroke-width="0.58" stroke-opacity="0.28"/>
      <path d="M-30 242 C130 224 290 262 482 234" stroke-width="0.58" stroke-opacity="0.28"/>
      <path d="M-30 260 C130 242 290 280 482 252" stroke-width="0.58" stroke-opacity="0.28"/>
      <path d="M-30 278 C130 260 290 298 482 270" stroke-width="0.58" stroke-opacity="0.28"/>
      <path d="M-30 310 C130 292 290 330 482 302" stroke-width="0.58" stroke-opacity="0.28"/>
      <path d="M-30 328 C130 310 290 348 482 320" stroke-width="0.58" stroke-opacity="0.28"/>
      <path d="M-30 346 C130 328 290 366 482 338" stroke-width="0.58" stroke-opacity="0.28"/>
      <path d="M-30 364 C130 346 290 384 482 356" stroke-width="1.8" stroke-opacity="0.64"/>
      <path d="M-30 382 C130 364 290 402 482 374" stroke-width="0.58" stroke-opacity="0.28"/>
      <path d="M-30 400 C130 382 290 420 482 392" stroke-width="0.58" stroke-opacity="0.28"/>
      <path d="M-30 432 C130 414 290 452 482 424" stroke-width="0.58" stroke-opacity="0.28"/>
      <path d="M-30 450 C130 432 290 470 482 442" stroke-width="0.58" stroke-opacity="0.28"/>
      <path d="M-30 468 C130 450 290 488 482 460" stroke-width="0.58" stroke-opacity="0.28"/>
      <path d="M-30 486 C130 468 290 506 482 478" stroke-width="0.58" stroke-opacity="0.28"/>
      <path d="M-30 504 C130 486 290 524 482 496" stroke-width="0.58" stroke-opacity="0.28"/>
      <path d="M-30 522 C130 504 290 542 482 514" stroke-width="1.8" stroke-opacity="0.64"/>
      <path d="M-30 554 C130 536 290 574 482 546" stroke-width="0.58" stroke-opacity="0.28"/>
      <path d="M-30 572 C130 554 290 592 482 564" stroke-width="0.58" stroke-opacity="0.28"/>
      <path d="M-30 590 C130 572 290 610 482 582" stroke-width="0.58" stroke-opacity="0.28"/>
      <path d="M-30 608 C130 590 290 628 482 600" stroke-width="0.58" stroke-opacity="0.28"/>
      <path d="M-30 626 C130 608 290 646 482 618" stroke-width="0.58" stroke-opacity="0.28"/>
      <path d="M-30 644 C130 626 290 664 482 636" stroke-width="0.58" stroke-opacity="0.28"/>
      <path d="M-30 676 C130 658 290 696 482 668" stroke-width="0.58" stroke-opacity="0.28"/>
      <path d="M-30 694 C130 676 290 714 482 686" stroke-width="1.8" stroke-opacity="0.64"/>
      <path d="M-30 712 C130 694 290 732 482 704" stroke-width="0.58" stroke-opacity="0.28"/>
      <path d="M-30 730 C130 712 290 750 482 722" stroke-width="0.58" stroke-opacity="0.28"/>
      <path d="M-30 748 C130 730 290 768 482 740" stroke-width="0.58" stroke-opacity="0.28"/>
      <path d="M-30 766 C130 748 290 786 482 758" stroke-width="0.58" stroke-opacity="0.28"/>
      <path d="M-30 798 C130 780 290 818 482 790" stroke-width="0.58" stroke-opacity="0.28"/>
      <path d="M-30 816 C130 798 290 836 482 808" stroke-width="0.58" stroke-opacity="0.28"/>
      <path d="M-30 834 C130 816 290 854 482 826" stroke-width="0.58" stroke-opacity="0.28"/>
      <path d="M-30 852 C130 834 290 872 482 844" stroke-width="1.8" stroke-opacity="0.64"/>
      <path d="M-30 870 C130 852 290 890 482 862" stroke-width="0.58" stroke-opacity="0.28"/>
      <path d="M-30 888 C130 870 290 908 482 880" stroke-width="0.58" stroke-opacity="0.28"/>
      <path d="M-30 920 C130 902 290 940 482 912" stroke-width="0.58" stroke-opacity="0.28"/>
      <path d="M-30 938 C130 920 290 958 482 930" stroke-width="0.58" stroke-opacity="0.28"/>
      <path d="M-30 956 C130 938 290 976 482 948" stroke-width="0.58" stroke-opacity="0.28"/>
      <path d="M-30 974 C130 956 290 994 482 966" stroke-width="0.58" stroke-opacity="0.28"/>
      <path d="M-30 992 C130 974 290 1012 482 984" stroke-width="0.58" stroke-opacity="0.28"/>
      <path d="M-30 1010 C130 992 290 1030 482 1002" stroke-width="1.8" stroke-opacity="0.64"/>
      <path d="M-30 1042 C130 1024 290 1062 482 1034" stroke-width="0.58" stroke-opacity="0.28"/>
      <path d="M-30 1060 C130 1042 290 1080 482 1052" stroke-width="0.58" stroke-opacity="0.28"/>
      <path d="M-30 1078 C130 1060 290 1098 482 1070" stroke-width="0.58" stroke-opacity="0.28"/>
      <path d="M-30 1096 C130 1078 290 1116 482 1088" stroke-width="0.58" stroke-opacity="0.28"/>
      <path d="M-30 1114 C130 1096 290 1134 482 1106" stroke-width="0.58" stroke-opacity="0.28"/>
      <path d="M-30 1132 C130 1114 290 1152 482 1124" stroke-width="0.58" stroke-opacity="0.28"/>
      <path d="M-30 1164 C130 1146 290 1184 482 1156" stroke-width="0.58" stroke-opacity="0.28"/>
      <path d="M-30 1182 C130 1164 290 1202 482 1174" stroke-width="1.8" stroke-opacity="0.64"/>
      <path d="M-30 1200 C130 1182 290 1220 482 1192" stroke-width="0.58" stroke-opacity="0.28"/>
      <path d="M-30 1218 C130 1200 290 1238 482 1210" stroke-width="0.58" stroke-opacity="0.28"/>
      <path d="M-30 1236 C130 1218 290 1256 482 1228" stroke-width="0.58" stroke-opacity="0.28"/>
      <path d="M-30 1254 C130 1236 290 1274 482 1246" stroke-width="0.58" stroke-opacity="0.28"/>
      <path d="M-30 1286 C130 1268 290 1306 482 1278" stroke-width="0.58" stroke-opacity="0.28"/>
      <path d="M-30 1304 C130 1286 290 1324 482 1296" stroke-width="0.58" stroke-opacity="0.28"/>
      <path d="M-30 1322 C130 1304 290 1342 482 1314" stroke-width="0.58" stroke-opacity="0.28"/>
      <path d="M-30 1340 C130 1322 290 1360 482 1332" stroke-width="1.8" stroke-opacity="0.64"/>
      <path d="M-30 1358 C130 1340 290 1378 482 1350" stroke-width="0.58" stroke-opacity="0.28"/>
      <path d="M-30 1376 C130 1358 290 1396 482 1368" stroke-width="0.58" stroke-opacity="0.28"/>
      <path d="M-30 1408 C130 1390 290 1428 482 1400" stroke-width="0.58" stroke-opacity="0.28"/>
      <path d="M-30 1426 C130 1408 290 1446 482 1418" stroke-width="0.58" stroke-opacity="0.28"/>
      <path d="M-30 1444 C130 1426 290 1464 482 1436" stroke-width="0.58" stroke-opacity="0.28"/>
      <path d="M-30 1462 C130 1444 290 1482 482 1454" stroke-width="0.58" stroke-opacity="0.28"/>
      <path d="M-30 1480 C130 1462 290 1500 482 1472" stroke-width="0.58" stroke-opacity="0.28"/>
      <path d="M-30 1498 C130 1480 290 1518 482 1490" stroke-width="1.8" stroke-opacity="0.64"/>
      <path d="M-30 1530 C130 1512 290 1550 482 1522" stroke-width="0.58" stroke-opacity="0.28"/>
      <path d="M-30 1548 C130 1530 290 1568 482 1540" stroke-width="0.58" stroke-opacity="0.28"/>
      <path d="M-30 1566 C130 1548 290 1586 482 1558" stroke-width="0.58" stroke-opacity="0.28"/>
      <path d="M-20 -20 C22 390 -54 790 8 1620" stroke-width="1.7" stroke-opacity="0.62"/>
      <path d="M11 -20 C53 390 -23 790 39 1620" stroke-width="0.58" stroke-opacity="0.27"/>
      <path d="M29 -20 C71 390 -5 790 57 1620" stroke-width="0.58" stroke-opacity="0.27"/>
      <path d="M47 -20 C89 390 13 790 75 1620" stroke-width="0.58" stroke-opacity="0.27"/>
      <path d="M65 -20 C107 390 31 790 93 1620" stroke-width="0.58" stroke-opacity="0.27"/>
      <path d="M83 -20 C125 390 49 790 111 1620" stroke-width="0.58" stroke-opacity="0.27"/>
      <path d="M101 -20 C143 390 67 790 129 1620" stroke-width="0.58" stroke-opacity="0.27"/>
      <path d="M119 -20 C161 390 85 790 147 1620" stroke-width="0.58" stroke-opacity="0.27"/>
      <path d="M150 -20 C192 390 116 790 178 1620" stroke-width="0.58" stroke-opacity="0.27"/>
      <path d="M168 -20 C210 390 134 790 196 1620" stroke-width="1.7" stroke-opacity="0.62"/>
      <path d="M186 -20 C228 390 152 790 214 1620" stroke-width="0.58" stroke-opacity="0.27"/>
      <path d="M204 -20 C246 390 170 790 232 1620" stroke-width="0.58" stroke-opacity="0.27"/>
      <path d="M222 -20 C264 390 188 790 250 1620" stroke-width="0.58" stroke-opacity="0.27"/>
      <path d="M240 -20 C282 390 206 790 268 1620" stroke-width="0.58" stroke-opacity="0.27"/>
      <path d="M258 -20 C300 390 224 790 286 1620" stroke-width="0.58" stroke-opacity="0.27"/>
      <path d="M289 -20 C331 390 255 790 317 1620" stroke-width="0.58" stroke-opacity="0.27"/>
      <path d="M307 -20 C349 390 273 790 335 1620" stroke-width="0.58" stroke-opacity="0.27"/>
      <path d="M325 -20 C367 390 291 790 353 1620" stroke-width="0.58" stroke-opacity="0.27"/>
      <path d="M343 -20 C385 390 309 790 371 1620" stroke-width="1.7" stroke-opacity="0.62"/>
      <path d="M361 -20 C403 390 327 790 389 1620" stroke-width="0.58" stroke-opacity="0.27"/>
      <path d="M379 -20 C421 390 345 790 407 1620" stroke-width="0.58" stroke-opacity="0.27"/>
      <path d="M397 -20 C439 390 363 790 425 1620" stroke-width="0.58" stroke-opacity="0.27"/>
      <path d="M428 -20 C470 390 394 790 456 1620" stroke-width="0.58" stroke-opacity="0.27"/>
      <path d="M446 -20 C488 390 412 790 474 1620" stroke-width="0.58" stroke-opacity="0.27"/>
      <path d="M464 -20 C506 390 430 790 492 1620" stroke-width="0.58" stroke-opacity="0.27"/>
      <path d="M482 -20 C524 390 448 790 510 1620" stroke-width="0.58" stroke-opacity="0.27"/>
      <path d="M54 1570C190 1320 94 1060 300 824S142 360 356 54" stroke-width="4" stroke-opacity=".82"/>
      <path d="M-20 1210C176 1120 246 1000 434 962M-12 610C144 566 294 520 404 418" stroke-width="2.8" stroke-opacity=".72"/>
    </g>
    <g clip-path="url(#central-island)">
      <path d="M500 42 C585 33 682 52 800 38" stroke-width="1.7" stroke-opacity="0.76"/>
      <path d="M500 72 C585 63 682 82 800 68" stroke-width="0.66" stroke-opacity="0.38"/>
      <path d="M500 87 C585 78 682 97 800 83" stroke-width="0.66" stroke-opacity="0.38"/>
      <path d="M500 102 C585 93 682 112 800 98" stroke-width="0.66" stroke-opacity="0.38"/>
      <path d="M500 117 C585 108 682 127 800 113" stroke-width="0.66" stroke-opacity="0.38"/>
      <path d="M500 132 C585 123 682 142 800 128" stroke-width="0.66" stroke-opacity="0.38"/>
      <path d="M500 147 C585 138 682 157 800 143" stroke-width="0.66" stroke-opacity="0.38"/>
      <path d="M500 162 C585 153 682 172 800 158" stroke-width="0.66" stroke-opacity="0.38"/>
      <path d="M500 177 C585 168 682 187 800 173" stroke-width="0.66" stroke-opacity="0.38"/>
      <path d="M500 192 C585 183 682 202 800 188" stroke-width="0.66" stroke-opacity="0.38"/>
      <path d="M500 207 C585 198 682 217 800 203" stroke-width="0.66" stroke-opacity="0.38"/>
      <path d="M500 237 C585 228 682 247 800 233" stroke-width="1.7" stroke-opacity="0.76"/>
      <path d="M500 252 C585 243 682 262 800 248" stroke-width="0.66" stroke-opacity="0.38"/>
      <path d="M500 267 C585 258 682 277 800 263" stroke-width="0.66" stroke-opacity="0.38"/>
      <path d="M500 282 C585 273 682 292 800 278" stroke-width="0.66" stroke-opacity="0.38"/>
      <path d="M500 297 C585 288 682 307 800 293" stroke-width="0.66" stroke-opacity="0.38"/>
      <path d="M500 312 C585 303 682 322 800 308" stroke-width="0.66" stroke-opacity="0.38"/>
      <path d="M500 327 C585 318 682 337 800 323" stroke-width="0.66" stroke-opacity="0.38"/>
      <path d="M500 342 C585 333 682 352 800 338" stroke-width="0.66" stroke-opacity="0.38"/>
      <path d="M500 357 C585 348 682 367 800 353" stroke-width="0.66" stroke-opacity="0.38"/>
      <path d="M500 372 C585 363 682 382 800 368" stroke-width="0.66" stroke-opacity="0.38"/>
      <path d="M500 402 C585 393 682 412 800 398" stroke-width="0.66" stroke-opacity="0.38"/>
      <path d="M500 417 C585 408 682 427 800 413" stroke-width="1.7" stroke-opacity="0.76"/>
      <path d="M500 432 C585 423 682 442 800 428" stroke-width="0.66" stroke-opacity="0.38"/>
      <path d="M500 447 C585 438 682 457 800 443" stroke-width="0.66" stroke-opacity="0.38"/>
      <path d="M500 462 C585 453 682 472 800 458" stroke-width="0.66" stroke-opacity="0.38"/>
      <path d="M500 477 C585 468 682 487 800 473" stroke-width="0.66" stroke-opacity="0.38"/>
      <path d="M500 492 C585 483 682 502 800 488" stroke-width="0.66" stroke-opacity="0.38"/>
      <path d="M500 507 C585 498 682 517 800 503" stroke-width="0.66" stroke-opacity="0.38"/>
      <path d="M500 522 C585 513 682 532 800 518" stroke-width="0.66" stroke-opacity="0.38"/>
      <path d="M500 537 C585 528 682 547 800 533" stroke-width="0.66" stroke-opacity="0.38"/>
      <path d="M500 567 C585 558 682 577 800 563" stroke-width="0.66" stroke-opacity="0.38"/>
      <path d="M500 582 C585 573 682 592 800 578" stroke-width="0.66" stroke-opacity="0.38"/>
      <path d="M500 597 C585 588 682 607 800 593" stroke-width="1.7" stroke-opacity="0.76"/>
      <path d="M500 612 C585 603 682 622 800 608" stroke-width="0.66" stroke-opacity="0.38"/>
      <path d="M500 627 C585 618 682 637 800 623" stroke-width="0.66" stroke-opacity="0.38"/>
      <path d="M500 642 C585 633 682 652 800 638" stroke-width="0.66" stroke-opacity="0.38"/>
      <path d="M500 657 C585 648 682 667 800 653" stroke-width="0.66" stroke-opacity="0.38"/>
      <path d="M500 672 C585 663 682 682 800 668" stroke-width="0.66" stroke-opacity="0.38"/>
      <path d="M500 687 C585 678 682 697 800 683" stroke-width="0.66" stroke-opacity="0.38"/>
      <path d="M500 702 C585 693 682 712 800 698" stroke-width="0.66" stroke-opacity="0.38"/>
      <path d="M500 732 C585 723 682 742 800 728" stroke-width="0.66" stroke-opacity="0.38"/>
      <path d="M500 747 C585 738 682 757 800 743" stroke-width="0.66" stroke-opacity="0.38"/>
      <path d="M500 762 C585 753 682 772 800 758" stroke-width="0.66" stroke-opacity="0.38"/>
      <path d="M500 777 C585 768 682 787 800 773" stroke-width="1.7" stroke-opacity="0.76"/>
      <path d="M500 792 C585 783 682 802 800 788" stroke-width="0.66" stroke-opacity="0.38"/>
      <path d="M500 807 C585 798 682 817 800 803" stroke-width="0.66" stroke-opacity="0.38"/>
      <path d="M500 822 C585 813 682 832 800 818" stroke-width="0.66" stroke-opacity="0.38"/>
      <path d="M500 837 C585 828 682 847 800 833" stroke-width="0.66" stroke-opacity="0.38"/>
      <path d="M500 852 C585 843 682 862 800 848" stroke-width="0.66" stroke-opacity="0.38"/>
      <path d="M500 867 C585 858 682 877 800 863" stroke-width="0.66" stroke-opacity="0.38"/>
      <path d="M500 897 C585 888 682 907 800 893" stroke-width="0.66" stroke-opacity="0.38"/>
      <path d="M500 912 C585 903 682 922 800 908" stroke-width="0.66" stroke-opacity="0.38"/>
      <path d="M500 927 C585 918 682 937 800 923" stroke-width="0.66" stroke-opacity="0.38"/>
      <path d="M500 942 C585 933 682 952 800 938" stroke-width="0.66" stroke-opacity="0.38"/>
      <path d="M500 957 C585 948 682 967 800 953" stroke-width="1.7" stroke-opacity="0.76"/>
      <path d="M500 972 C585 963 682 982 800 968" stroke-width="0.66" stroke-opacity="0.38"/>
      <path d="M500 987 C585 978 682 997 800 983" stroke-width="0.66" stroke-opacity="0.38"/>
      <path d="M500 1002 C585 993 682 1012 800 998" stroke-width="0.66" stroke-opacity="0.38"/>
      <path d="M500 1017 C585 1008 682 1027 800 1013" stroke-width="0.66" stroke-opacity="0.38"/>
      <path d="M500 1032 C585 1023 682 1042 800 1028" stroke-width="0.66" stroke-opacity="0.38"/>
      <path d="M500 1062 C585 1053 682 1072 800 1058" stroke-width="0.66" stroke-opacity="0.38"/>
      <path d="M500 1077 C585 1068 682 1087 800 1073" stroke-width="0.66" stroke-opacity="0.38"/>
      <path d="M500 1092 C585 1083 682 1102 800 1088" stroke-width="0.66" stroke-opacity="0.38"/>
      <path d="M500 1107 C585 1098 682 1117 800 1103" stroke-width="0.66" stroke-opacity="0.38"/>
      <path d="M500 1122 C585 1113 682 1132 800 1118" stroke-width="0.66" stroke-opacity="0.38"/>
      <path d="M500 1137 C585 1128 682 1147 800 1133" stroke-width="1.7" stroke-opacity="0.76"/>
      <path d="M500 1152 C585 1143 682 1162 800 1148" stroke-width="0.66" stroke-opacity="0.38"/>
      <path d="M500 1167 C585 1158 682 1177 800 1163" stroke-width="0.66" stroke-opacity="0.38"/>
      <path d="M500 1182 C585 1173 682 1192 800 1178" stroke-width="0.66" stroke-opacity="0.38"/>
      <path d="M500 1197 C585 1188 682 1207 800 1193" stroke-width="0.66" stroke-opacity="0.38"/>
      <path d="M500 1227 C585 1218 682 1237 800 1223" stroke-width="0.66" stroke-opacity="0.38"/>
      <path d="M500 1242 C585 1233 682 1252 800 1238" stroke-width="0.66" stroke-opacity="0.38"/>
      <path d="M500 1257 C585 1248 682 1267 800 1253" stroke-width="0.66" stroke-opacity="0.38"/>
      <path d="M500 1272 C585 1263 682 1282 800 1268" stroke-width="0.66" stroke-opacity="0.38"/>
      <path d="M500 1287 C585 1278 682 1297 800 1283" stroke-width="0.66" stroke-opacity="0.38"/>
      <path d="M500 1302 C585 1293 682 1312 800 1298" stroke-width="0.66" stroke-opacity="0.38"/>
      <path d="M500 1317 C585 1308 682 1327 800 1313" stroke-width="1.7" stroke-opacity="0.76"/>
      <path d="M500 1332 C585 1323 682 1342 800 1328" stroke-width="0.66" stroke-opacity="0.38"/>
      <path d="M500 1347 C585 1338 682 1357 800 1343" stroke-width="0.66" stroke-opacity="0.38"/>
      <path d="M500 1362 C585 1353 682 1372 800 1358" stroke-width="0.66" stroke-opacity="0.38"/>
      <path d="M500 1392 C585 1383 682 1402 800 1388" stroke-width="0.66" stroke-opacity="0.38"/>
      <path d="M500 1407 C585 1398 682 1417 800 1403" stroke-width="0.66" stroke-opacity="0.38"/>
      <path d="M500 1422 C585 1413 682 1432 800 1418" stroke-width="0.66" stroke-opacity="0.38"/>
      <path d="M500 1437 C585 1428 682 1447 800 1433" stroke-width="0.66" stroke-opacity="0.38"/>
      <path d="M500 1452 C585 1443 682 1462 800 1448" stroke-width="0.66" stroke-opacity="0.38"/>
      <path d="M500 1467 C585 1458 682 1477 800 1463" stroke-width="0.66" stroke-opacity="0.38"/>
      <path d="M500 1482 C585 1473 682 1492 800 1478" stroke-width="0.66" stroke-opacity="0.38"/>
      <path d="M500 1497 C585 1488 682 1507 800 1493" stroke-width="1.7" stroke-opacity="0.76"/>
      <path d="M500 1512 C585 1503 682 1522 800 1508" stroke-width="0.66" stroke-opacity="0.38"/>
      <path d="M500 1527 C585 1518 682 1537 800 1523" stroke-width="0.66" stroke-opacity="0.38"/>
      <path d="M500 1557 C585 1548 682 1567 800 1553" stroke-width="0.66" stroke-opacity="0.38"/>
      <path d="M536 10 C502 520 566 1040 520 1590" stroke-width="1.8" stroke-opacity="0.72"/>
      <path d="M553 10 C519 520 583 1040 537 1590" stroke-width="0.7" stroke-opacity="0.38"/>
      <path d="M570 10 C536 520 600 1040 554 1590" stroke-width="0.7" stroke-opacity="0.38"/>
      <path d="M587 10 C553 520 617 1040 571 1590" stroke-width="0.7" stroke-opacity="0.38"/>
      <path d="M604 10 C570 520 634 1040 588 1590" stroke-width="0.7" stroke-opacity="0.38"/>
      <path d="M621 10 C587 520 651 1040 605 1590" stroke-width="1.8" stroke-opacity="0.72"/>
      <path d="M638 10 C604 520 668 1040 622 1590" stroke-width="0.7" stroke-opacity="0.38"/>
      <path d="M655 10 C621 520 685 1040 639 1590" stroke-width="0.7" stroke-opacity="0.38"/>
      <path d="M672 10 C638 520 702 1040 656 1590" stroke-width="0.7" stroke-opacity="0.38"/>
      <path d="M689 10 C655 520 719 1040 673 1590" stroke-width="0.7" stroke-opacity="0.38"/>
      <path d="M706 10 C672 520 736 1040 690 1590" stroke-width="1.8" stroke-opacity="0.72"/>
      <path d="M723 10 C689 520 753 1040 707 1590" stroke-width="0.7" stroke-opacity="0.38"/>
      <path d="M740 10 C706 520 770 1040 724 1590" stroke-width="0.7" stroke-opacity="0.38"/>
      <path d="M757 10 C723 520 787 1040 741 1590" stroke-width="0.7" stroke-opacity="0.38"/>
      <path d="M774 10 C740 520 804 1040 758 1590" stroke-width="0.7" stroke-opacity="0.38"/>
      <path d="M632 1570C700 1260 638 1070 730 848S654 386 724 26" stroke-width="4.4" stroke-opacity=".94"/>
      <path d="M600 1118L762 1038M600 760L768 704M604 356L760 304" stroke-width="2.4" stroke-opacity=".82"/>
    </g>
    <g clip-path="url(#east-bank)">
      <path d="M772 48 C930 6 1060 60 1230 24" stroke-width="1.8" stroke-opacity="0.64"/>
      <path d="M772 80 C930 38 1060 92 1230 56" stroke-width="0.58" stroke-opacity="0.27"/>
      <path d="M772 98 C930 56 1060 110 1230 74" stroke-width="0.58" stroke-opacity="0.27"/>
      <path d="M772 116 C930 74 1060 128 1230 92" stroke-width="0.58" stroke-opacity="0.27"/>
      <path d="M772 134 C930 92 1060 146 1230 110" stroke-width="0.58" stroke-opacity="0.27"/>
      <path d="M772 152 C930 110 1060 164 1230 128" stroke-width="0.58" stroke-opacity="0.27"/>
      <path d="M772 170 C930 128 1060 182 1230 146" stroke-width="0.58" stroke-opacity="0.27"/>
      <path d="M772 202 C930 160 1060 214 1230 178" stroke-width="0.58" stroke-opacity="0.27"/>
      <path d="M772 220 C930 178 1060 232 1230 196" stroke-width="1.8" stroke-opacity="0.64"/>
      <path d="M772 238 C930 196 1060 250 1230 214" stroke-width="0.58" stroke-opacity="0.27"/>
      <path d="M772 256 C930 214 1060 268 1230 232" stroke-width="0.58" stroke-opacity="0.27"/>
      <path d="M772 274 C930 232 1060 286 1230 250" stroke-width="0.58" stroke-opacity="0.27"/>
      <path d="M772 292 C930 250 1060 304 1230 268" stroke-width="0.58" stroke-opacity="0.27"/>
      <path d="M772 324 C930 282 1060 336 1230 300" stroke-width="0.58" stroke-opacity="0.27"/>
      <path d="M772 342 C930 300 1060 354 1230 318" stroke-width="0.58" stroke-opacity="0.27"/>
      <path d="M772 360 C930 318 1060 372 1230 336" stroke-width="0.58" stroke-opacity="0.27"/>
      <path d="M772 378 C930 336 1060 390 1230 354" stroke-width="1.8" stroke-opacity="0.64"/>
      <path d="M772 396 C930 354 1060 408 1230 372" stroke-width="0.58" stroke-opacity="0.27"/>
      <path d="M772 414 C930 372 1060 426 1230 390" stroke-width="0.58" stroke-opacity="0.27"/>
      <path d="M772 446 C930 404 1060 458 1230 422" stroke-width="0.58" stroke-opacity="0.27"/>
      <path d="M772 464 C930 422 1060 476 1230 440" stroke-width="0.58" stroke-opacity="0.27"/>
      <path d="M772 482 C930 440 1060 494 1230 458" stroke-width="0.58" stroke-opacity="0.27"/>
      <path d="M772 500 C930 458 1060 512 1230 476" stroke-width="0.58" stroke-opacity="0.27"/>
      <path d="M772 518 C930 476 1060 530 1230 494" stroke-width="0.58" stroke-opacity="0.27"/>
      <path d="M772 536 C930 494 1060 548 1230 512" stroke-width="1.8" stroke-opacity="0.64"/>
      <path d="M772 568 C930 526 1060 580 1230 544" stroke-width="0.58" stroke-opacity="0.27"/>
      <path d="M772 586 C930 544 1060 598 1230 562" stroke-width="0.58" stroke-opacity="0.27"/>
      <path d="M772 604 C930 562 1060 616 1230 580" stroke-width="0.58" stroke-opacity="0.27"/>
      <path d="M772 622 C930 580 1060 634 1230 598" stroke-width="0.58" stroke-opacity="0.27"/>
      <path d="M772 640 C930 598 1060 652 1230 616" stroke-width="0.58" stroke-opacity="0.27"/>
      <path d="M772 658 C930 616 1060 670 1230 634" stroke-width="0.58" stroke-opacity="0.27"/>
      <path d="M772 690 C930 648 1060 702 1230 666" stroke-width="0.58" stroke-opacity="0.27"/>
      <path d="M772 708 C930 666 1060 720 1230 684" stroke-width="1.8" stroke-opacity="0.64"/>
      <path d="M772 726 C930 684 1060 738 1230 702" stroke-width="0.58" stroke-opacity="0.27"/>
      <path d="M772 744 C930 702 1060 756 1230 720" stroke-width="0.58" stroke-opacity="0.27"/>
      <path d="M772 762 C930 720 1060 774 1230 738" stroke-width="0.58" stroke-opacity="0.27"/>
      <path d="M772 780 C930 738 1060 792 1230 756" stroke-width="0.58" stroke-opacity="0.27"/>
      <path d="M772 812 C930 770 1060 824 1230 788" stroke-width="0.58" stroke-opacity="0.27"/>
      <path d="M772 830 C930 788 1060 842 1230 806" stroke-width="0.58" stroke-opacity="0.27"/>
      <path d="M772 848 C930 806 1060 860 1230 824" stroke-width="0.58" stroke-opacity="0.27"/>
      <path d="M772 866 C930 824 1060 878 1230 842" stroke-width="1.8" stroke-opacity="0.64"/>
      <path d="M772 884 C930 842 1060 896 1230 860" stroke-width="0.58" stroke-opacity="0.27"/>
      <path d="M772 902 C930 860 1060 914 1230 878" stroke-width="0.58" stroke-opacity="0.27"/>
      <path d="M772 934 C930 892 1060 946 1230 910" stroke-width="0.58" stroke-opacity="0.27"/>
      <path d="M772 952 C930 910 1060 964 1230 928" stroke-width="0.58" stroke-opacity="0.27"/>
      <path d="M772 970 C930 928 1060 982 1230 946" stroke-width="0.58" stroke-opacity="0.27"/>
      <path d="M772 988 C930 946 1060 1000 1230 964" stroke-width="0.58" stroke-opacity="0.27"/>
      <path d="M772 1006 C930 964 1060 1018 1230 982" stroke-width="0.58" stroke-opacity="0.27"/>
      <path d="M772 1024 C930 982 1060 1036 1230 1000" stroke-width="1.8" stroke-opacity="0.64"/>
      <path d="M772 1056 C930 1014 1060 1068 1230 1032" stroke-width="0.58" stroke-opacity="0.27"/>
      <path d="M772 1074 C930 1032 1060 1086 1230 1050" stroke-width="0.58" stroke-opacity="0.27"/>
      <path d="M772 1092 C930 1050 1060 1104 1230 1068" stroke-width="0.58" stroke-opacity="0.27"/>
      <path d="M772 1110 C930 1068 1060 1122 1230 1086" stroke-width="0.58" stroke-opacity="0.27"/>
      <path d="M772 1128 C930 1086 1060 1140 1230 1104" stroke-width="0.58" stroke-opacity="0.27"/>
      <path d="M772 1146 C930 1104 1060 1158 1230 1122" stroke-width="0.58" stroke-opacity="0.27"/>
      <path d="M772 1178 C930 1136 1060 1190 1230 1154" stroke-width="0.58" stroke-opacity="0.27"/>
      <path d="M772 1196 C930 1154 1060 1208 1230 1172" stroke-width="1.8" stroke-opacity="0.64"/>
      <path d="M772 1214 C930 1172 1060 1226 1230 1190" stroke-width="0.58" stroke-opacity="0.27"/>
      <path d="M772 1232 C930 1190 1060 1244 1230 1208" stroke-width="0.58" stroke-opacity="0.27"/>
      <path d="M772 1250 C930 1208 1060 1262 1230 1226" stroke-width="0.58" stroke-opacity="0.27"/>
      <path d="M772 1268 C930 1226 1060 1280 1230 1244" stroke-width="0.58" stroke-opacity="0.27"/>
      <path d="M772 1300 C930 1258 1060 1312 1230 1276" stroke-width="0.58" stroke-opacity="0.27"/>
      <path d="M772 1318 C930 1276 1060 1330 1230 1294" stroke-width="0.58" stroke-opacity="0.27"/>
      <path d="M772 1336 C930 1294 1060 1348 1230 1312" stroke-width="0.58" stroke-opacity="0.27"/>
      <path d="M772 1354 C930 1312 1060 1366 1230 1330" stroke-width="1.8" stroke-opacity="0.64"/>
      <path d="M772 1372 C930 1330 1060 1384 1230 1348" stroke-width="0.58" stroke-opacity="0.27"/>
      <path d="M772 1390 C930 1348 1060 1402 1230 1366" stroke-width="0.58" stroke-opacity="0.27"/>
      <path d="M772 1422 C930 1380 1060 1434 1230 1398" stroke-width="0.58" stroke-opacity="0.27"/>
      <path d="M772 1440 C930 1398 1060 1452 1230 1416" stroke-width="0.58" stroke-opacity="0.27"/>
      <path d="M772 1458 C930 1416 1060 1470 1230 1434" stroke-width="0.58" stroke-opacity="0.27"/>
      <path d="M772 1476 C930 1434 1060 1488 1230 1452" stroke-width="0.58" stroke-opacity="0.27"/>
      <path d="M772 1494 C930 1452 1060 1506 1230 1470" stroke-width="0.58" stroke-opacity="0.27"/>
      <path d="M772 1512 C930 1470 1060 1524 1230 1488" stroke-width="1.8" stroke-opacity="0.64"/>
      <path d="M772 1544 C930 1502 1060 1556 1230 1520" stroke-width="0.58" stroke-opacity="0.27"/>
      <path d="M772 1562 C930 1520 1060 1574 1230 1538" stroke-width="0.58" stroke-opacity="0.27"/>
      <path d="M772 1580 C930 1538 1060 1592 1230 1556" stroke-width="0.58" stroke-opacity="0.27"/>
      <path d="M770 -20 C722 360 806 820 746 1620" stroke-width="1.7" stroke-opacity="0.62"/>
      <path d="M799 -20 C751 360 835 820 775 1620" stroke-width="0.58" stroke-opacity="0.27"/>
      <path d="M816 -20 C768 360 852 820 792 1620" stroke-width="0.58" stroke-opacity="0.27"/>
      <path d="M833 -20 C785 360 869 820 809 1620" stroke-width="0.58" stroke-opacity="0.27"/>
      <path d="M850 -20 C802 360 886 820 826 1620" stroke-width="0.58" stroke-opacity="0.27"/>
      <path d="M867 -20 C819 360 903 820 843 1620" stroke-width="0.58" stroke-opacity="0.27"/>
      <path d="M884 -20 C836 360 920 820 860 1620" stroke-width="0.58" stroke-opacity="0.27"/>
      <path d="M913 -20 C865 360 949 820 889 1620" stroke-width="0.58" stroke-opacity="0.27"/>
      <path d="M930 -20 C882 360 966 820 906 1620" stroke-width="1.7" stroke-opacity="0.62"/>
      <path d="M947 -20 C899 360 983 820 923 1620" stroke-width="0.58" stroke-opacity="0.27"/>
      <path d="M964 -20 C916 360 1000 820 940 1620" stroke-width="0.58" stroke-opacity="0.27"/>
      <path d="M981 -20 C933 360 1017 820 957 1620" stroke-width="0.58" stroke-opacity="0.27"/>
      <path d="M998 -20 C950 360 1034 820 974 1620" stroke-width="0.58" stroke-opacity="0.27"/>
      <path d="M1027 -20 C979 360 1063 820 1003 1620" stroke-width="0.58" stroke-opacity="0.27"/>
      <path d="M1044 -20 C996 360 1080 820 1020 1620" stroke-width="0.58" stroke-opacity="0.27"/>
      <path d="M1061 -20 C1013 360 1097 820 1037 1620" stroke-width="0.58" stroke-opacity="0.27"/>
      <path d="M1078 -20 C1030 360 1114 820 1054 1620" stroke-width="1.7" stroke-opacity="0.62"/>
      <path d="M1095 -20 C1047 360 1131 820 1071 1620" stroke-width="0.58" stroke-opacity="0.27"/>
      <path d="M1112 -20 C1064 360 1148 820 1088 1620" stroke-width="0.58" stroke-opacity="0.27"/>
      <path d="M1141 -20 C1093 360 1177 820 1117 1620" stroke-width="0.58" stroke-opacity="0.27"/>
      <path d="M1158 -20 C1110 360 1194 820 1134 1620" stroke-width="0.58" stroke-opacity="0.27"/>
      <path d="M1175 -20 C1127 360 1211 820 1151 1620" stroke-width="0.58" stroke-opacity="0.27"/>
      <path d="M1192 -20 C1144 360 1228 820 1168 1620" stroke-width="0.58" stroke-opacity="0.27"/>
      <path d="M1209 -20 C1161 360 1245 820 1185 1620" stroke-width="0.58" stroke-opacity="0.27"/>
      <path d="M1226 -20 C1178 360 1262 820 1202 1620" stroke-width="1.7" stroke-opacity="0.62"/>
      <path d="M890 1586C1018 1350 900 1110 1090 862S950 338 1172 64" stroke-width="4" stroke-opacity=".82"/>
      <path d="M804 1260C940 1190 1080 1178 1224 1080M804 540C948 474 1082 500 1222 390" stroke-width="2.8" stroke-opacity=".7"/>
    </g>
    <path d="M-40 70L332 18L404 218L374 438L430 684L382 910L448 1170L392 1570M638 24L754 12L748 248L774 464L752 698L786 930L748 1170L722 1514L612 1582M832 4L804 426L838 678L798 916L832 1164L790 1390L824 1620" stroke-width="1.8" stroke-opacity=".92"/>
    <path d="M392 318C472 304 548 290 614 278M414 520C488 504 550 488 604 470M430 684C498 666 550 652 608 636M382 910C482 892 540 876 588 852M448 1170C510 1150 558 1136 612 1118M774 464C820 448 862 432 914 416M786 930C834 914 880 900 936 884M748 1170C808 1154 862 1140 920 1118" stroke-width="3.2" stroke-opacity=".86"/>
    <g stroke-width=".9" stroke-opacity=".54">
      <path d="M596 310H568M596 342H560M602 520H570M604 552H564M590 886H556M594 918H550M612 1190H574M610 1222H566"/>
      <path d="M776 326H810M780 358H818M760 708H806M764 740H816M782 962H826M776 994H834"/>
    </g>
  </g>
</svg>
