<svg xmlns="http://www.w3.org/2000/svg" viewBox="0 0 1200 720" color="#f4f4f2" role="img" aria-labelledby="title desc">
  <title id="title">West Java food network</title>
  <desc id="desc">West Java administrative areas linked by origin-destination food flows.</desc>
  <g fill="none" stroke="currentColor" stroke-linecap="square" stroke-linejoin="round" vector-effect="non-scaling-stroke">
    <path d="M412.81,315.68L410.56,339L392.7,350.64L365.82,346.64L343.9,338.07L315.84,335.04L294.31,340.37L281.69,335.6L249.16,334.7L242.41,302.11L239.53,279.83L236.44,254.96L245.11,247.72L249.45,242.46L246.3,236.72L244.24,231.65L241.9,223.08L253.79,204.9L256.01,219.32L271.85,217.64L268.91,213.49L271.37,211.38L275.98,214.23L282.67,215.94L288.26,217.83L291.74,222.95L330.47,223.04L332.49,230.01L333.48,234.93L333.98,243.2L354.84,249.12L362.75,252.14L367.19,247.23L378.25,252.09L380.22,247.09L382.28,242.58L386.59,239.07L389.56,235.78L391.82,231.21L396.29,226.39L399.08,222.2L400.56,218.82L403.51,214.85L403.58,210.78L404.53,206.97L407.01,207.42L407.76,216.36L408.8,222.72L417.06,227.61L419.24,235.2L425.24,237.13L433.74,234.74L430.99,238.94L432.69,243.28L447.1,251.53L455.31,253.61L466.79,263.62L468.15,274.61L484.14,295.71L477.12,306.7L463.07,309.43L451.9,314.27L441.37,315.47L429.08,312.27L412.81,315.68L412.81,315.68ZM334.96,281.11L335.27,285.08L336.18,285.36L335.67,286.26L337.51,287.83L339,286.63L344.74,294.64L346.62,295.64L347.88,297.22L348.86,298.39L349.63,300L350.22,301.55L351.02,302.73L350.17,305.36L345.74,311.36L348.5,312.37L351.07,312.42L352,311.37L352.89,308.32L354.19,309.24L356,309.84L356.13,310.89L357.02,312.08L359.32,314.93L360.15,316.92L364.27,319.75L366.9,319.14L368,313.71L369.02,309.03L364,298.72L365.89,288.93L363.51,283.13L362.25,279.17L361.52,278.91L361.43,277.9L360.1,276.25L357.41,278.77L356.13,278.41L355.28,276.27L354.18,280.37L353.23,280.12L352.26,278.65L351.34,278.08L350.95,276.15L352.45,274.45L351.25,272.99L350.84,269.16L344.15,270.56L343.53,272.29L343.59,274.46L343.78,277.92L342.42,279.85L339.79,280.18L338.56,279.19L336.28,277.45L335.45,281.36L334.96,281.11Z" stroke-width="1.3" stroke-opacity="0.7" fill="currentColor" fill-opacity="0.035"/>
    <path d="M246.29,526.31L234,530.09L232.26,517.63L224.57,508.79L224.96,501.15L225.63,488.77L229.41,484.04L231.99,475.72L243.96,472.62L251.95,471.34L250.21,455.84L261.15,447.18L274.84,434.97L275.35,424.59L274.39,423.12L275.73,413.91L276.13,412.58L259.59,404.65L246.4,402.01L237.53,408.94L230.53,404.4L231.57,395.09L230.68,386.38L242.28,374.67L243.64,363.43L248.74,358.66L255.03,355.7L265.49,350.1L281.69,335.6L290.25,338.71L311.13,339.1L322.1,339.04L345.77,340.76L363.88,345.77L384.89,352.25L406.08,349.49L415.21,367.7L424.64,379.85L427.91,389.04L431.26,405.73L424.94,410.85L432.43,422.27L427.1,430.51L416.21,425.86L400.94,434.43L398.99,440.78L395.87,449.72L397.61,456.93L403.74,459.09L402.32,466.56L406.75,472.45L407.61,479.18L407.39,489.81L404.42,497.3L406.93,504.73L397.08,513.13L389.33,514.7L382.58,520.95L375.96,526.91L369.8,526.17L353.02,535.54L351.27,541.05L348.59,549.36L314.79,545.51L287.53,542.13L274.31,541.48L260.4,530.89L254.71,529.3L246.29,526.31ZM376.14,408.15L377.22,409.35L377.63,408.61L378.22,409.25L378.64,408.41L380.61,408.65L381.37,407.26L383.54,408.11L383.15,408.69L383.92,409.91L385.4,409.22L386.55,410.17L388.41,409.93L389.11,408.77L390.05,409.3L390.04,408.68L391.75,408.17L391.68,407.37L392.66,407.34L394.24,406.04L398.28,406.54L398.87,407.14L399.3,406.88L401.66,403.92L401.62,402.79L402.96,399.12L403.02,397.53L402.46,396.73L402.65,394.86L402.14,393.54L402.89,391.86L399.9,392.49L400.59,391.1L401.42,390.83L401.28,387.41L400.15,387.57L399.86,388.5L396.72,388.76L395.86,387.3L395.11,386.92L394.85,387.42L393.76,387.61L392.12,385.7L391.41,386.64L390.24,387.07L389.6,384.18L388.07,383.97L387.49,385.76L387.74,387.23L386.99,388.44L386.67,390.62L386.18,389.91L385.19,389.85L385.05,390.33L384.93,396.25L387.01,398.03L388.25,402.08L387.89,402.69L385.41,403.25L384.46,403.93L384.15,403.32L383,403.66L382.75,403.28L380.5,403.32L379.89,404.19L376.78,405.36L376.98,406.51L376.14,408.15ZM288.22,541.94L287.9,542.24L287.7,542.09L287.86,541.94L288.22,541.94ZM287.78,542.23L287.99,542.68L287.85,542.88L287.78,542.23ZM270.88,438.56L270.84,438.93L270.75,438.93L270.88,438.56ZM246.93,471.59L247.24,471.81L247.25,471.89L246.93,471.59ZM225.86,491.31L225.99,491.44L225.86,491.45L225.86,491.31ZM245.85,472.54L245.67,472.51L245.64,472.4L245.85,472.54ZM227.3,479.96L227.16,479.92L227.3,479.95L227.3,479.96ZM247.46,463.13L247.62,463.15L247.65,463.24L247.46,463.13ZM259.5,530.89L259.56,531.03L259.49,530.95L259.5,530.89ZM229.37,483.02L229.36,483.14L229.31,483.09L229.37,483.02ZM261.23,532.18L261.26,532.28L261.2,532.27L261.23,532.18ZM243.33,472.51L243.27,472.53L243.3,472.49L243.33,472.51ZM229.91,485.87L229.81,485.91L229.87,485.84L229.91,485.87ZM260.2,531.44L260.15,531.43L260.18,531.41L260.2,531.44ZM238.2,473.16L238.18,473.21L238.17,473.15L238.2,473.16ZM226.36,491.71L226.45,491.71L226.39,491.78L226.36,491.71ZM256.53,529.97L256.46,530L256.5,529.94L256.53,529.97ZM226,491.54L225.92,491.56L225.97,491.52L226,491.54ZM256.28,529.88L256.32,529.93L256.3,529.96L256.28,529.88ZM250.13,403.53L250.11,403.58L250.05,403.57L250.13,403.53ZM257.19,530.17L257.16,530.19L257.16,530.17L257.19,530.17ZM259.89,530.98L259.87,531.06L259.86,531.06L259.89,530.98ZM226.7,492.14L226.66,492.15L226.67,492.11L226.7,492.14ZM290.02,542.18L289.99,542.17L290.01,542.16L290.02,542.18Z" stroke-width="0.8" stroke-opacity="0.38"/>
    <path d="M534.59,566.73L471.55,560.92L352.48,549.29L352.88,537.13L369.8,526.17L377.26,527.15L385.71,520.65L393.12,517.74L402.11,513.21L406.87,499.79L405.09,491.16L407.65,481.98L406.75,472.45L402.28,465.6L402,458.04L398.51,455.51L397.82,444.65L401.15,437.32L408.26,421.19L422.54,428.29L432.47,421.48L425.01,411.63L434.56,404.89L427.44,385.88L424.69,377.48L412.86,357L409.86,339.63L416.32,321.93L425.2,314.16L435.94,314.86L446.16,315.25L457.03,315.23L465.26,309.31L479.64,307.33L484.14,295.71L495.36,308.69L494.13,313.92L502.56,327.78L501.54,348.02L511.18,362.66L515.46,372.92L520.51,374.33L514.37,382.27L500,393.4L484.44,398.44L471.64,413.24L473.16,420.6L472.38,430.7L473.4,435.07L477.66,433.47L482.98,434.28L486.2,431.3L493.04,434.06L501.89,442.46L509.4,445.61L509.57,457.12L505.31,466.83L498.16,468.47L492.4,475.84L502.23,481.44L516.52,479.52L521.77,486.5L535.22,490.97L549.46,490.26L557.54,499.91L556.67,515.91L559.04,532.67L544.61,550.17L543.32,562.58L534.59,566.73L534.59,566.73Z" stroke-width="0.8" stroke-opacity="0.38"/>
    <path d="M630.37,491.05L639.11,497.84L626.66,502.35L617.31,506.06L603.67,509.82L595.16,501.82L587.23,495.71L576.94,492.41L569.36,492.96L553.74,492.66L539.86,492.57L530.97,492.41L523.18,482.66L512.86,476.87L502.21,480.24L492.4,475.84L497.83,468L501.08,469.56L508.83,458.67L514.34,448.74L523.68,445.8L530.93,444.81L539.76,443.37L543.25,435.8L553.05,432.28L559.59,432.12L560.1,418.03L567.2,410.73L571.91,404.25L580.38,392.08L617.37,406.66L632.61,400.08L638.2,388.76L633.1,385.94L629.3,386.84L623.13,384.85L616.72,381.24L608.9,382.94L605.41,375.89L608.61,371.76L619.39,365.66L624.76,364.69L634.89,365.66L641.82,359.95L640.25,372.48L645.34,387.87L644.44,399.42L649.19,402.86L658.02,405.79L672.42,407.23L682.52,404.74L693.83,402.34L685.34,411.25L691.63,423.62L697.82,430.35L686.12,431.93L672.42,436.04L664.16,445.63L660.79,458.86L649.43,465.1L638.19,471.87L629.68,488.85L630.37,491.05Z" stroke-width="0.8" stroke-opacity="0.38"/>
    <path d="M654.3,623.21L624.02,617.11L607.28,599.18L591.11,588.55L575.98,582.34L565.77,578.9L559.09,574.1L543.32,562.58L545.67,550.66L553.3,540.7L562.36,524.89L553.36,505.38L558.58,497.22L567.26,492.56L574.62,494.31L583.06,493.01L590.56,497.8L598.58,506.62L609.79,508.05L620.84,504.82L635.86,507.08L636.22,495.2L635.49,480.94L643.16,467.82L654.63,465.64L661.19,447.55L669.4,442.44L677.97,433.7L695.77,432.78L695.84,426.64L690.03,412.68L690.5,406.92L698.11,403.18L712.23,408.17L725.18,411.43L728.14,413.94L738.33,414.99L747.54,418.74L757.82,429.7L759.29,435.89L755.76,445.53L751.43,447.69L739.59,456.17L743,470.95L738.22,483.46L714.65,492.6L695.39,504.38L699.67,512.42L699.1,518.99L692.72,524.8L700.93,536.82L702.82,552.52L702.2,566.99L699.11,588.13L694.07,601.35L696.1,608.28L695.62,614.69L695.64,618.72L695.86,627.88L692.41,637.46L681.92,640.84L669.34,635.04L654.3,623.21ZM673.4,639.98L674.36,640.47L673.24,640.25L673.4,639.98ZM688.34,641.47L688.25,641.58L688.28,641.48L688.34,641.47ZM690.65,640.97L690.46,641.05L690.44,641.02L690.65,640.97ZM694.35,641.39L694.34,641.48L694.3,641.46L694.35,641.39Z" stroke-width="1.3" stroke-opacity="0.7"/>
    <path d="M792.88,660.37L717.27,642.24L695.08,630.24L695.73,622.07L696.1,615.43L696.1,608.28L694.32,600.37L699.24,585.89L703.19,558.11L704.2,544.72L692.92,528.74L697.66,520.5L701.3,514.34L696.72,508.23L710.91,498.7L736.47,484.03L743,470.95L745.01,449.73L754.18,449.33L756.45,437.76L757.82,429.7L765.65,435.23L776.98,437.85L785.67,443.29L785.15,448.58L785.05,455.8L780.43,460.64L779,464.23L777.65,469.87L778.75,482.26L777.6,489.28L776.22,494.03L773.38,499.08L767.54,505.56L765.51,516.25L768.65,526.88L773.31,540.17L775.52,550.79L779.61,553.44L800.54,545.81L803.4,537.93L803.64,534.13L805.36,527.08L813.58,519.73L820.77,522.03L829.15,523.59L836.25,525.5L842.82,529.19L847.6,553.97L853.4,564.94L842.61,566.52L825.89,567.88L820.17,583.25L826.06,588.62L827.98,601.32L828,604.02L828.56,613.5L827.31,620.04L822.35,623.68L816.71,626.45L817.47,633.72L816.73,636.22L817.23,648.08L820.32,659.61L816.35,664.61L806.71,662.7L792.88,660.37ZM817.02,665.58L817.13,665.77L816.76,665.84L817.02,665.58ZM816.83,665.4L816.96,665.51L816.65,665.6L816.83,665.4ZM809.47,664.72L809.68,664.68L809.72,664.89L809.47,664.72ZM798.75,530.75L799.09,530.77L799.32,530.9L799.13,530.91L798.75,530.75ZM816.73,665.3L816.84,665.33L816.72,665.36L816.73,665.3Z" stroke-width="0.8" stroke-opacity="0.38"/>
    <path d="M893.78,588.72L877.45,586.11L881.37,579.33L870.17,577.9L853.78,569.88L848.19,564.31L841.95,544.76L841.08,526.76L835.08,525.1L828.58,523.95L820.77,522.03L817.24,519.69L808.61,517.52L802.94,516.69L797.92,514.54L791.25,510.07L782.62,504.49L777.69,497.47L777.43,492.71L778.39,487.58L779.25,481.64L777.66,469.78L779,465.94L780.23,461.57L783.65,457.39L784.44,451.57L784.89,447.1L782.31,441.84L775.21,438.38L776.53,434.02L797.31,436.19L823.83,435.61L833.42,435.67L840.95,441.57L848.22,445.41L850.9,449.37L857.76,452.71L863.47,454.29L871.54,455.74L872.99,459.51L874.51,465.57L878.71,471.58L890.89,477.45L895.33,481.58L896.21,490.49L891.84,497.95L888.76,510L885.01,521.17L874.31,525.3L864.01,525.11L865.31,534.31L868.88,536.26L882.51,542.98L889.47,547.44L895.15,543.42L906.89,536.04L916.57,534.52L925.15,528.4L927.81,538.09L938.46,547.27L932.62,560.71L925.72,557.72L915.72,563.12L918.73,575L909.02,583.31L893.78,588.72Z" stroke-width="0.8" stroke-opacity="0.38" fill="currentColor" fill-opacity="0.035"/>
    <path d="M889.77,468.78L887.56,475.32L883.43,472.61L879.65,468.54L876.75,465.32L873.85,464.03L874.81,459.72L872.71,458.5L872.53,456.5L869.56,455.26L865.79,454.57L862.77,453.81L859.86,452.83L855.84,452.49L852.23,448.94L849.68,448.1L849.12,446.53L845.27,445.67L842.1,442.26L839.36,440.73L836.14,438.9L838.38,433.92L837.6,429.53L838.29,425.96L835.43,412.01L835.91,404.89L841.2,390.48L841.64,366.19L838.86,357.44L839.85,354.33L845.98,350.32L852.52,350.36L859.49,355.19L865.64,354.24L873.21,354.09L874.45,364.49L874.35,373.36L879.1,377.41L881.19,376.55L884.67,380.29L889.38,381.64L894.91,384.84L898.01,385.63L899.97,385.97L902.52,387.3L907.62,389.35L915.16,388.79L919.66,390.1L918.25,397.34L922.73,396.98L924.89,395.15L926.4,393.27L926.74,395.87L936.31,399.51L936.92,414.84L944.39,415.06L952.88,414.61L959.92,418.01L954.81,428.37L958.19,433.74L956.83,436.19L955.27,439.71L953.14,447.13L945.9,450.97L936.51,455.59L930.61,462.64L918.93,464.32L898.13,463.49L889.77,468.78Z" stroke-width="0.8" stroke-opacity="0.38"/>
    <path d="M949.45,402.46L950.7,405.06L949.98,412.93L939.7,416.03L933.69,397.41L927.18,394.5L924.27,395.94L920.37,398.46L917.72,386.98L909.6,388.6L901.95,386.66L898.65,386.09L894.15,384.89L887.43,380.85L881.02,377.16L876.32,373.9L872.38,362.76L867.54,353.4L857.46,355.54L846.69,350.94L839.42,353.09L835.74,345.23L831.42,335.5L828.02,330.09L830.76,326.57L826.13,319.15L823.47,309.47L817.83,298.98L828.58,281.31L838.67,275.12L854.7,274.41L855.58,286.37L861.79,284.31L866.51,282.58L871.38,275.28L878.28,270.2L884.39,292.17L888.05,313.69L885.03,324.82L883.67,328.27L885.72,331.98L883.72,333.53L877.98,335.87L877.75,339.42L880.77,342.97L883.76,353.1L887.31,347.15L893.82,340.6L897.83,340.49L901.99,344.68L910.64,346.15L917.5,340.7L924.39,347.45L927.16,355.33L938.97,358.51L940.75,357.53L953.57,358.06L964.17,345.51L967.35,341.61L975.66,336.86L975.55,341.59L972.62,342.69L971.53,354.58L967.47,366.79L960.18,378.61L956.19,378.85L953.62,381.76L950.22,385.01L950.14,389.78L950.88,398.1L949.45,402.46Z" stroke-width="1.3" stroke-opacity="0.7"/>
    <path d="M787.78,433.15L770.78,435.23L761.29,429.41L765.54,420.51L770.83,406.96L779.7,400.26L784.92,394.96L783.11,390.83L784,382.85L777.69,381.77L777.29,375.72L774.86,372.5L773.35,366.03L767.29,362.14L769.09,352.26L767.53,343.27L766.6,337.98L766.64,332.36L764.14,331.13L761.53,328.62L758.78,327.5L754.72,327.36L752.64,323.66L749.94,321.7L744.67,317.01L739.7,314.91L738.08,312.72L734.99,307.91L732.35,304.53L734.84,303.21L737.01,301.15L740.48,299.34L740.71,295.33L740.52,291.46L741.2,288.81L744.07,287.25L747.98,284.05L750.78,283.52L754.02,279.99L755.85,277.59L758.99,282.16L762.11,287.3L762.79,291.29L769.08,298.89L775.98,298.03L786.91,286.94L802.88,292.46L806.64,301.81L808.21,297.62L813.57,301.34L823.62,305.96L821.21,316.77L830.78,325.17L828.32,328.64L829.73,332.88L829.85,343.47L840.63,348.93L839.42,355.61L841.64,366.19L837.26,400.17L835.43,412.01L835.36,429.14L838.38,433.92L834.57,436.82L828.93,432.9L821.5,436.5L793.38,436.81L787.78,433.15Z" stroke-width="0.8" stroke-opacity="0.38"/>
    <path d="M758.99,428.43L749.34,422.5L744.51,416.36L735.39,415.35L728.14,413.94L726.05,411.6L719.93,411.39L708.78,404.04L698.11,403.18L692.41,402.76L682.52,404.74L674.64,406.72L667.8,407.28L652.52,402.94L649.19,402.86L643.89,402.01L645.57,390.6L643.29,381.66L641.1,369.95L646.89,358.98L656.56,357.27L667.71,350.56L670.34,343.76L668.66,336.95L668.7,332.66L668.73,327.33L668.74,323.48L668.35,320.55L669.78,315.11L673.87,304.46L675.1,295.48L680.94,290.27L699.67,301.72L711.5,308.07L728.13,313.16L728.9,308.74L731.9,307.41L735.42,310.89L740.19,312.38L743.17,316.27L747.13,318.61L752.15,322.55L754.74,325.87L757.83,327.39L760.35,327.85L763.93,330.31L766.19,332.14L768.56,334.54L764.25,343.41L770.49,351.85L765.86,356.62L769.61,365.29L774.01,370.15L776.47,375.01L779.26,377.86L781.31,384.02L783.66,388.82L785.79,394.51L780.39,399.32L771.35,406.99L769.07,416.11L760.36,428.28L758.99,428.43Z" stroke-width="0.8" stroke-opacity="0.38"/>
    <path d="M747.41,283.78L742.65,287.38L742.21,289.71L741.08,294.79L740.59,297.9L737.01,301.15L734.29,302.97L731.77,306.32L729.57,309.43L727.96,314.12L707.46,306.54L694.03,295.83L677.78,285.36L682.79,284.91L687.36,280.84L692.11,274.57L694.14,267.57L691.38,263.53L694.29,260.46L691.1,258.93L688.21,255.36L684.64,250.5L685.87,244.98L686.55,236.3L687.31,232.62L694.74,213.96L695.2,202.55L695.57,197.59L692.16,194.72L694.53,188.65L709.8,194.76L715.24,197.9L728.48,205.98L747.34,212.22L755.62,214.29L769.07,206.84L775.52,201.93L783.32,196.46L776.54,186.77L771.75,182.68L778.34,180.09L791.99,187.72L813.95,190L821.71,195.43L825.63,190.98L830.98,205.37L837.53,221.96L839.08,224.36L852.54,241.09L875.28,257.4L876.65,271.34L871.12,277.44L864.06,282.74L860.98,285.89L854.03,279.09L841.71,275.51L828.58,281.31L817.25,301.37L811.63,300.97L805.68,298.59L801.88,296.28L789.69,288.33L775.98,298.03L768.22,299.43L763.22,288.46L762.08,284.47L756.01,277.74L754.52,278.53L751.28,281.52L748.65,283.58L747.41,283.78ZM832.69,89.66L836.6,91.21L836.7,91.94L835.95,92.89L833.99,93.09L833,92.27L831.98,90.71L832.01,89.96L832.69,89.66ZM857.21,54L857.35,54.05L857.18,54.05L857.21,54ZM842.33,72.79L842.27,72.86L842.23,72.76L842.33,72.79Z" stroke-width="0.8" stroke-opacity="0.38"/>
    <path d="M663.05,356.12L646.89,358.98L631.26,355.08L618.48,348.89L600.64,343.41L594.8,332.85L593.67,319.44L592.5,307.36L593.38,296.72L592.18,291.71L588.13,287.71L583.42,284.89L584.82,280.76L586.38,273.13L585.36,264.66L584.74,259.34L580.95,254.38L580.2,248.92L575.09,242.12L579.13,233.11L583.26,223.89L586.91,219.9L588.78,213.16L591.39,204.1L590.79,194.13L597.18,189.07L608.78,179.95L626.18,181.86L637.12,184.46L647.23,177.5L653.28,178.04L660.4,174.71L673.38,170.31L673.37,170.52L676.49,176.46L681.37,171.55L683.67,168.44L684.54,174.95L689.42,186.68L693.04,192.47L694.05,195.13L695.63,200.95L695.25,213.27L687.31,232.62L685.92,237.14L685.55,247.55L685.92,252.59L687.93,259.3L692.56,260.47L690.84,262.83L694.14,267.57L691.45,276.08L686.64,282.02L680.49,284.9L675.06,288.57L674.18,298.68L672.32,312.75L668.35,320.55L670.03,324.71L668.06,330.47L668.66,336.95L669.85,346.29L663.05,356.12Z" stroke-width="1.3" stroke-opacity="0.7" fill="currentColor" fill-opacity="0.035"/>
    <path d="M585.85,342.19L583.69,348.08L575.38,342.44L565.37,336.05L562.14,334.97L558.29,331.44L555.45,328.66L552.02,325.42L548.7,326.27L544.29,325.43L535.43,324.1L528.04,322.26L525.25,325.23L515.64,329.52L502.98,328.06L495.37,325.17L492.43,320.16L494.47,312.51L495.55,311.16L495.26,305.91L487.62,299.96L483.49,290.38L495.49,281.51L498.09,275.62L502.94,270.99L506.64,263.3L521.06,258.52L527.48,263.92L533.48,262.19L528.15,255.75L547.31,251.93L552.71,246.92L555.3,242.36L561.06,243.44L566.08,237.72L569.63,238.32L575.09,242.12L577.31,247.01L579.82,248.18L580.19,251.75L580.95,254.38L582.85,256.76L584.74,259.34L586.93,260.77L585.36,264.66L583.69,269.93L586.38,273.13L584.09,277.2L584.82,280.76L584.8,282.68L583.42,284.89L585.87,285.88L588.13,287.71L590.81,289.5L592.18,291.71L593.29,294.12L594.1,296.52L592.83,300.39L591.24,305.81L593.47,308.12L597.24,314.09L593.9,319.95L595.04,327.21L595.52,334.1L587.73,339.85L585.85,342.19Z" stroke-width="0.8" stroke-opacity="0.38"/>
    <path d="M493.72,282.55L480,292.16L469.42,280.45L466.33,269.9L466.79,263.62L470.16,257.06L471.68,255.96L475.62,252.66L477.52,250.06L477.92,244.88L477.54,240.86L481.93,233.14L479.07,228.08L479.92,223.29L483.07,214.65L483.41,210.15L483.16,208.86L485.92,205.03L486.96,202.89L492.61,201.03L496.53,198.04L499.54,189.8L500.41,180.64L504.44,175.53L502.01,166.02L504.04,155.72L501.39,154.45L497.35,152.15L490.52,144.26L479.45,143.04L470.47,136.24L458.75,134.42L455.45,129.69L453.96,127.15L447.07,121.5L445.4,117.15L440.76,109.97L442.05,106.7L444.64,101L471.39,109.23L482.49,105.43L507.5,100.09L545.9,140.44L555.19,152.83L586.07,167.95L607.77,175.24L600.73,184.6L595.02,188.98L590.79,194.13L593.21,202.21L591.31,208.07L589.15,213.93L586.91,219.9L583.74,222.96L580.09,228.79L576.88,238.8L566.48,237.88L560.43,243.98L553.19,246.57L546.76,252.36L531.4,261.22L525.51,263.16L508.04,261.94L501.93,271.91L496.2,280.32L493.72,282.55Z" stroke-width="0.8" stroke-opacity="0.38"/>
    <path d="M476.19,252.76L471.55,254.7L467.98,260.36L455.06,254.96L442.62,249.61L432.69,243.28L430.69,239.52L433.04,235.21L427.74,236.39L421.69,236.6L417.84,234.86L416.46,227.51L414.02,221.87L420.09,221.49L421.02,213.14L427.34,200.1L419.49,197.73L426.95,187.86L424.49,178.27L418.67,172.01L408.77,166.09L405.89,153.07L413.07,138.46L415.92,136.95L418.56,135.05L413.65,129.25L408.25,127.09L417.08,127.82L419.1,119.82L413.29,116.19L414.65,114.29L418.1,112.27L420.74,104.93L415.43,91.86L423.76,91.8L424.46,90.19L427.04,90.84L426.53,93.5L431.41,101.9L434.88,95.52L432.51,93.41L431.02,90.31L444.64,101L441.79,108.3L445.4,117.15L451.32,124.78L455.45,129.69L463.63,133.31L479.45,143.04L494.86,146.48L501.39,154.45L500.56,160.55L504.44,175.53L498.5,183.72L496.53,198.04L490.4,203.38L485.92,205.03L481.18,208.5L483.07,214.65L479.04,223.92L481.93,233.14L474.74,241.27L477.52,250.06L476.19,252.76Z" stroke-width="0.8" stroke-opacity="0.38"/>
    <path d="M542.89,436.65L539.76,443.37L532.33,446.2L525.61,444.92L517.56,445.68L509.4,445.61L505.18,441.86L496.83,437.8L492.38,432.58L486.3,431.74L482.68,432.63L478.92,433.65L475.82,433.6L471.72,434.22L472.38,430.7L474.56,422.98L471.41,414.95L473.1,408.09L490,396.03L499.71,393.93L510.85,386.21L518.84,378.58L521.3,372.07L515.46,372.92L513.1,367.82L506.94,353.94L503.73,340.55L519.05,323.94L530.62,322.49L547.44,326.07L552.49,325.52L560.18,333.31L567.52,336.54L583.69,348.08L590.65,334.44L597.46,342.53L610.36,348L624.16,355.31L635.76,359.11L638.94,362.95L632.11,365.87L623.96,365.21L619.39,365.66L609.26,371.84L604.37,374.95L598.8,373.84L595.15,370.09L588.46,380.96L586.36,374.95L582.03,367.52L577.58,370.01L574.27,375.48L573.05,379.85L571.8,389.99L574.68,399.95L568.52,411.04L563.29,415.06L559.33,422.2L560.27,433.94L551.45,431.29L543.25,435.88L542.89,436.65Z" stroke-width="1.3" stroke-opacity="0.7"/>
    <path d="M865.61,659.28L850.21,666L825.3,664.48L822.75,661.69L815.59,655.56L816.44,647.38L814.02,636.71L817.52,635.32L817.32,629.99L817.62,627.11L819.18,626.47L824.93,623.99L826.87,621.65L828.99,618.74L828.56,613.5L828.39,605.11L828.69,602.41L827.98,601.32L827.23,590.31L826.44,587.38L820.17,583.25L820.23,573.32L840.44,562.22L842.61,566.52L846.47,566.16L854.87,569.32L869.61,578.09L873.79,576.67L878.26,580.93L878.28,588.03L887.86,590.52L900.52,587.34L911.99,581.46L918.85,572.67L916.9,563.32L920.38,557.96L928.8,556.73L933.47,561.56L938,565.32L947.08,582.26L947.47,594.16L944.24,598.85L943.98,604.67L951.05,612.82L957.5,616.78L962.06,621.75L957.77,627.73L954.4,626.25L951.43,626.53L932.01,621.97L923.93,624.54L923.38,625.06L924.31,634.18L922.56,638.59L916.58,633L916.92,627.58L877.69,628.16L871.9,637.72L871.85,652.21L870.25,657.29L865.61,659.28ZM871.04,656.09L870.85,656.23L870.81,656.12L871.04,656.09ZM869.96,657.63L869.81,657.76L869.8,657.67L869.96,657.63ZM871.89,654.33L871.77,654.42L871.78,654.28L871.89,654.33ZM870.38,657.4L870.28,657.48L870.26,657.38L870.38,657.4ZM871.07,655.89L871.15,655.96L871.01,655.97L871.07,655.89ZM872.89,645.61L872.75,645.67L872.84,645.58L872.89,645.61ZM872.64,652.12L872.58,652.18L872.57,652.12L872.64,652.12Z" stroke-width="0.8" stroke-opacity="0.38"/>
    <path d="M365.28,318.84L360.15,316.92L359.32,314.93L357.02,312.08L356.13,310.89L356,309.84L354.19,309.24L352.89,308.32L352,311.37L351.07,312.42L348.5,312.37L345.74,311.36L350.17,305.36L351.02,302.73L350.22,301.55L349.63,300L348.86,298.39L347.88,297.22L346.62,295.64L344.74,294.64L339,286.63L337.51,287.83L335.67,286.26L336.18,285.36L335.27,285.08L334.57,282.86L335.46,281.33L336.23,277.47L338.56,279.19L339.79,280.18L342.42,279.85L343.78,277.92L343.59,274.46L343.53,272.3L344.15,270.56L350.84,269.16L351.25,272.99L352.45,274.45L350.95,276.15L351.34,278.08L352.26,278.65L353.23,280.12L354.18,280.37L355.28,276.27L356.13,278.41L357.83,276.44L359.92,277.53L361.68,277.58L362.09,278.37L363.26,279.96L364.92,285.15L363.93,294.86L366.19,304.62L369.1,309.66L368.98,318.2L365.28,318.84L365.28,318.84Z" stroke-width="0.8" stroke-opacity="0.38" fill="currentColor" fill-opacity="0.035"/>
    <path d="M391.65,407.43L391.75,408.17L390.04,408.68L390.05,409.3L389.11,408.77L388.41,409.93L386.55,410.17L385.4,409.22L383.92,409.91L383.15,408.69L383.54,408.11L381.37,407.26L380.61,408.65L378.64,408.41L378.32,409.24L377.66,408.61L377.1,409.32L376.14,408.15L376.98,406.51L376.75,405.4L379.89,404.19L380.2,403.44L384.15,403.32L384.46,403.93L385.41,403.25L387.89,402.69L388.25,402.08L387.01,398.03L384.93,396.25L385.05,390.33L385.19,389.85L386.18,389.91L386.67,390.62L386.99,388.44L387.74,387.23L387.68,384.76L388.24,383.9L389.02,384.4L389.23,383.89L389.6,384.18L390.24,387.07L391.41,386.64L392.12,385.7L393.76,387.61L394.85,387.42L395.11,386.92L395.86,387.3L396.72,388.76L399.86,388.5L400.15,387.57L400.88,387.18L401.28,387.41L401.42,390.83L400.59,391.1L399.9,392.49L402.89,391.86L402.14,393.54L402.65,394.86L402.46,396.73L403.02,397.53L402.96,399.12L401.62,402.79L401.66,403.92L400.71,405.57L398.87,407.14L398.28,406.54L394.29,406.03L392.66,407.34L391.65,407.43Z" stroke-width="0.8" stroke-opacity="0.38"/>
    <path d="M631.91,403.09L632.69,404.83L626.38,407.29L612.58,405.78L605.72,405.68L592.98,405.11L580.87,394.32L584.6,395.21L585.43,394.53L586.55,396.16L586.1,394.49L586.65,390.95L587.99,389.34L585.76,382.58L588.78,381.39L590.36,376.64L591.95,374.35L594,372.09L594.22,370.96L596.71,367.01L598.65,368.62L598.87,373.12L600.21,372.59L601.77,370.79L602.29,370.94L604.06,372.83L604.88,374.63L604.63,376.03L605.74,377.52L606.73,377.74L607.71,381.55L608.9,382.03L610.7,384.11L611.73,383.11L613.93,384.61L616.72,381.24L616.94,383.07L618.72,381.32L621.1,384.01L623.13,384.85L625.42,386.61L626.23,387.15L627.78,388.71L629.3,386.84L628.38,385.56L629.09,383.93L632.21,383.2L633.1,385.94L635.71,384.7L638.28,386.04L639.81,386.83L638.2,388.76L636.45,391.35L635.61,391.8L634.79,396.12L632.92,398.59L631.75,400.63L631.91,403.09Z" stroke-width="1.3" stroke-opacity="0.7"/>
    <path d="M887.84,345.32L887.5,350.41L885.97,353.63L883.36,353.62L882.09,351.66L879.84,349.48L882.16,343.89L880.36,343.32L878.96,341.32L878.36,340.02L877.36,339.85L876.69,337.85L877.75,336.64L879.3,334.93L881.73,333.09L883.15,332.98L884.46,333.27L884.93,332.85L885.68,333.19L885.05,331.68L885.76,327.72L884.45,328.46L883.67,327.39L884.31,326.31L883.89,324.37L885.42,325.81L886.77,324.46L891.63,327.26L893.43,327.66L893.64,327.55L892.38,326.72L892.58,328.91L891.79,329.14L891.94,329.68L892.53,330.68L892.73,329.94L893.04,329.08L893.18,328.64L893.1,328.88L894.51,331.99L896.03,333.64L896.96,334.63L897.88,334.03L896.16,335.93L898.15,334.18L898.16,334.18L897.08,336.68L897.7,339.14L897.91,340.46L896.46,339.77L894.16,341.07L892.17,340.65L889.2,342.4L887.84,345.32L887.84,345.32Z" stroke-width="0.8" stroke-opacity="0.38"/>
    <path d="M396.21,228.4L392.27,230.06L391.69,232.55L386.67,233.23L385.57,232.43L387.14,225.5L389.66,223.02L390.16,219.22L390.66,217.13L390.83,212.31L391.68,208.23L390.61,204.12L388.69,203.56L388.33,200.94L387.8,195.61L387.91,191.15L390.16,189.25L398.11,189.44L398.58,184.72L402.25,178.92L404.82,173.86L406.92,170.31L409.13,165.15L416.98,167.43L418.67,172.01L425.39,173.15L425.45,177.22L425.45,181.65L428.01,183.77L424.13,189.64L420.23,193.12L421.87,198.03L426.54,199.75L427.63,206.16L423.93,213.06L418.92,215.92L419.72,217.86L418.39,221.43L415.72,220.24L414.02,221.87L408.8,222.72L405.98,218.92L405.73,216.51L406.88,216.08L407.59,213.57L407.01,207.42L406,205.62L404.96,205.99L404.24,206.48L403.33,208.6L403.48,211.5L404.06,212.66L403.7,213.95L402.09,215.93L400.59,218.69L400.04,219.26L399.55,221.72L398.02,221.99L398.58,224.69L396.48,225.38L396.3,227.78L396.21,228.4Z" stroke-width="0.8" stroke-opacity="0.38"/>
    <path d="M366.25,249.18L363.98,250.11L361.7,253.08L360.61,250.06L358.76,249.01L353.06,248.68L335.64,246.07L333.92,242.51L333.76,238.47L333.45,235.63L332.68,233.86L332.17,231.81L330.62,230.01L330.34,227.1L329.17,223.7L345.59,220.5L346.6,217.81L347.2,214.81L347.94,212.06L349.74,208.62L357.17,208.44L354.76,213.5L353.36,218.04L352.08,219.8L357.5,223.34L365.39,220.63L366.45,217.33L366.29,216.16L370.99,217.27L372.33,219.18L374.44,220.93L376.11,220.03L378.36,222.46L379.76,223.62L381.42,224.54L385.13,225.23L386.96,222.04L387.24,227.2L386.05,231.8L384.77,233.83L390.35,232.96L389.59,234.67L389.32,236.29L387.97,238.4L386.59,239.07L384.79,240.57L383.28,242.78L381.76,244.13L380.49,245.62L380.22,247.09L378.96,248.94L379.34,251.32L376.25,251.24L370.55,249.15L368.07,247.79L366.25,249.18Z" stroke-width="0.8" stroke-opacity="0.38"/>
    <path d="M586.98,389.89L586.8,393.61L586.1,394.49L586.85,395.2L586.5,396.18L584.96,395.5L585.43,394.53L584.86,394.09L584.6,395.21L582.28,394.19L580.87,394.32L580.38,392.08L579.97,391.92L575.64,391.24L574.83,392.63L572.81,391.92L571.8,389.99L572.82,388.93L571.95,388.79L572,387.79L570.34,386.55L570.17,385.64L571.08,381.71L573.05,379.85L573,378.83L574.01,378.07L574.2,376.93L574.92,376.59L574.44,375.77L573.81,375.72L575.42,375.68L577.6,374.2L578.25,372.65L577.82,371.58L578.43,370.73L577.58,370.01L578.36,368.96L579.07,365.54L580.22,365.68L581.22,364.89L581.29,364.13L582.76,364.72L582.03,367.52L583.91,368.04L582.66,369.99L583.9,371.19L583.72,372.08L584.97,372.82L585.07,372.34L586.25,372.85L585.78,374.32L586.36,374.95L586.02,375.47L587.03,375.8L586.13,376.71L585.82,377.98L588.45,379.45L588.23,380.6L588.78,380.76L588.99,382.01L590.17,383.38L585.76,382.58L584.18,383.05L587.99,389.34L586.98,389.89Z" stroke-width="1.3" stroke-opacity="0.7" fill="currentColor" fill-opacity="0.035"/>
    <path d="M799.95,531L804.43,534.03L802.69,534.28L801.36,536.08L802.97,537.22L803.37,539.61L802.96,541.07L801.39,544.26L794.43,546.74L788.92,549.1L780.4,551.98L777.21,553.25L777.7,549.77L774.78,550.61L775.25,547.01L775.55,542.44L774.8,538.89L774.69,535.84L770.95,533.72L768.95,524.27L769.96,521.93L768.18,520.88L767.44,515.31L767.75,512.99L766.37,507.41L766.5,504.5L771.34,504.35L773.71,502.01L773.17,499.65L774.95,498.49L778.2,498.62L778.33,500.33L782.62,504.49L788.33,507.96L790.48,509.4L791.17,510.49L794.75,511.66L796.45,514L799.1,514.63L800.87,513.4L802.94,516.69L803.42,518.2L806.25,517.91L809.33,518.1L810,518.5L812.67,519.7L810.22,520.58L807.37,522.05L805.36,527.08L801.85,528.95L799.51,530.33L799.95,531ZM799.32,530.9L798.74,530.76L799.13,530.91L799.32,530.9Z" stroke-width="0.8" stroke-opacity="0.38"/>
    <path d="M910.71,532.54L909.06,534.68L908.54,536.65L905.97,539.87L901.3,536.42L899.41,540.62L898.53,542.88L895.38,545.17L892.04,549.35L891.24,551.63L890.73,547.15L888.71,545.85L887.5,543.94L885.72,544.62L883.01,541.54L880.85,542.92L878.34,540.18L875.98,539.77L869.5,536.8L868.94,535.44L867.27,535.3L866.64,536L865.86,535.56L862.69,533.62L861.65,532.62L864.08,529.22L861.92,527.54L864.05,526.25L864.01,525.11L867.56,522.91L869.76,524.36L871.19,525.38L874.31,525.3L878.07,525.74L881.23,522.38L882.51,520.94L885.01,521.17L886.26,520.34L888.83,517.52L889.93,517.81L891.22,517.45L893.83,519.79L896.2,522.84L898.79,521.37L899.37,522.06L904.96,521.06L905.72,522.82L907.06,522.8L906.89,521.26L912.39,520.49L915.61,518.97L918.19,519.57L920.94,522.19L920.1,523.67L917.17,531.4L913.07,533.61L910.71,532.54L910.71,532.54Z" stroke-width="0.8" stroke-opacity="0.38"/>
    <path d="M928,387.43L899.04,345.66" stroke-width="1.8" stroke-opacity="0.68"/>
    <path d="M952.58,374.28L899.04,345.66" stroke-width="0.72" stroke-opacity="0.24"/>
    <path d="M921.71,368.57L899.04,345.66" stroke-width="0.72" stroke-opacity="0.24"/>
    <path d="M909.13,357.48L899.04,345.66" stroke-width="0.72" stroke-opacity="0.24"/>
    <path d="M843.51,307.74L899.04,345.66" stroke-width="0.72" stroke-opacity="0.24"/>
    <path d="M450.67,245.43L506.7,204.57" stroke-width="0.72" stroke-opacity="0.24"/>
    <path d="M432.69,260.59L354,304.28" stroke-width="0.72" stroke-opacity="0.24"/>
    <path d="M421.11,292.4L354,304.28" stroke-width="0.72" stroke-opacity="0.24"/>
    <path d="M312.07,288.88L354,304.28" stroke-width="0.72" stroke-opacity="0.24"/>
    <path d="M303.47,251.6L354,304.28" stroke-width="1.8" stroke-opacity="0.68"/>
    <path d="M279.29,225.44L354,304.28" stroke-width="0.72" stroke-opacity="0.24"/>
    <path d="M255.84,224.35L354,304.28" stroke-width="0.72" stroke-opacity="0.24"/>
    <path d="M455.99,296.53L354,304.28" stroke-width="0.72" stroke-opacity="0.24"/>
    <path d="M291.11,484.66L354,304.28" stroke-width="0.72" stroke-opacity="0.24"/>
    <path d="M261.64,485.14L354,304.28" stroke-width="0.72" stroke-opacity="0.24"/>
    <path d="M301.35,519.56L506.7,204.57" stroke-width="0.72" stroke-opacity="0.24"/>
    <path d="M376.97,374.58L803.43,524.33" stroke-width="0.72" stroke-opacity="0.24"/>
    <path d="M350.78,475.78L354,304.28" stroke-width="0.72" stroke-opacity="0.24"/>
    <path d="M336.35,535.24L354,304.28" stroke-width="1.8" stroke-opacity="0.68"/>
    <path d="M442.56,375.43L354,304.28" stroke-width="0.72" stroke-opacity="0.24"/>
    <path d="M461.31,376.22L354,304.28" stroke-width="0.72" stroke-opacity="0.24"/>
    <path d="M492.84,374.7L354,304.28" stroke-width="0.72" stroke-opacity="0.24"/>
    <path d="M478.93,343.81L354,304.28" stroke-width="0.72" stroke-opacity="0.24"/>
    <path d="M440.4,359.09L354,304.28" stroke-width="0.72" stroke-opacity="0.24"/>
    <path d="M445.11,326.31L354,304.28" stroke-width="0.72" stroke-opacity="0.24"/>
    <path d="M452.16,549.55L354,304.28" stroke-width="0.72" stroke-opacity="0.24"/>
    <path d="M520.03,552.35L354,304.28" stroke-width="0.72" stroke-opacity="0.24"/>
    <path d="M434.27,378.87L354,304.28" stroke-width="1.8" stroke-opacity="0.68"/>
    <path d="M506.61,365.38L354,304.28" stroke-width="0.72" stroke-opacity="0.24"/>
    <path d="M647.24,411.31L616.47,398.01" stroke-width="0.72" stroke-opacity="0.24"/>
    <path d="M640.53,432.82L506.7,204.57" stroke-width="0.72" stroke-opacity="0.24"/>
    <path d="M701.69,463.97L803.43,524.33" stroke-width="0.72" stroke-opacity="0.24"/>
    <path d="M682.33,448.65L803.43,524.33" stroke-width="0.72" stroke-opacity="0.24"/>
    <path d="M716.33,440.51L803.43,524.33" stroke-width="0.72" stroke-opacity="0.24"/>
    <path d="M741.79,435.16L803.43,524.33" stroke-width="0.72" stroke-opacity="0.24"/>
    <path d="M732.13,464.36L354,304.28" stroke-width="0.72" stroke-opacity="0.24"/>
    <path d="M690.02,501.85L803.43,524.33" stroke-width="1.8" stroke-opacity="0.68"/>
    <path d="M689.02,543.6L803.43,524.33" stroke-width="0.72" stroke-opacity="0.24"/>
    <path d="M592.04,555.75L803.43,524.33" stroke-width="0.72" stroke-opacity="0.24"/>
    <path d="M614.52,562.31L803.43,524.33" stroke-width="0.72" stroke-opacity="0.24"/>
    <path d="M568.64,534.12L803.43,524.33" stroke-width="0.72" stroke-opacity="0.24"/>
    <path d="M710.13,423.35L803.43,524.33" stroke-width="0.72" stroke-opacity="0.24"/>
    <path d="M765.43,615.63L803.43,524.33" stroke-width="0.72" stroke-opacity="0.24"/>
    <path d="M738.17,565.01L803.43,524.33" stroke-width="0.72" stroke-opacity="0.24"/>
    <path d="M837.89,448.47L803.43,524.33" stroke-width="0.72" stroke-opacity="0.24"/>
    <path d="M886.74,488.76L803.43,524.33" stroke-width="1.8" stroke-opacity="0.68"/>
    <path d="M911.35,564.83L803.43,524.33" stroke-width="0.72" stroke-opacity="0.24"/>
    <path d="M917.12,549.76L506.7,204.57" stroke-width="0.72" stroke-opacity="0.24"/>
    <path d="M882.73,458.68L506.7,204.57" stroke-width="0.72" stroke-opacity="0.24"/>
    <path d="M899.47,403.42L899.04,345.66" stroke-width="0.72" stroke-opacity="0.24"/>
    <path d="M869.91,290.21L899.04,345.66" stroke-width="0.72" stroke-opacity="0.24"/>
    <path d="M859.34,300.18L899.04,345.66" stroke-width="0.72" stroke-opacity="0.24"/>
    <path d="M782.32,332.54L506.7,204.57" stroke-width="0.72" stroke-opacity="0.24"/>
    <path d="M760.29,312.48L899.04,345.66" stroke-width="0.72" stroke-opacity="0.24"/>
    <path d="M805.56,314.18L899.04,345.66" stroke-width="1.8" stroke-opacity="0.68"/>
    <path d="M809.81,336.45L899.04,345.66" stroke-width="0.72" stroke-opacity="0.24"/>
    <path d="M849.43,287.63L899.04,345.66" stroke-width="0.72" stroke-opacity="0.24"/>
    <path d="M939.51,366.2L899.04,345.66" stroke-width="0.72" stroke-opacity="0.24"/>
    <path d="M937.93,383.91L506.7,204.57" stroke-width="0.72" stroke-opacity="0.24"/>
    <path d="M918.37,379.14L899.04,345.66" stroke-width="0.72" stroke-opacity="0.24"/>
    <path d="M780.59,412.86L899.04,345.66" stroke-width="0.72" stroke-opacity="0.24"/>
    <path d="M829.77,418.18L899.04,345.66" stroke-width="0.72" stroke-opacity="0.24"/>
    <path d="M820.87,387.89L899.04,345.66" stroke-width="0.72" stroke-opacity="0.24"/>
    <path d="M788.36,371.94L899.04,345.66" stroke-width="1.8" stroke-opacity="0.68"/>
    <path d="M786.88,347.76L899.04,345.66" stroke-width="0.72" stroke-opacity="0.24"/>
    <path d="M796.17,427.57L899.04,345.66" stroke-width="0.72" stroke-opacity="0.24"/>
    <path d="M726.39,337.73L616.47,398.01" stroke-width="0.72" stroke-opacity="0.24"/>
    <path d="M659.85,382.97L354,304.28" stroke-width="0.72" stroke-opacity="0.24"/>
    <path d="M671.55,382.82L616.47,398.01" stroke-width="0.72" stroke-opacity="0.24"/>
    <path d="M750.81,326.88L616.47,398.01" stroke-width="0.72" stroke-opacity="0.24"/>
    <path d="M731.67,264.69L899.04,345.66" stroke-width="0.72" stroke-opacity="0.24"/>
    <path d="M773.48,265.12L899.04,345.66" stroke-width="0.72" stroke-opacity="0.24"/>
    <path d="M803.07,269.52L899.04,345.66" stroke-width="1.8" stroke-opacity="0.68"/>
    <path d="M831.23,270.5L899.04,345.66" stroke-width="0.72" stroke-opacity="0.24"/>
    <path d="M856.69,255.79L899.04,345.66" stroke-width="0.72" stroke-opacity="0.24"/>
    <path d="M824.97,249.14L899.04,345.66" stroke-width="0.72" stroke-opacity="0.24"/>
    <path d="M831.78,231.67L899.04,345.66" stroke-width="0.72" stroke-opacity="0.24"/>
    <path d="M809.69,214.47L899.04,345.66" stroke-width="0.72" stroke-opacity="0.24"/>
    <path d="M796.45,234.34L899.04,345.66" stroke-width="0.72" stroke-opacity="0.24"/>
    <path d="M768.01,237.56L899.04,345.66" stroke-width="0.72" stroke-opacity="0.24"/>
    <path d="M724.47,228.05L899.04,345.66" stroke-width="0.72" stroke-opacity="0.24"/>
    <path d="M702.32,201.71L899.04,345.66" stroke-width="1.8" stroke-opacity="0.68"/>
    <path d="M748.99,271.65L899.04,345.66" stroke-width="0.72" stroke-opacity="0.24"/>
    <path d="M844.27,264.51L899.04,345.66" stroke-width="0.72" stroke-opacity="0.24"/>
    <path d="M719.31,210.34L899.04,345.66" stroke-width="0.72" stroke-opacity="0.24"/>
    <path d="M646.21,285.9L506.7,204.57" stroke-width="0.72" stroke-opacity="0.24"/>
    <path d="M594.29,239.51L354,304.28" stroke-width="0.72" stroke-opacity="0.24"/>
    <path d="M623.15,244.22L803.43,524.33" stroke-width="0.72" stroke-opacity="0.24"/>
    <path d="M657.63,233.61L506.7,204.57" stroke-width="0.72" stroke-opacity="0.24"/>
    <path d="M678.96,192.2L506.7,204.57" stroke-width="0.72" stroke-opacity="0.24"/>
    <path d="M614.52,195.33L506.7,204.57" stroke-width="1.8" stroke-opacity="0.68"/>
    <path d="M680.36,229.72L506.7,204.57" stroke-width="0.72" stroke-opacity="0.24"/>
    <path d="M668.9,282.86L506.7,204.57" stroke-width="0.72" stroke-opacity="0.24"/>
    <path d="M648.64,301.97L506.7,204.57" stroke-width="0.72" stroke-opacity="0.24"/>
    <path d="M661.55,187.46L506.7,204.57" stroke-width="0.72" stroke-opacity="0.24"/>
    <path d="M600.85,308.38L506.7,204.57" stroke-width="0.72" stroke-opacity="0.24"/>
    <path d="M659.58,216.26L506.7,204.57" stroke-width="0.72" stroke-opacity="0.24"/>
    <path d="M625.91,284.78L899.04,345.66" stroke-width="0.72" stroke-opacity="0.24"/>
    <path d="M685.19,205.78L506.7,204.57" stroke-width="0.72" stroke-opacity="0.24"/>
    <path d="M548.56,321.05L506.7,204.57" stroke-width="1.8" stroke-opacity="0.68"/>
    <path d="M517.06,304.34L506.7,204.57" stroke-width="0.72" stroke-opacity="0.24"/>
    <path d="M577.67,272.68L506.7,204.57" stroke-width="0.72" stroke-opacity="0.24"/>
    <path d="M505.69,193.17L506.7,204.57" stroke-width="0.72" stroke-opacity="0.24"/>
    <path d="M531.25,230.85L506.7,204.57" stroke-width="0.72" stroke-opacity="0.24"/>
    <path d="M520.16,166.07L506.7,204.57" stroke-width="0.72" stroke-opacity="0.24"/>
    <path d="M495.73,128.43L506.7,204.57" stroke-width="0.72" stroke-opacity="0.24"/>
    <path d="M518.24,126.34L506.7,204.57" stroke-width="0.72" stroke-opacity="0.24"/>
    <path d="M573.6,219.97L506.7,204.57" stroke-width="0.72" stroke-opacity="0.24"/>
    <path d="M556.31,215.26L506.7,204.57" stroke-width="1.8" stroke-opacity="0.68"/>
    <path d="M522.28,183.7L506.7,204.57" stroke-width="0.72" stroke-opacity="0.24"/>
    <path d="M548.68,173.18L506.7,204.57" stroke-width="0.72" stroke-opacity="0.24"/>
    <path d="M505.88,144.35L506.7,204.57" stroke-width="0.72" stroke-opacity="0.24"/>
    <path d="M578.55,204.2L506.7,204.57" stroke-width="0.72" stroke-opacity="0.24"/>
    <path d="M516.97,199.71L506.7,204.57" stroke-width="0.72" stroke-opacity="0.24"/>
    <path d="M486.86,268.64L506.7,204.57" stroke-width="0.72" stroke-opacity="0.24"/>
    <path d="M540.36,222.37L506.7,204.57" stroke-width="0.72" stroke-opacity="0.24"/>
    <path d="M416.77,148.7L506.7,204.57" stroke-width="0.72" stroke-opacity="0.24"/>
    <path d="M443.02,148.61L506.7,204.57" stroke-width="1.8" stroke-opacity="0.68"/>
    <path d="M435.54,168.41L506.7,204.57" stroke-width="0.72" stroke-opacity="0.24"/>
    <path d="M476.32,178.93L506.7,204.57" stroke-width="0.72" stroke-opacity="0.24"/>
    <path d="M490.32,188.56L506.7,204.57" stroke-width="0.72" stroke-opacity="0.24"/>
    <path d="M471.39,156.41L506.7,204.57" stroke-width="0.72" stroke-opacity="0.24"/>
    <path d="M456.38,136.54L506.7,204.57" stroke-width="0.72" stroke-opacity="0.24"/>
    <path d="M548.32,337.18L616.47,398.01" stroke-width="0.72" stroke-opacity="0.24"/>
    <path d="M877.38,618.12L803.43,524.33" stroke-width="0.72" stroke-opacity="0.24"/>
    <path d="M851.19,584.22L803.43,524.33" stroke-width="0.72" stroke-opacity="0.24"/>
    <path d="M936.44,584.52L803.43,524.33" stroke-width="1.8" stroke-opacity="0.68"/>
    <path d="M616.47,398.01L439.49,193.72" stroke-width="0.72" stroke-opacity="0.24"/>
    <path d="M616.47,398.01L627.07,396.67" stroke-width="0.72" stroke-opacity="0.24"/>
    <path d="M899.04,345.66L439.49,193.72" stroke-width="0.72" stroke-opacity="0.24"/>
    <path d="M899.04,345.66L627.07,396.67" stroke-width="0.72" stroke-opacity="0.24"/>
    <path d="M506.7,204.57L439.49,193.72" stroke-width="0.72" stroke-opacity="0.24"/>
    <path d="M506.7,204.57L627.07,396.67" stroke-width="0.72" stroke-opacity="0.24"/>
    <path d="M354,304.28L439.49,193.72" stroke-width="0.72" stroke-opacity="0.24"/>
    <path d="M354,304.28L627.07,396.67" stroke-width="0.72" stroke-opacity="0.24"/>
    <path d="M803.43,524.33L439.49,193.72" stroke-width="1.8" stroke-opacity="0.68"/>
    <path d="M803.43,524.33L627.07,396.67" stroke-width="0.72" stroke-opacity="0.24"/>
  </g>
</svg>
