<svg xmlns="http://www.w3.org/2000/svg" viewBox="0 0 1200 720" color="#f4f4f2" role="img" aria-labelledby="title desc">
  <title id="title">Indonesia commercial-center network</title>
  <desc id="desc">A monochrome network of commercial-center observations across Indonesia.</desc>
  <g fill="none" stroke="currentColor" stroke-linecap="square" stroke-linejoin="round" vector-effect="non-scaling-stroke">
    <path d="M70,209.03Q92.34,187.03 114.67,212.69" stroke-width="1.1" stroke-opacity="0.5"/>
    <path d="M114.67,212.69Q138.32,181.69 161.97,305.41" stroke-width="1.1" stroke-opacity="0.5"/>
    <path d="M161.97,305.41Q171.13,248.46 180.29,288.46" stroke-width="1.1" stroke-opacity="0.5"/>
    <path d="M180.29,288.46Q190.99,239.46 201.69,391.88" stroke-width="1.1" stroke-opacity="0.5"/>
    <path d="M201.69,391.88Q218.18,316.54 234.66,338.54" stroke-width="1.1" stroke-opacity="0.5"/>
    <path d="M234.66,338.54Q239.38,241.01 244.11,272.01" stroke-width="1.1" stroke-opacity="0.5"/>
    <path d="M244.11,272.01Q253.09,232.01 262.06,372.12" stroke-width="1.1" stroke-opacity="0.5"/>
    <path d="M262.06,372.12Q268.26,323.12 274.47,431.25" stroke-width="1.1" stroke-opacity="0.5"/>
    <path d="M274.47,431.25Q289.21,349.88 303.94,371.88" stroke-width="1.1" stroke-opacity="0.5"/>
    <path d="M303.94,371.88Q306.51,340.88 309.08,452.64" stroke-width="1.1" stroke-opacity="0.5"/>
    <path d="M309.08,452.64Q310.63,409.84 312.17,449.84" stroke-width="1.1" stroke-opacity="0.5"/>
    <path d="M312.17,449.84Q321.88,400.84 331.58,467.3" stroke-width="1.1" stroke-opacity="0.5"/>
    <path d="M331.58,467.3Q352.69,279.37 373.79,301.37" stroke-width="1.1" stroke-opacity="0.5"/>
    <path d="M373.79,301.37Q386.15,270.37 398.51,488.77" stroke-width="1.1" stroke-opacity="0.5"/>
    <path d="M398.51,488.77Q404.04,443.37 409.58,483.37" stroke-width="1.1" stroke-opacity="0.5"/>
    <path d="M409.58,483.37Q431.18,434.37 452.78,493.35" stroke-width="1.1" stroke-opacity="0.5"/>
    <path d="M452.78,493.35Q457,339.4 461.22,361.4" stroke-width="1.1" stroke-opacity="0.5"/>
    <path d="M461.22,361.4Q481.02,330.4 500.83,380.32" stroke-width="1.1" stroke-opacity="0.5"/>
    <path d="M500.83,380.32Q507.87,340.32 514.91,510.97" stroke-width="1.1" stroke-opacity="0.5"/>
    <path d="M514.91,510.97Q526.37,459.15 537.82,508.15" stroke-width="1.1" stroke-opacity="0.5"/>
    <path d="M537.82,508.15Q547.47,190.31 557.11,212.31" stroke-width="1.1" stroke-opacity="0.5"/>
    <path d="M557.11,212.31Q560.04,181.31 562.96,311.89" stroke-width="1.1" stroke-opacity="0.5"/>
    <path d="M562.96,311.89Q584.1,271.89 605.23,364.56" stroke-width="1.1" stroke-opacity="0.5"/>
    <path d="M605.23,364.56Q611.84,315.56 618.45,425.44" stroke-width="1.1" stroke-opacity="0.5"/>
    <path d="M618.45,425.44Q623.74,299.62 629.03,321.62" stroke-width="1.1" stroke-opacity="0.5"/>
    <path d="M629.03,321.62Q629.11,290.62 629.19,505.86" stroke-width="1.1" stroke-opacity="0.5"/>
    <path d="M629.19,505.86Q661.15,356.5 693.12,396.5" stroke-width="1.1" stroke-opacity="0.5"/>
    <path d="M693.12,396.5Q699.77,237.74 706.42,286.74" stroke-width="1.1" stroke-opacity="0.5"/>
    <path d="M706.42,286.74Q728.06,241.7 749.69,263.7" stroke-width="1.1" stroke-opacity="0.5"/>
    <path d="M749.69,263.7Q790.22,232.7 830.74,389.41" stroke-width="1.1" stroke-opacity="0.5"/>
    <path d="M830.74,389.41Q868.14,281.09 905.55,321.09" stroke-width="1.1" stroke-opacity="0.5"/>
    <path d="M905.55,321.09Q918.11,272.09 930.66,370.86" stroke-width="1.1" stroke-opacity="0.5"/>
    <path d="M930.66,370.86Q969.45,348.86 1008.24,381.32" stroke-width="1.1" stroke-opacity="0.5"/>
    <path d="M1008.24,381.32Q1040.25,350.32 1072.26,434.16" stroke-width="1.1" stroke-opacity="0.5"/>
    <path d="M1072.26,434.16Q1082.03,359.14 1091.81,399.14" stroke-width="1.1" stroke-opacity="0.5"/>
    <path d="M1091.81,399.14Q1110.9,313.05 1130,362.05" stroke-width="1.1" stroke-opacity="0.5"/>
    <circle cx="312.17" cy="449.84" r="12.4" stroke-width="2" stroke-opacity="0.98" fill="currentColor" fill-opacity="0.12"/>
    <circle cx="514.91" cy="510.97" r="10.86" stroke-width="1.2" stroke-opacity="0.74"/>
    <circle cx="331.58" cy="467.3" r="8.86" stroke-width="1.2" stroke-opacity="0.74"/>
    <circle cx="618.45" cy="425.44" r="7.5" stroke-width="1.2" stroke-opacity="0.74"/>
    <circle cx="537.82" cy="508.15" r="7.07" stroke-width="1.2" stroke-opacity="0.74"/>
    <circle cx="398.51" cy="488.77" r="6.63" stroke-width="1.2" stroke-opacity="0.74"/>
    <circle cx="180.29" cy="288.46" r="6.62" stroke-width="1.2" stroke-opacity="0.74"/>
    <circle cx="114.67" cy="212.69" r="6.18" stroke-width="2" stroke-opacity="0.98" fill="currentColor" fill-opacity="0.12"/>
    <circle cx="70" cy="209.03" r="5.88" stroke-width="1.2" stroke-opacity="0.74"/>
    <circle cx="452.78" cy="493.35" r="5.87" stroke-width="1.2" stroke-opacity="0.74"/>
    <circle cx="500.83" cy="380.32" r="5.79" stroke-width="1.2" stroke-opacity="0.74"/>
    <circle cx="274.47" cy="431.25" r="5.54" stroke-width="1.2" stroke-opacity="0.74"/>
    <circle cx="244.11" cy="272.01" r="5.43" stroke-width="1.2" stroke-opacity="0.74"/>
    <circle cx="749.69" cy="263.7" r="5.27" stroke-width="1.2" stroke-opacity="0.74"/>
    <circle cx="262.06" cy="372.12" r="5.18" stroke-width="2" stroke-opacity="0.98" fill="currentColor" fill-opacity="0.12"/>
    <circle cx="409.58" cy="483.37" r="5.09" stroke-width="1.2" stroke-opacity="0.74"/>
    <circle cx="905.55" cy="321.09" r="4.99" stroke-width="1.2" stroke-opacity="0.74"/>
    <circle cx="161.97" cy="305.41" r="4.93" stroke-width="1.2" stroke-opacity="0.74"/>
    <circle cx="629.19" cy="505.86" r="4.75" stroke-width="1.2" stroke-opacity="0.74"/>
    <circle cx="1091.81" cy="399.14" r="4.54" stroke-width="1.2" stroke-opacity="0.74"/>
    <circle cx="373.79" cy="301.37" r="4.49" stroke-width="1.2" stroke-opacity="0.74"/>
    <circle cx="309.08" cy="452.64" r="4.44" stroke-width="2" stroke-opacity="0.98" fill="currentColor" fill-opacity="0.12"/>
    <circle cx="930.66" cy="370.86" r="4.37" stroke-width="1.2" stroke-opacity="0.74"/>
    <circle cx="629.03" cy="321.62" r="4.33" stroke-width="1.2" stroke-opacity="0.74"/>
    <circle cx="830.74" cy="389.41" r="4.32" stroke-width="1.2" stroke-opacity="0.74"/>
    <circle cx="693.12" cy="396.5" r="4.3" stroke-width="1.2" stroke-opacity="0.74"/>
    <circle cx="201.69" cy="391.88" r="4.3" stroke-width="1.2" stroke-opacity="0.74"/>
    <circle cx="562.96" cy="311.89" r="4.16" stroke-width="1.2" stroke-opacity="0.74"/>
    <circle cx="234.66" cy="338.54" r="3.77" stroke-width="2" stroke-opacity="0.98" fill="currentColor" fill-opacity="0.12"/>
    <circle cx="461.22" cy="361.4" r="3.62" stroke-width="1.2" stroke-opacity="0.74"/>
    <circle cx="1072.26" cy="434.16" r="3.59" stroke-width="1.2" stroke-opacity="0.74"/>
    <circle cx="706.42" cy="286.74" r="3.5" stroke-width="1.2" stroke-opacity="0.74"/>
    <circle cx="1130" cy="362.05" r="3.5" stroke-width="1.2" stroke-opacity="0.74"/>
    <circle cx="557.11" cy="212.31" r="3.33" stroke-width="1.2" stroke-opacity="0.74"/>
    <circle cx="303.94" cy="371.88" r="3.2" stroke-width="1.2" stroke-opacity="0.74"/>
    <circle cx="605.23" cy="364.56" r="3.14" stroke-width="2" stroke-opacity="0.98" fill="currentColor" fill-opacity="0.12"/>
    <circle cx="1008.24" cy="381.32" r="3.01" stroke-width="1.2" stroke-opacity="0.74"/>
  </g>
</svg>
